ISO-10303-21;
HEADER;
/* Generated by software containing ST-Developer
 * from STEP Tools, Inc. (www.steptools.com) 
 */

FILE_DESCRIPTION(
/* description */ (''),
/* implementation_level */ '2;1');

FILE_NAME(
/* name */ 'Bracket R_1 v3.step',
/* time_stamp */ '2023-04-30T21:29:58-07:00',
/* author */ (''),
/* organization */ (''),
/* preprocessor_version */ 'ST-DEVELOPER v19.2',
/* originating_system */ 'Autodesk Translation Framework v12.4.0.73',
/* authorisation */ '');

FILE_SCHEMA (('AUTOMOTIVE_DESIGN { 1 0 10303 214 3 1 1 }'));
ENDSEC;

DATA;
#10=MECHANICAL_DESIGN_GEOMETRIC_PRESENTATION_REPRESENTATION('',(#13),#1427);
#11=SHAPE_REPRESENTATION_RELATIONSHIP('SRR','None',#1434,#12);
#12=ADVANCED_BREP_SHAPE_REPRESENTATION('',(#14),#1426);
#13=STYLED_ITEM('',(#1443),#14);
#14=MANIFOLD_SOLID_BREP('Body1',#831);
#15=FACE_BOUND('',#164,.T.);
#16=FACE_BOUND('',#165,.T.);
#17=FACE_BOUND('',#166,.T.);
#18=FACE_BOUND('',#174,.T.);
#19=FACE_BOUND('',#175,.T.);
#20=FACE_BOUND('',#176,.T.);
#21=CIRCLE('',#847,5.);
#22=CIRCLE('',#848,5.);
#23=CIRCLE('',#851,5.);
#24=CIRCLE('',#852,5.);
#25=CIRCLE('',#855,5.);
#26=CIRCLE('',#856,5.);
#27=CIRCLE('',#859,5.);
#28=CIRCLE('',#860,5.);
#29=CIRCLE('',#862,16.9999999999999);
#30=CIRCLE('',#863,16.9999999999999);
#31=CIRCLE('',#866,5.99999999999996);
#32=CIRCLE('',#867,5.99999999999996);
#33=CIRCLE('',#870,5.99999999999998);
#34=CIRCLE('',#871,5.99999999999998);
#35=CIRCLE('',#873,112.698486812896);
#36=CIRCLE('',#874,112.698486812896);
#37=CIRCLE('',#876,81.249764044219);
#38=CIRCLE('',#877,81.249764044219);
#39=CIRCLE('',#879,79.5);
#40=CIRCLE('',#880,79.5);
#41=CIRCLE('',#884,4.50000000000001);
#42=CIRCLE('',#885,4.50000000000001);
#43=CIRCLE('',#889,4.50000000000001);
#44=CIRCLE('',#890,4.50000000000001);
#45=CIRCLE('',#894,4.5);
#46=CIRCLE('',#895,4.5);
#47=CIRCLE('',#899,4.5);
#48=CIRCLE('',#900,4.5);
#49=CIRCLE('',#902,4.5);
#50=CIRCLE('',#903,4.5);
#51=CIRCLE('',#909,4.5);
#52=CIRCLE('',#910,4.5);
#53=CIRCLE('',#912,60.);
#54=CIRCLE('',#913,60.);
#55=CIRCLE('',#914,60.);
#56=CIRCLE('',#915,60.);
#57=CIRCLE('',#916,60.);
#58=CIRCLE('',#917,60.);
#59=CIRCLE('',#919,60.);
#60=CIRCLE('',#921,60.);
#61=CIRCLE('',#923,60.);
#62=CIRCLE('',#925,60.);
#63=CIRCLE('',#927,60.);
#64=CIRCLE('',#929,60.);
#65=CYLINDRICAL_SURFACE('',#846,5.);
#66=CYLINDRICAL_SURFACE('',#850,5.);
#67=CYLINDRICAL_SURFACE('',#854,5.);
#68=CYLINDRICAL_SURFACE('',#858,5.);
#69=CYLINDRICAL_SURFACE('',#861,16.9999999999999);
#70=CYLINDRICAL_SURFACE('',#865,5.99999999999996);
#71=CYLINDRICAL_SURFACE('',#869,5.99999999999998);
#72=CYLINDRICAL_SURFACE('',#872,112.698486812896);
#73=CYLINDRICAL_SURFACE('',#875,81.249764044219);
#74=CYLINDRICAL_SURFACE('',#878,79.5);
#75=CYLINDRICAL_SURFACE('',#883,4.50000000000001);
#76=CYLINDRICAL_SURFACE('',#888,4.50000000000001);
#77=CYLINDRICAL_SURFACE('',#893,4.5);
#78=CYLINDRICAL_SURFACE('',#898,4.5);
#79=CYLINDRICAL_SURFACE('',#901,4.5);
#80=CYLINDRICAL_SURFACE('',#908,4.5);
#81=CYLINDRICAL_SURFACE('',#918,60.);
#82=CYLINDRICAL_SURFACE('',#920,60.);
#83=CYLINDRICAL_SURFACE('',#922,60.);
#84=CYLINDRICAL_SURFACE('',#924,60.);
#85=CYLINDRICAL_SURFACE('',#926,60.);
#86=CYLINDRICAL_SURFACE('',#928,60.);
#87=FACE_OUTER_BOUND('',#129,.T.);
#88=FACE_OUTER_BOUND('',#130,.T.);
#89=FACE_OUTER_BOUND('',#131,.T.);
#90=FACE_OUTER_BOUND('',#132,.T.);
#91=FACE_OUTER_BOUND('',#133,.T.);
#92=FACE_OUTER_BOUND('',#134,.T.);
#93=FACE_OUTER_BOUND('',#135,.T.);
#94=FACE_OUTER_BOUND('',#136,.T.);
#95=FACE_OUTER_BOUND('',#137,.T.);
#96=FACE_OUTER_BOUND('',#138,.T.);
#97=FACE_OUTER_BOUND('',#139,.T.);
#98=FACE_OUTER_BOUND('',#140,.T.);
#99=FACE_OUTER_BOUND('',#141,.T.);
#100=FACE_OUTER_BOUND('',#142,.T.);
#101=FACE_OUTER_BOUND('',#143,.T.);
#102=FACE_OUTER_BOUND('',#144,.T.);
#103=FACE_OUTER_BOUND('',#145,.T.);
#104=FACE_OUTER_BOUND('',#146,.T.);
#105=FACE_OUTER_BOUND('',#147,.T.);
#106=FACE_OUTER_BOUND('',#148,.T.);
#107=FACE_OUTER_BOUND('',#149,.T.);
#108=FACE_OUTER_BOUND('',#150,.T.);
#109=FACE_OUTER_BOUND('',#151,.T.);
#110=FACE_OUTER_BOUND('',#152,.T.);
#111=FACE_OUTER_BOUND('',#153,.T.);
#112=FACE_OUTER_BOUND('',#154,.T.);
#113=FACE_OUTER_BOUND('',#155,.T.);
#114=FACE_OUTER_BOUND('',#156,.T.);
#115=FACE_OUTER_BOUND('',#157,.T.);
#116=FACE_OUTER_BOUND('',#158,.T.);
#117=FACE_OUTER_BOUND('',#159,.T.);
#118=FACE_OUTER_BOUND('',#160,.T.);
#119=FACE_OUTER_BOUND('',#161,.T.);
#120=FACE_OUTER_BOUND('',#162,.T.);
#121=FACE_OUTER_BOUND('',#163,.T.);
#122=FACE_OUTER_BOUND('',#167,.T.);
#123=FACE_OUTER_BOUND('',#168,.T.);
#124=FACE_OUTER_BOUND('',#169,.T.);
#125=FACE_OUTER_BOUND('',#170,.T.);
#126=FACE_OUTER_BOUND('',#171,.T.);
#127=FACE_OUTER_BOUND('',#172,.T.);
#128=FACE_OUTER_BOUND('',#173,.T.);
#129=EDGE_LOOP('',(#529,#530,#531,#532));
#130=EDGE_LOOP('',(#533,#534,#535,#536));
#131=EDGE_LOOP('',(#537,#538,#539,#540));
#132=EDGE_LOOP('',(#541,#542,#543,#544));
#133=EDGE_LOOP('',(#545,#546,#547,#548));
#134=EDGE_LOOP('',(#549,#550,#551,#552));
#135=EDGE_LOOP('',(#553,#554,#555,#556));
#136=EDGE_LOOP('',(#557,#558,#559,#560));
#137=EDGE_LOOP('',(#561,#562,#563,#564));
#138=EDGE_LOOP('',(#565,#566,#567,#568));
#139=EDGE_LOOP('',(#569,#570,#571,#572));
#140=EDGE_LOOP('',(#573,#574,#575,#576));
#141=EDGE_LOOP('',(#577,#578,#579,#580));
#142=EDGE_LOOP('',(#581,#582,#583,#584));
#143=EDGE_LOOP('',(#585,#586,#587,#588));
#144=EDGE_LOOP('',(#589,#590,#591,#592));
#145=EDGE_LOOP('',(#593,#594,#595,#596));
#146=EDGE_LOOP('',(#597,#598,#599,#600));
#147=EDGE_LOOP('',(#601,#602,#603,#604));
#148=EDGE_LOOP('',(#605,#606,#607,#608));
#149=EDGE_LOOP('',(#609,#610,#611,#612));
#150=EDGE_LOOP('',(#613,#614,#615,#616));
#151=EDGE_LOOP('',(#617,#618,#619,#620));
#152=EDGE_LOOP('',(#621,#622,#623,#624));
#153=EDGE_LOOP('',(#625,#626,#627,#628));
#154=EDGE_LOOP('',(#629,#630,#631,#632));
#155=EDGE_LOOP('',(#633,#634,#635,#636));
#156=EDGE_LOOP('',(#637,#638,#639,#640));
#157=EDGE_LOOP('',(#641,#642,#643,#644));
#158=EDGE_LOOP('',(#645,#646,#647,#648));
#159=EDGE_LOOP('',(#649,#650,#651,#652));
#160=EDGE_LOOP('',(#653,#654,#655,#656));
#161=EDGE_LOOP('',(#657,#658,#659,#660));
#162=EDGE_LOOP('',(#661,#662,#663,#664));
#163=EDGE_LOOP('',(#665,#666,#667,#668,#669,#670,#671,#672));
#164=EDGE_LOOP('',(#673,#674,#675,#676));
#165=EDGE_LOOP('',(#677,#678,#679,#680));
#166=EDGE_LOOP('',(#681,#682,#683,#684,#685,#686,#687,#688,#689,#690,#691,
#692,#693,#694,#695,#696,#697,#698,#699,#700,#701,#702,#703,#704));
#167=EDGE_LOOP('',(#705,#706,#707,#708));
#168=EDGE_LOOP('',(#709,#710,#711,#712));
#169=EDGE_LOOP('',(#713,#714,#715,#716));
#170=EDGE_LOOP('',(#717,#718,#719,#720));
#171=EDGE_LOOP('',(#721,#722,#723,#724));
#172=EDGE_LOOP('',(#725,#726,#727,#728));
#173=EDGE_LOOP('',(#729,#730,#731,#732,#733,#734,#735,#736));
#174=EDGE_LOOP('',(#737,#738,#739,#740));
#175=EDGE_LOOP('',(#741,#742,#743,#744));
#176=EDGE_LOOP('',(#745,#746,#747,#748,#749,#750,#751,#752,#753,#754,#755,
#756,#757,#758,#759,#760,#761,#762,#763,#764,#765,#766,#767,#768));
#177=LINE('',#1185,#253);
#178=LINE('',#1187,#254);
#179=LINE('',#1189,#255);
#180=LINE('',#1190,#256);
#181=LINE('',#1196,#257);
#182=LINE('',#1199,#258);
#183=LINE('',#1201,#259);
#184=LINE('',#1202,#260);
#185=LINE('',#1209,#261);
#186=LINE('',#1211,#262);
#187=LINE('',#1213,#263);
#188=LINE('',#1214,#264);
#189=LINE('',#1220,#265);
#190=LINE('',#1223,#266);
#191=LINE('',#1225,#267);
#192=LINE('',#1226,#268);
#193=LINE('',#1235,#269);
#194=LINE('',#1238,#270);
#195=LINE('',#1241,#271);
#196=LINE('',#1243,#272);
#197=LINE('',#1244,#273);
#198=LINE('',#1250,#274);
#199=LINE('',#1253,#275);
#200=LINE('',#1255,#276);
#201=LINE('',#1256,#277);
#202=LINE('',#1262,#278);
#203=LINE('',#1268,#279);
#204=LINE('',#1273,#280);
#205=LINE('',#1281,#281);
#206=LINE('',#1283,#282);
#207=LINE('',#1285,#283);
#208=LINE('',#1286,#284);
#209=LINE('',#1290,#285);
#210=LINE('',#1292,#286);
#211=LINE('',#1294,#287);
#212=LINE('',#1295,#288);
#213=LINE('',#1302,#289);
#214=LINE('',#1304,#290);
#215=LINE('',#1306,#291);
#216=LINE('',#1307,#292);
#217=LINE('',#1311,#293);
#218=LINE('',#1313,#294);
#219=LINE('',#1315,#295);
#220=LINE('',#1316,#296);
#221=LINE('',#1323,#297);
#222=LINE('',#1325,#298);
#223=LINE('',#1327,#299);
#224=LINE('',#1328,#300);
#225=LINE('',#1332,#301);
#226=LINE('',#1334,#302);
#227=LINE('',#1336,#303);
#228=LINE('',#1337,#304);
#229=LINE('',#1344,#305);
#230=LINE('',#1346,#306);
#231=LINE('',#1348,#307);
#232=LINE('',#1349,#308);
#233=LINE('',#1353,#309);
#234=LINE('',#1355,#310);
#235=LINE('',#1357,#311);
#236=LINE('',#1358,#312);
#237=LINE('',#1367,#313);
#238=LINE('',#1370,#314);
#239=LINE('',#1373,#315);
#240=LINE('',#1375,#316);
#241=LINE('',#1376,#317);
#242=LINE('',#1379,#318);
#243=LINE('',#1381,#319);
#244=LINE('',#1382,#320);
#245=LINE('',#1386,#321);
#246=LINE('',#1388,#322);
#247=LINE('',#1390,#323);
#248=LINE('',#1391,#324);
#249=LINE('',#1395,#325);
#250=LINE('',#1397,#326);
#251=LINE('',#1399,#327);
#252=LINE('',#1400,#328);
#253=VECTOR('',#935,10.);
#254=VECTOR('',#936,10.);
#255=VECTOR('',#937,10.);
#256=VECTOR('',#938,10.);
#257=VECTOR('',#945,10.);
#258=VECTOR('',#948,10.);
#259=VECTOR('',#949,10.);
#260=VECTOR('',#950,10.);
#261=VECTOR('',#959,10.);
#262=VECTOR('',#960,10.);
#263=VECTOR('',#961,10.);
#264=VECTOR('',#962,10.);
#265=VECTOR('',#969,10.);
#266=VECTOR('',#972,10.);
#267=VECTOR('',#973,10.);
#268=VECTOR('',#974,10.);
#269=VECTOR('',#985,10.);
#270=VECTOR('',#988,10.);
#271=VECTOR('',#991,10.);
#272=VECTOR('',#992,10.);
#273=VECTOR('',#993,10.);
#274=VECTOR('',#1000,10.);
#275=VECTOR('',#1003,10.);
#276=VECTOR('',#1004,10.);
#277=VECTOR('',#1005,10.);
#278=VECTOR('',#1012,10.);
#279=VECTOR('',#1019,10.);
#280=VECTOR('',#1024,10.);
#281=VECTOR('',#1035,10.);
#282=VECTOR('',#1036,10.);
#283=VECTOR('',#1037,10.);
#284=VECTOR('',#1038,10.);
#285=VECTOR('',#1041,10.);
#286=VECTOR('',#1042,10.);
#287=VECTOR('',#1043,10.);
#288=VECTOR('',#1044,10.);
#289=VECTOR('',#1053,10.);
#290=VECTOR('',#1054,10.);
#291=VECTOR('',#1055,10.);
#292=VECTOR('',#1056,10.);
#293=VECTOR('',#1059,10.);
#294=VECTOR('',#1060,10.);
#295=VECTOR('',#1061,10.);
#296=VECTOR('',#1062,10.);
#297=VECTOR('',#1071,10.);
#298=VECTOR('',#1072,10.);
#299=VECTOR('',#1073,10.);
#300=VECTOR('',#1074,10.);
#301=VECTOR('',#1077,10.);
#302=VECTOR('',#1078,10.);
#303=VECTOR('',#1079,10.);
#304=VECTOR('',#1080,10.);
#305=VECTOR('',#1089,10.);
#306=VECTOR('',#1090,10.);
#307=VECTOR('',#1091,10.);
#308=VECTOR('',#1092,10.);
#309=VECTOR('',#1095,10.);
#310=VECTOR('',#1096,10.);
#311=VECTOR('',#1097,10.);
#312=VECTOR('',#1098,10.);
#313=VECTOR('',#1109,10.);
#314=VECTOR('',#1112,10.);
#315=VECTOR('',#1115,10.);
#316=VECTOR('',#1116,10.);
#317=VECTOR('',#1117,10.);
#318=VECTOR('',#1120,10.);
#319=VECTOR('',#1121,10.);
#320=VECTOR('',#1122,10.);
#321=VECTOR('',#1125,10.);
#322=VECTOR('',#1126,10.);
#323=VECTOR('',#1127,10.);
#324=VECTOR('',#1128,10.);
#325=VECTOR('',#1131,10.);
#326=VECTOR('',#1132,10.);
#327=VECTOR('',#1133,10.);
#328=VECTOR('',#1134,10.);
#329=VERTEX_POINT('',#1183);
#330=VERTEX_POINT('',#1184);
#331=VERTEX_POINT('',#1186);
#332=VERTEX_POINT('',#1188);
#333=VERTEX_POINT('',#1192);
#334=VERTEX_POINT('',#1194);
#335=VERTEX_POINT('',#1198);
#336=VERTEX_POINT('',#1200);
#337=VERTEX_POINT('',#1207);
#338=VERTEX_POINT('',#1208);
#339=VERTEX_POINT('',#1210);
#340=VERTEX_POINT('',#1212);
#341=VERTEX_POINT('',#1216);
#342=VERTEX_POINT('',#1218);
#343=VERTEX_POINT('',#1222);
#344=VERTEX_POINT('',#1224);
#345=VERTEX_POINT('',#1231);
#346=VERTEX_POINT('',#1232);
#347=VERTEX_POINT('',#1234);
#348=VERTEX_POINT('',#1236);
#349=VERTEX_POINT('',#1240);
#350=VERTEX_POINT('',#1242);
#351=VERTEX_POINT('',#1246);
#352=VERTEX_POINT('',#1248);
#353=VERTEX_POINT('',#1252);
#354=VERTEX_POINT('',#1254);
#355=VERTEX_POINT('',#1258);
#356=VERTEX_POINT('',#1260);
#357=VERTEX_POINT('',#1264);
#358=VERTEX_POINT('',#1266);
#359=VERTEX_POINT('',#1270);
#360=VERTEX_POINT('',#1272);
#361=VERTEX_POINT('',#1279);
#362=VERTEX_POINT('',#1280);
#363=VERTEX_POINT('',#1282);
#364=VERTEX_POINT('',#1284);
#365=VERTEX_POINT('',#1288);
#366=VERTEX_POINT('',#1289);
#367=VERTEX_POINT('',#1291);
#368=VERTEX_POINT('',#1293);
#369=VERTEX_POINT('',#1300);
#370=VERTEX_POINT('',#1301);
#371=VERTEX_POINT('',#1303);
#372=VERTEX_POINT('',#1305);
#373=VERTEX_POINT('',#1309);
#374=VERTEX_POINT('',#1310);
#375=VERTEX_POINT('',#1312);
#376=VERTEX_POINT('',#1314);
#377=VERTEX_POINT('',#1321);
#378=VERTEX_POINT('',#1322);
#379=VERTEX_POINT('',#1324);
#380=VERTEX_POINT('',#1326);
#381=VERTEX_POINT('',#1330);
#382=VERTEX_POINT('',#1331);
#383=VERTEX_POINT('',#1333);
#384=VERTEX_POINT('',#1335);
#385=VERTEX_POINT('',#1342);
#386=VERTEX_POINT('',#1343);
#387=VERTEX_POINT('',#1345);
#388=VERTEX_POINT('',#1347);
#389=VERTEX_POINT('',#1351);
#390=VERTEX_POINT('',#1352);
#391=VERTEX_POINT('',#1354);
#392=VERTEX_POINT('',#1356);
#393=VERTEX_POINT('',#1363);
#394=VERTEX_POINT('',#1364);
#395=VERTEX_POINT('',#1366);
#396=VERTEX_POINT('',#1368);
#397=VERTEX_POINT('',#1372);
#398=VERTEX_POINT('',#1374);
#399=VERTEX_POINT('',#1378);
#400=VERTEX_POINT('',#1380);
#401=VERTEX_POINT('',#1384);
#402=VERTEX_POINT('',#1385);
#403=VERTEX_POINT('',#1387);
#404=VERTEX_POINT('',#1389);
#405=VERTEX_POINT('',#1393);
#406=VERTEX_POINT('',#1394);
#407=VERTEX_POINT('',#1396);
#408=VERTEX_POINT('',#1398);
#409=EDGE_CURVE('',#329,#330,#177,.T.);
#410=EDGE_CURVE('',#329,#331,#178,.T.);
#411=EDGE_CURVE('',#332,#331,#179,.T.);
#412=EDGE_CURVE('',#330,#332,#180,.T.);
#413=EDGE_CURVE('',#330,#333,#21,.T.);
#414=EDGE_CURVE('',#334,#332,#22,.T.);
#415=EDGE_CURVE('',#333,#334,#181,.T.);
#416=EDGE_CURVE('',#333,#335,#182,.T.);
#417=EDGE_CURVE('',#336,#334,#183,.T.);
#418=EDGE_CURVE('',#335,#336,#184,.T.);
#419=EDGE_CURVE('',#335,#329,#23,.T.);
#420=EDGE_CURVE('',#331,#336,#24,.T.);
#421=EDGE_CURVE('',#337,#338,#185,.T.);
#422=EDGE_CURVE('',#337,#339,#186,.T.);
#423=EDGE_CURVE('',#340,#339,#187,.T.);
#424=EDGE_CURVE('',#338,#340,#188,.T.);
#425=EDGE_CURVE('',#338,#341,#25,.T.);
#426=EDGE_CURVE('',#342,#340,#26,.T.);
#427=EDGE_CURVE('',#341,#342,#189,.T.);
#428=EDGE_CURVE('',#341,#343,#190,.T.);
#429=EDGE_CURVE('',#344,#342,#191,.T.);
#430=EDGE_CURVE('',#343,#344,#192,.T.);
#431=EDGE_CURVE('',#343,#337,#27,.T.);
#432=EDGE_CURVE('',#339,#344,#28,.T.);
#433=EDGE_CURVE('',#345,#346,#29,.T.);
#434=EDGE_CURVE('',#345,#347,#193,.T.);
#435=EDGE_CURVE('',#348,#347,#30,.T.);
#436=EDGE_CURVE('',#346,#348,#194,.T.);
#437=EDGE_CURVE('',#346,#349,#195,.T.);
#438=EDGE_CURVE('',#350,#348,#196,.T.);
#439=EDGE_CURVE('',#349,#350,#197,.T.);
#440=EDGE_CURVE('',#349,#351,#31,.T.);
#441=EDGE_CURVE('',#352,#350,#32,.T.);
#442=EDGE_CURVE('',#351,#352,#198,.T.);
#443=EDGE_CURVE('',#351,#353,#199,.T.);
#444=EDGE_CURVE('',#354,#352,#200,.T.);
#445=EDGE_CURVE('',#353,#354,#201,.T.);
#446=EDGE_CURVE('',#353,#355,#33,.T.);
#447=EDGE_CURVE('',#356,#354,#34,.T.);
#448=EDGE_CURVE('',#355,#356,#202,.T.);
#449=EDGE_CURVE('',#357,#355,#35,.T.);
#450=EDGE_CURVE('',#358,#356,#36,.T.);
#451=EDGE_CURVE('',#357,#358,#203,.T.);
#452=EDGE_CURVE('',#345,#359,#37,.T.);
#453=EDGE_CURVE('',#359,#360,#204,.T.);
#454=EDGE_CURVE('',#347,#360,#38,.T.);
#455=EDGE_CURVE('',#357,#359,#39,.T.);
#456=EDGE_CURVE('',#360,#358,#40,.T.);
#457=EDGE_CURVE('',#361,#362,#205,.T.);
#458=EDGE_CURVE('',#363,#361,#206,.T.);
#459=EDGE_CURVE('',#364,#363,#207,.T.);
#460=EDGE_CURVE('',#362,#364,#208,.T.);
#461=EDGE_CURVE('',#365,#366,#209,.T.);
#462=EDGE_CURVE('',#365,#367,#210,.T.);
#463=EDGE_CURVE('',#368,#367,#211,.T.);
#464=EDGE_CURVE('',#366,#368,#212,.T.);
#465=EDGE_CURVE('',#362,#365,#41,.T.);
#466=EDGE_CURVE('',#367,#364,#42,.T.);
#467=EDGE_CURVE('',#369,#370,#213,.T.);
#468=EDGE_CURVE('',#371,#369,#214,.T.);
#469=EDGE_CURVE('',#372,#371,#215,.T.);
#470=EDGE_CURVE('',#370,#372,#216,.T.);
#471=EDGE_CURVE('',#373,#374,#217,.T.);
#472=EDGE_CURVE('',#373,#375,#218,.T.);
#473=EDGE_CURVE('',#376,#375,#219,.T.);
#474=EDGE_CURVE('',#374,#376,#220,.T.);
#475=EDGE_CURVE('',#370,#373,#43,.T.);
#476=EDGE_CURVE('',#375,#372,#44,.T.);
#477=EDGE_CURVE('',#377,#378,#221,.T.);
#478=EDGE_CURVE('',#379,#377,#222,.T.);
#479=EDGE_CURVE('',#380,#379,#223,.T.);
#480=EDGE_CURVE('',#378,#380,#224,.T.);
#481=EDGE_CURVE('',#381,#382,#225,.T.);
#482=EDGE_CURVE('',#381,#383,#226,.T.);
#483=EDGE_CURVE('',#384,#383,#227,.T.);
#484=EDGE_CURVE('',#382,#384,#228,.T.);
#485=EDGE_CURVE('',#378,#381,#45,.T.);
#486=EDGE_CURVE('',#383,#380,#46,.T.);
#487=EDGE_CURVE('',#385,#386,#229,.T.);
#488=EDGE_CURVE('',#387,#385,#230,.T.);
#489=EDGE_CURVE('',#388,#387,#231,.T.);
#490=EDGE_CURVE('',#386,#388,#232,.T.);
#491=EDGE_CURVE('',#389,#390,#233,.T.);
#492=EDGE_CURVE('',#389,#391,#234,.T.);
#493=EDGE_CURVE('',#392,#391,#235,.T.);
#494=EDGE_CURVE('',#390,#392,#236,.T.);
#495=EDGE_CURVE('',#386,#389,#47,.T.);
#496=EDGE_CURVE('',#391,#388,#48,.T.);
#497=EDGE_CURVE('',#393,#394,#49,.T.);
#498=EDGE_CURVE('',#393,#395,#237,.T.);
#499=EDGE_CURVE('',#396,#395,#50,.T.);
#500=EDGE_CURVE('',#394,#396,#238,.T.);
#501=EDGE_CURVE('',#397,#393,#239,.T.);
#502=EDGE_CURVE('',#398,#397,#240,.T.);
#503=EDGE_CURVE('',#395,#398,#241,.T.);
#504=EDGE_CURVE('',#394,#399,#242,.T.);
#505=EDGE_CURVE('',#400,#396,#243,.T.);
#506=EDGE_CURVE('',#399,#400,#244,.T.);
#507=EDGE_CURVE('',#401,#402,#245,.T.);
#508=EDGE_CURVE('',#403,#401,#246,.T.);
#509=EDGE_CURVE('',#404,#403,#247,.T.);
#510=EDGE_CURVE('',#402,#404,#248,.T.);
#511=EDGE_CURVE('',#405,#406,#249,.T.);
#512=EDGE_CURVE('',#405,#407,#250,.T.);
#513=EDGE_CURVE('',#408,#407,#251,.T.);
#514=EDGE_CURVE('',#406,#408,#252,.T.);
#515=EDGE_CURVE('',#402,#405,#51,.T.);
#516=EDGE_CURVE('',#407,#404,#52,.T.);
#517=EDGE_CURVE('',#363,#392,#53,.T.);
#518=EDGE_CURVE('',#387,#400,#54,.T.);
#519=EDGE_CURVE('',#398,#376,#55,.T.);
#520=EDGE_CURVE('',#371,#408,#56,.T.);
#521=EDGE_CURVE('',#403,#384,#57,.T.);
#522=EDGE_CURVE('',#379,#368,#58,.T.);
#523=EDGE_CURVE('',#399,#385,#59,.T.);
#524=EDGE_CURVE('',#382,#401,#60,.T.);
#525=EDGE_CURVE('',#406,#369,#61,.T.);
#526=EDGE_CURVE('',#374,#397,#62,.T.);
#527=EDGE_CURVE('',#390,#361,#63,.T.);
#528=EDGE_CURVE('',#366,#377,#64,.T.);
#529=ORIENTED_EDGE('',*,*,#409,.F.);
#530=ORIENTED_EDGE('',*,*,#410,.T.);
#531=ORIENTED_EDGE('',*,*,#411,.F.);
#532=ORIENTED_EDGE('',*,*,#412,.F.);
#533=ORIENTED_EDGE('',*,*,#413,.F.);
#534=ORIENTED_EDGE('',*,*,#412,.T.);
#535=ORIENTED_EDGE('',*,*,#414,.F.);
#536=ORIENTED_EDGE('',*,*,#415,.F.);
#537=ORIENTED_EDGE('',*,*,#416,.F.);
#538=ORIENTED_EDGE('',*,*,#415,.T.);
#539=ORIENTED_EDGE('',*,*,#417,.F.);
#540=ORIENTED_EDGE('',*,*,#418,.F.);
#541=ORIENTED_EDGE('',*,*,#419,.F.);
#542=ORIENTED_EDGE('',*,*,#418,.T.);
#543=ORIENTED_EDGE('',*,*,#420,.F.);
#544=ORIENTED_EDGE('',*,*,#410,.F.);
#545=ORIENTED_EDGE('',*,*,#421,.F.);
#546=ORIENTED_EDGE('',*,*,#422,.T.);
#547=ORIENTED_EDGE('',*,*,#423,.F.);
#548=ORIENTED_EDGE('',*,*,#424,.F.);
#549=ORIENTED_EDGE('',*,*,#425,.F.);
#550=ORIENTED_EDGE('',*,*,#424,.T.);
#551=ORIENTED_EDGE('',*,*,#426,.F.);
#552=ORIENTED_EDGE('',*,*,#427,.F.);
#553=ORIENTED_EDGE('',*,*,#428,.F.);
#554=ORIENTED_EDGE('',*,*,#427,.T.);
#555=ORIENTED_EDGE('',*,*,#429,.F.);
#556=ORIENTED_EDGE('',*,*,#430,.F.);
#557=ORIENTED_EDGE('',*,*,#431,.F.);
#558=ORIENTED_EDGE('',*,*,#430,.T.);
#559=ORIENTED_EDGE('',*,*,#432,.F.);
#560=ORIENTED_EDGE('',*,*,#422,.F.);
#561=ORIENTED_EDGE('',*,*,#433,.F.);
#562=ORIENTED_EDGE('',*,*,#434,.T.);
#563=ORIENTED_EDGE('',*,*,#435,.F.);
#564=ORIENTED_EDGE('',*,*,#436,.F.);
#565=ORIENTED_EDGE('',*,*,#437,.F.);
#566=ORIENTED_EDGE('',*,*,#436,.T.);
#567=ORIENTED_EDGE('',*,*,#438,.F.);
#568=ORIENTED_EDGE('',*,*,#439,.F.);
#569=ORIENTED_EDGE('',*,*,#440,.F.);
#570=ORIENTED_EDGE('',*,*,#439,.T.);
#571=ORIENTED_EDGE('',*,*,#441,.F.);
#572=ORIENTED_EDGE('',*,*,#442,.F.);
#573=ORIENTED_EDGE('',*,*,#443,.F.);
#574=ORIENTED_EDGE('',*,*,#442,.T.);
#575=ORIENTED_EDGE('',*,*,#444,.F.);
#576=ORIENTED_EDGE('',*,*,#445,.F.);
#577=ORIENTED_EDGE('',*,*,#446,.F.);
#578=ORIENTED_EDGE('',*,*,#445,.T.);
#579=ORIENTED_EDGE('',*,*,#447,.F.);
#580=ORIENTED_EDGE('',*,*,#448,.F.);
#581=ORIENTED_EDGE('',*,*,#449,.T.);
#582=ORIENTED_EDGE('',*,*,#448,.T.);
#583=ORIENTED_EDGE('',*,*,#450,.F.);
#584=ORIENTED_EDGE('',*,*,#451,.F.);
#585=ORIENTED_EDGE('',*,*,#452,.T.);
#586=ORIENTED_EDGE('',*,*,#453,.T.);
#587=ORIENTED_EDGE('',*,*,#454,.F.);
#588=ORIENTED_EDGE('',*,*,#434,.F.);
#589=ORIENTED_EDGE('',*,*,#453,.F.);
#590=ORIENTED_EDGE('',*,*,#455,.F.);
#591=ORIENTED_EDGE('',*,*,#451,.T.);
#592=ORIENTED_EDGE('',*,*,#456,.F.);
#593=ORIENTED_EDGE('',*,*,#457,.F.);
#594=ORIENTED_EDGE('',*,*,#458,.F.);
#595=ORIENTED_EDGE('',*,*,#459,.F.);
#596=ORIENTED_EDGE('',*,*,#460,.F.);
#597=ORIENTED_EDGE('',*,*,#461,.F.);
#598=ORIENTED_EDGE('',*,*,#462,.T.);
#599=ORIENTED_EDGE('',*,*,#463,.F.);
#600=ORIENTED_EDGE('',*,*,#464,.F.);
#601=ORIENTED_EDGE('',*,*,#465,.F.);
#602=ORIENTED_EDGE('',*,*,#460,.T.);
#603=ORIENTED_EDGE('',*,*,#466,.F.);
#604=ORIENTED_EDGE('',*,*,#462,.F.);
#605=ORIENTED_EDGE('',*,*,#467,.F.);
#606=ORIENTED_EDGE('',*,*,#468,.F.);
#607=ORIENTED_EDGE('',*,*,#469,.F.);
#608=ORIENTED_EDGE('',*,*,#470,.F.);
#609=ORIENTED_EDGE('',*,*,#471,.F.);
#610=ORIENTED_EDGE('',*,*,#472,.T.);
#611=ORIENTED_EDGE('',*,*,#473,.F.);
#612=ORIENTED_EDGE('',*,*,#474,.F.);
#613=ORIENTED_EDGE('',*,*,#475,.F.);
#614=ORIENTED_EDGE('',*,*,#470,.T.);
#615=ORIENTED_EDGE('',*,*,#476,.F.);
#616=ORIENTED_EDGE('',*,*,#472,.F.);
#617=ORIENTED_EDGE('',*,*,#477,.F.);
#618=ORIENTED_EDGE('',*,*,#478,.F.);
#619=ORIENTED_EDGE('',*,*,#479,.F.);
#620=ORIENTED_EDGE('',*,*,#480,.F.);
#621=ORIENTED_EDGE('',*,*,#481,.F.);
#622=ORIENTED_EDGE('',*,*,#482,.T.);
#623=ORIENTED_EDGE('',*,*,#483,.F.);
#624=ORIENTED_EDGE('',*,*,#484,.F.);
#625=ORIENTED_EDGE('',*,*,#485,.F.);
#626=ORIENTED_EDGE('',*,*,#480,.T.);
#627=ORIENTED_EDGE('',*,*,#486,.F.);
#628=ORIENTED_EDGE('',*,*,#482,.F.);
#629=ORIENTED_EDGE('',*,*,#487,.F.);
#630=ORIENTED_EDGE('',*,*,#488,.F.);
#631=ORIENTED_EDGE('',*,*,#489,.F.);
#632=ORIENTED_EDGE('',*,*,#490,.F.);
#633=ORIENTED_EDGE('',*,*,#491,.F.);
#634=ORIENTED_EDGE('',*,*,#492,.T.);
#635=ORIENTED_EDGE('',*,*,#493,.F.);
#636=ORIENTED_EDGE('',*,*,#494,.F.);
#637=ORIENTED_EDGE('',*,*,#495,.F.);
#638=ORIENTED_EDGE('',*,*,#490,.T.);
#639=ORIENTED_EDGE('',*,*,#496,.F.);
#640=ORIENTED_EDGE('',*,*,#492,.F.);
#641=ORIENTED_EDGE('',*,*,#497,.F.);
#642=ORIENTED_EDGE('',*,*,#498,.T.);
#643=ORIENTED_EDGE('',*,*,#499,.F.);
#644=ORIENTED_EDGE('',*,*,#500,.F.);
#645=ORIENTED_EDGE('',*,*,#501,.F.);
#646=ORIENTED_EDGE('',*,*,#502,.F.);
#647=ORIENTED_EDGE('',*,*,#503,.F.);
#648=ORIENTED_EDGE('',*,*,#498,.F.);
#649=ORIENTED_EDGE('',*,*,#504,.F.);
#650=ORIENTED_EDGE('',*,*,#500,.T.);
#651=ORIENTED_EDGE('',*,*,#505,.F.);
#652=ORIENTED_EDGE('',*,*,#506,.F.);
#653=ORIENTED_EDGE('',*,*,#507,.F.);
#654=ORIENTED_EDGE('',*,*,#508,.F.);
#655=ORIENTED_EDGE('',*,*,#509,.F.);
#656=ORIENTED_EDGE('',*,*,#510,.F.);
#657=ORIENTED_EDGE('',*,*,#511,.F.);
#658=ORIENTED_EDGE('',*,*,#512,.T.);
#659=ORIENTED_EDGE('',*,*,#513,.F.);
#660=ORIENTED_EDGE('',*,*,#514,.F.);
#661=ORIENTED_EDGE('',*,*,#515,.F.);
#662=ORIENTED_EDGE('',*,*,#510,.T.);
#663=ORIENTED_EDGE('',*,*,#516,.F.);
#664=ORIENTED_EDGE('',*,*,#512,.F.);
#665=ORIENTED_EDGE('',*,*,#456,.T.);
#666=ORIENTED_EDGE('',*,*,#450,.T.);
#667=ORIENTED_EDGE('',*,*,#447,.T.);
#668=ORIENTED_EDGE('',*,*,#444,.T.);
#669=ORIENTED_EDGE('',*,*,#441,.T.);
#670=ORIENTED_EDGE('',*,*,#438,.T.);
#671=ORIENTED_EDGE('',*,*,#435,.T.);
#672=ORIENTED_EDGE('',*,*,#454,.T.);
#673=ORIENTED_EDGE('',*,*,#420,.T.);
#674=ORIENTED_EDGE('',*,*,#417,.T.);
#675=ORIENTED_EDGE('',*,*,#414,.T.);
#676=ORIENTED_EDGE('',*,*,#411,.T.);
#677=ORIENTED_EDGE('',*,*,#432,.T.);
#678=ORIENTED_EDGE('',*,*,#429,.T.);
#679=ORIENTED_EDGE('',*,*,#426,.T.);
#680=ORIENTED_EDGE('',*,*,#423,.T.);
#681=ORIENTED_EDGE('',*,*,#463,.T.);
#682=ORIENTED_EDGE('',*,*,#466,.T.);
#683=ORIENTED_EDGE('',*,*,#459,.T.);
#684=ORIENTED_EDGE('',*,*,#517,.T.);
#685=ORIENTED_EDGE('',*,*,#493,.T.);
#686=ORIENTED_EDGE('',*,*,#496,.T.);
#687=ORIENTED_EDGE('',*,*,#489,.T.);
#688=ORIENTED_EDGE('',*,*,#518,.T.);
#689=ORIENTED_EDGE('',*,*,#505,.T.);
#690=ORIENTED_EDGE('',*,*,#499,.T.);
#691=ORIENTED_EDGE('',*,*,#503,.T.);
#692=ORIENTED_EDGE('',*,*,#519,.T.);
#693=ORIENTED_EDGE('',*,*,#473,.T.);
#694=ORIENTED_EDGE('',*,*,#476,.T.);
#695=ORIENTED_EDGE('',*,*,#469,.T.);
#696=ORIENTED_EDGE('',*,*,#520,.T.);
#697=ORIENTED_EDGE('',*,*,#513,.T.);
#698=ORIENTED_EDGE('',*,*,#516,.T.);
#699=ORIENTED_EDGE('',*,*,#509,.T.);
#700=ORIENTED_EDGE('',*,*,#521,.T.);
#701=ORIENTED_EDGE('',*,*,#483,.T.);
#702=ORIENTED_EDGE('',*,*,#486,.T.);
#703=ORIENTED_EDGE('',*,*,#479,.T.);
#704=ORIENTED_EDGE('',*,*,#522,.T.);
#705=ORIENTED_EDGE('',*,*,#488,.T.);
#706=ORIENTED_EDGE('',*,*,#523,.F.);
#707=ORIENTED_EDGE('',*,*,#506,.T.);
#708=ORIENTED_EDGE('',*,*,#518,.F.);
#709=ORIENTED_EDGE('',*,*,#484,.T.);
#710=ORIENTED_EDGE('',*,*,#521,.F.);
#711=ORIENTED_EDGE('',*,*,#508,.T.);
#712=ORIENTED_EDGE('',*,*,#524,.F.);
#713=ORIENTED_EDGE('',*,*,#468,.T.);
#714=ORIENTED_EDGE('',*,*,#525,.F.);
#715=ORIENTED_EDGE('',*,*,#514,.T.);
#716=ORIENTED_EDGE('',*,*,#520,.F.);
#717=ORIENTED_EDGE('',*,*,#474,.T.);
#718=ORIENTED_EDGE('',*,*,#519,.F.);
#719=ORIENTED_EDGE('',*,*,#502,.T.);
#720=ORIENTED_EDGE('',*,*,#526,.F.);
#721=ORIENTED_EDGE('',*,*,#458,.T.);
#722=ORIENTED_EDGE('',*,*,#527,.F.);
#723=ORIENTED_EDGE('',*,*,#494,.T.);
#724=ORIENTED_EDGE('',*,*,#517,.F.);
#725=ORIENTED_EDGE('',*,*,#464,.T.);
#726=ORIENTED_EDGE('',*,*,#522,.F.);
#727=ORIENTED_EDGE('',*,*,#478,.T.);
#728=ORIENTED_EDGE('',*,*,#528,.F.);
#729=ORIENTED_EDGE('',*,*,#455,.T.);
#730=ORIENTED_EDGE('',*,*,#452,.F.);
#731=ORIENTED_EDGE('',*,*,#433,.T.);
#732=ORIENTED_EDGE('',*,*,#437,.T.);
#733=ORIENTED_EDGE('',*,*,#440,.T.);
#734=ORIENTED_EDGE('',*,*,#443,.T.);
#735=ORIENTED_EDGE('',*,*,#446,.T.);
#736=ORIENTED_EDGE('',*,*,#449,.F.);
#737=ORIENTED_EDGE('',*,*,#419,.T.);
#738=ORIENTED_EDGE('',*,*,#409,.T.);
#739=ORIENTED_EDGE('',*,*,#413,.T.);
#740=ORIENTED_EDGE('',*,*,#416,.T.);
#741=ORIENTED_EDGE('',*,*,#431,.T.);
#742=ORIENTED_EDGE('',*,*,#421,.T.);
#743=ORIENTED_EDGE('',*,*,#425,.T.);
#744=ORIENTED_EDGE('',*,*,#428,.T.);
#745=ORIENTED_EDGE('',*,*,#461,.T.);
#746=ORIENTED_EDGE('',*,*,#528,.T.);
#747=ORIENTED_EDGE('',*,*,#477,.T.);
#748=ORIENTED_EDGE('',*,*,#485,.T.);
#749=ORIENTED_EDGE('',*,*,#481,.T.);
#750=ORIENTED_EDGE('',*,*,#524,.T.);
#751=ORIENTED_EDGE('',*,*,#507,.T.);
#752=ORIENTED_EDGE('',*,*,#515,.T.);
#753=ORIENTED_EDGE('',*,*,#511,.T.);
#754=ORIENTED_EDGE('',*,*,#525,.T.);
#755=ORIENTED_EDGE('',*,*,#467,.T.);
#756=ORIENTED_EDGE('',*,*,#475,.T.);
#757=ORIENTED_EDGE('',*,*,#471,.T.);
#758=ORIENTED_EDGE('',*,*,#526,.T.);
#759=ORIENTED_EDGE('',*,*,#501,.T.);
#760=ORIENTED_EDGE('',*,*,#497,.T.);
#761=ORIENTED_EDGE('',*,*,#504,.T.);
#762=ORIENTED_EDGE('',*,*,#523,.T.);
#763=ORIENTED_EDGE('',*,*,#487,.T.);
#764=ORIENTED_EDGE('',*,*,#495,.T.);
#765=ORIENTED_EDGE('',*,*,#491,.T.);
#766=ORIENTED_EDGE('',*,*,#527,.T.);
#767=ORIENTED_EDGE('',*,*,#457,.T.);
#768=ORIENTED_EDGE('',*,*,#465,.T.);
#769=PLANE('',#845);
#770=PLANE('',#849);
#771=PLANE('',#853);
#772=PLANE('',#857);
#773=PLANE('',#864);
#774=PLANE('',#868);
#775=PLANE('',#881);
#776=PLANE('',#882);
#777=PLANE('',#886);
#778=PLANE('',#887);
#779=PLANE('',#891);
#780=PLANE('',#892);
#781=PLANE('',#896);
#782=PLANE('',#897);
#783=PLANE('',#904);
#784=PLANE('',#905);
#785=PLANE('',#906);
#786=PLANE('',#907);
#787=PLANE('',#911);
#788=PLANE('',#930);
#789=ADVANCED_FACE('',(#87),#769,.T.);
#790=ADVANCED_FACE('',(#88),#65,.F.);
#791=ADVANCED_FACE('',(#89),#770,.T.);
#792=ADVANCED_FACE('',(#90),#66,.F.);
#793=ADVANCED_FACE('',(#91),#771,.T.);
#794=ADVANCED_FACE('',(#92),#67,.F.);
#795=ADVANCED_FACE('',(#93),#772,.T.);
#796=ADVANCED_FACE('',(#94),#68,.F.);
#797=ADVANCED_FACE('',(#95),#69,.T.);
#798=ADVANCED_FACE('',(#96),#773,.T.);
#799=ADVANCED_FACE('',(#97),#70,.T.);
#800=ADVANCED_FACE('',(#98),#774,.T.);
#801=ADVANCED_FACE('',(#99),#71,.T.);
#802=ADVANCED_FACE('',(#100),#72,.F.);
#803=ADVANCED_FACE('',(#101),#73,.F.);
#804=ADVANCED_FACE('',(#102),#74,.T.);
#805=ADVANCED_FACE('',(#103),#775,.F.);
#806=ADVANCED_FACE('',(#104),#776,.F.);
#807=ADVANCED_FACE('',(#105),#75,.F.);
#808=ADVANCED_FACE('',(#106),#777,.F.);
#809=ADVANCED_FACE('',(#107),#778,.F.);
#810=ADVANCED_FACE('',(#108),#76,.F.);
#811=ADVANCED_FACE('',(#109),#779,.F.);
#812=ADVANCED_FACE('',(#110),#780,.F.);
#813=ADVANCED_FACE('',(#111),#77,.F.);
#814=ADVANCED_FACE('',(#112),#781,.F.);
#815=ADVANCED_FACE('',(#113),#782,.F.);
#816=ADVANCED_FACE('',(#114),#78,.F.);
#817=ADVANCED_FACE('',(#115),#79,.F.);
#818=ADVANCED_FACE('',(#116),#783,.F.);
#819=ADVANCED_FACE('',(#117),#784,.F.);
#820=ADVANCED_FACE('',(#118),#785,.F.);
#821=ADVANCED_FACE('',(#119),#786,.F.);
#822=ADVANCED_FACE('',(#120),#80,.F.);
#823=ADVANCED_FACE('',(#121,#15,#16,#17),#787,.T.);
#824=ADVANCED_FACE('',(#122),#81,.F.);
#825=ADVANCED_FACE('',(#123),#82,.F.);
#826=ADVANCED_FACE('',(#124),#83,.F.);
#827=ADVANCED_FACE('',(#125),#84,.F.);
#828=ADVANCED_FACE('',(#126),#85,.F.);
#829=ADVANCED_FACE('',(#127),#86,.F.);
#830=ADVANCED_FACE('',(#128,#18,#19,#20),#788,.T.);
#831=CLOSED_SHELL('',(#789,#790,#791,#792,#793,#794,#795,#796,#797,#798,
#799,#800,#801,#802,#803,#804,#805,#806,#807,#808,#809,#810,#811,#812,#813,
#814,#815,#816,#817,#818,#819,#820,#821,#822,#823,#824,#825,#826,#827,#828,
#829,#830));
#832=DERIVED_UNIT_ELEMENT(#834,1.);
#833=DERIVED_UNIT_ELEMENT(#1429,-3.);
#834=(
MASS_UNIT()
NAMED_UNIT(*)
SI_UNIT(.KILO.,.GRAM.)
);
#835=DERIVED_UNIT((#832,#833));
#836=MEASURE_REPRESENTATION_ITEM('density measure',
POSITIVE_RATIO_MEASURE(7850.),#835);
#837=PROPERTY_DEFINITION_REPRESENTATION(#842,#839);
#838=PROPERTY_DEFINITION_REPRESENTATION(#843,#840);
#839=REPRESENTATION('material name',(#841),#1426);
#840=REPRESENTATION('density',(#836),#1426);
#841=DESCRIPTIVE_REPRESENTATION_ITEM('Steel','Steel');
#842=PROPERTY_DEFINITION('material property','material name',#1436);
#843=PROPERTY_DEFINITION('material property','density of part',#1436);
#844=AXIS2_PLACEMENT_3D('',#1181,#931,#932);
#845=AXIS2_PLACEMENT_3D('',#1182,#933,#934);
#846=AXIS2_PLACEMENT_3D('',#1191,#939,#940);
#847=AXIS2_PLACEMENT_3D('',#1193,#941,#942);
#848=AXIS2_PLACEMENT_3D('',#1195,#943,#944);
#849=AXIS2_PLACEMENT_3D('',#1197,#946,#947);
#850=AXIS2_PLACEMENT_3D('',#1203,#951,#952);
#851=AXIS2_PLACEMENT_3D('',#1204,#953,#954);
#852=AXIS2_PLACEMENT_3D('',#1205,#955,#956);
#853=AXIS2_PLACEMENT_3D('',#1206,#957,#958);
#854=AXIS2_PLACEMENT_3D('',#1215,#963,#964);
#855=AXIS2_PLACEMENT_3D('',#1217,#965,#966);
#856=AXIS2_PLACEMENT_3D('',#1219,#967,#968);
#857=AXIS2_PLACEMENT_3D('',#1221,#970,#971);
#858=AXIS2_PLACEMENT_3D('',#1227,#975,#976);
#859=AXIS2_PLACEMENT_3D('',#1228,#977,#978);
#860=AXIS2_PLACEMENT_3D('',#1229,#979,#980);
#861=AXIS2_PLACEMENT_3D('',#1230,#981,#982);
#862=AXIS2_PLACEMENT_3D('',#1233,#983,#984);
#863=AXIS2_PLACEMENT_3D('',#1237,#986,#987);
#864=AXIS2_PLACEMENT_3D('',#1239,#989,#990);
#865=AXIS2_PLACEMENT_3D('',#1245,#994,#995);
#866=AXIS2_PLACEMENT_3D('',#1247,#996,#997);
#867=AXIS2_PLACEMENT_3D('',#1249,#998,#999);
#868=AXIS2_PLACEMENT_3D('',#1251,#1001,#1002);
#869=AXIS2_PLACEMENT_3D('',#1257,#1006,#1007);
#870=AXIS2_PLACEMENT_3D('',#1259,#1008,#1009);
#871=AXIS2_PLACEMENT_3D('',#1261,#1010,#1011);
#872=AXIS2_PLACEMENT_3D('',#1263,#1013,#1014);
#873=AXIS2_PLACEMENT_3D('',#1265,#1015,#1016);
#874=AXIS2_PLACEMENT_3D('',#1267,#1017,#1018);
#875=AXIS2_PLACEMENT_3D('',#1269,#1020,#1021);
#876=AXIS2_PLACEMENT_3D('',#1271,#1022,#1023);
#877=AXIS2_PLACEMENT_3D('',#1274,#1025,#1026);
#878=AXIS2_PLACEMENT_3D('',#1275,#1027,#1028);
#879=AXIS2_PLACEMENT_3D('',#1276,#1029,#1030);
#880=AXIS2_PLACEMENT_3D('',#1277,#1031,#1032);
#881=AXIS2_PLACEMENT_3D('',#1278,#1033,#1034);
#882=AXIS2_PLACEMENT_3D('',#1287,#1039,#1040);
#883=AXIS2_PLACEMENT_3D('',#1296,#1045,#1046);
#884=AXIS2_PLACEMENT_3D('',#1297,#1047,#1048);
#885=AXIS2_PLACEMENT_3D('',#1298,#1049,#1050);
#886=AXIS2_PLACEMENT_3D('',#1299,#1051,#1052);
#887=AXIS2_PLACEMENT_3D('',#1308,#1057,#1058);
#888=AXIS2_PLACEMENT_3D('',#1317,#1063,#1064);
#889=AXIS2_PLACEMENT_3D('',#1318,#1065,#1066);
#890=AXIS2_PLACEMENT_3D('',#1319,#1067,#1068);
#891=AXIS2_PLACEMENT_3D('',#1320,#1069,#1070);
#892=AXIS2_PLACEMENT_3D('',#1329,#1075,#1076);
#893=AXIS2_PLACEMENT_3D('',#1338,#1081,#1082);
#894=AXIS2_PLACEMENT_3D('',#1339,#1083,#1084);
#895=AXIS2_PLACEMENT_3D('',#1340,#1085,#1086);
#896=AXIS2_PLACEMENT_3D('',#1341,#1087,#1088);
#897=AXIS2_PLACEMENT_3D('',#1350,#1093,#1094);
#898=AXIS2_PLACEMENT_3D('',#1359,#1099,#1100);
#899=AXIS2_PLACEMENT_3D('',#1360,#1101,#1102);
#900=AXIS2_PLACEMENT_3D('',#1361,#1103,#1104);
#901=AXIS2_PLACEMENT_3D('',#1362,#1105,#1106);
#902=AXIS2_PLACEMENT_3D('',#1365,#1107,#1108);
#903=AXIS2_PLACEMENT_3D('',#1369,#1110,#1111);
#904=AXIS2_PLACEMENT_3D('',#1371,#1113,#1114);
#905=AXIS2_PLACEMENT_3D('',#1377,#1118,#1119);
#906=AXIS2_PLACEMENT_3D('',#1383,#1123,#1124);
#907=AXIS2_PLACEMENT_3D('',#1392,#1129,#1130);
#908=AXIS2_PLACEMENT_3D('',#1401,#1135,#1136);
#909=AXIS2_PLACEMENT_3D('',#1402,#1137,#1138);
#910=AXIS2_PLACEMENT_3D('',#1403,#1139,#1140);
#911=AXIS2_PLACEMENT_3D('',#1404,#1141,#1142);
#912=AXIS2_PLACEMENT_3D('',#1405,#1143,#1144);
#913=AXIS2_PLACEMENT_3D('',#1406,#1145,#1146);
#914=AXIS2_PLACEMENT_3D('',#1407,#1147,#1148);
#915=AXIS2_PLACEMENT_3D('',#1408,#1149,#1150);
#916=AXIS2_PLACEMENT_3D('',#1409,#1151,#1152);
#917=AXIS2_PLACEMENT_3D('',#1410,#1153,#1154);
#918=AXIS2_PLACEMENT_3D('',#1411,#1155,#1156);
#919=AXIS2_PLACEMENT_3D('',#1412,#1157,#1158);
#920=AXIS2_PLACEMENT_3D('',#1413,#1159,#1160);
#921=AXIS2_PLACEMENT_3D('',#1414,#1161,#1162);
#922=AXIS2_PLACEMENT_3D('',#1415,#1163,#1164);
#923=AXIS2_PLACEMENT_3D('',#1416,#1165,#1166);
#924=AXIS2_PLACEMENT_3D('',#1417,#1167,#1168);
#925=AXIS2_PLACEMENT_3D('',#1418,#1169,#1170);
#926=AXIS2_PLACEMENT_3D('',#1419,#1171,#1172);
#927=AXIS2_PLACEMENT_3D('',#1420,#1173,#1174);
#928=AXIS2_PLACEMENT_3D('',#1421,#1175,#1176);
#929=AXIS2_PLACEMENT_3D('',#1422,#1177,#1178);
#930=AXIS2_PLACEMENT_3D('',#1423,#1179,#1180);
#931=DIRECTION('axis',(0.,0.,1.));
#932=DIRECTION('refdir',(1.,0.,0.));
#933=DIRECTION('center_axis',(0.,-1.,0.));
#934=DIRECTION('ref_axis',(-2.22044604925031E-16,0.,1.));
#935=DIRECTION('',(2.22044604925031E-16,0.,-1.));
#936=DIRECTION('',(-1.,0.,0.));
#937=DIRECTION('',(-2.22044604925031E-16,0.,1.));
#938=DIRECTION('',(-1.,0.,0.));
#939=DIRECTION('center_axis',(-1.,0.,0.));
#940=DIRECTION('ref_axis',(0.,-1.,0.));
#941=DIRECTION('center_axis',(-1.,0.,-2.22044604925031E-16));
#942=DIRECTION('ref_axis',(0.,-1.,0.));
#943=DIRECTION('center_axis',(1.,0.,2.22044604925031E-16));
#944=DIRECTION('ref_axis',(0.,-1.,0.));
#945=DIRECTION('',(-1.,0.,0.));
#946=DIRECTION('center_axis',(0.,1.,0.));
#947=DIRECTION('ref_axis',(2.22044604925031E-16,0.,-1.));
#948=DIRECTION('',(-2.22044604925031E-16,0.,1.));
#949=DIRECTION('',(2.22044604925031E-16,0.,-1.));
#950=DIRECTION('',(-1.,0.,0.));
#951=DIRECTION('center_axis',(-1.,0.,0.));
#952=DIRECTION('ref_axis',(0.,1.,0.));
#953=DIRECTION('center_axis',(-1.,0.,-2.22044604925031E-16));
#954=DIRECTION('ref_axis',(0.,1.,0.));
#955=DIRECTION('center_axis',(1.,0.,2.22044604925031E-16));
#956=DIRECTION('ref_axis',(0.,1.,0.));
#957=DIRECTION('center_axis',(0.,-1.,0.));
#958=DIRECTION('ref_axis',(-2.22044604925031E-16,0.,1.));
#959=DIRECTION('',(2.22044604925031E-16,0.,-1.));
#960=DIRECTION('',(-1.,0.,0.));
#961=DIRECTION('',(-2.22044604925031E-16,0.,1.));
#962=DIRECTION('',(-1.,0.,0.));
#963=DIRECTION('center_axis',(-1.,0.,0.));
#964=DIRECTION('ref_axis',(0.,-1.,0.));
#965=DIRECTION('center_axis',(-1.,0.,-2.22044604925031E-16));
#966=DIRECTION('ref_axis',(0.,-1.,0.));
#967=DIRECTION('center_axis',(1.,0.,2.22044604925031E-16));
#968=DIRECTION('ref_axis',(0.,-1.,0.));
#969=DIRECTION('',(-1.,0.,0.));
#970=DIRECTION('center_axis',(0.,1.,0.));
#971=DIRECTION('ref_axis',(2.22044604925031E-16,0.,-1.));
#972=DIRECTION('',(-2.22044604925031E-16,0.,1.));
#973=DIRECTION('',(2.22044604925031E-16,0.,-1.));
#974=DIRECTION('',(-1.,0.,0.));
#975=DIRECTION('center_axis',(-1.,0.,0.));
#976=DIRECTION('ref_axis',(0.,1.,0.));
#977=DIRECTION('center_axis',(-1.,0.,-2.22044604925031E-16));
#978=DIRECTION('ref_axis',(0.,1.,0.));
#979=DIRECTION('center_axis',(1.,0.,2.22044604925031E-16));
#980=DIRECTION('ref_axis',(0.,1.,0.));
#981=DIRECTION('center_axis',(-1.,0.,0.));
#982=DIRECTION('ref_axis',(0.,-0.491092925397263,0.871107191236967));
#983=DIRECTION('center_axis',(1.,6.29171982257874E-32,2.22044604925031E-16));
#984=DIRECTION('ref_axis',(-1.93424652125566E-16,-0.491092925397263,0.871107191236967));
#985=DIRECTION('',(-1.,0.,0.));
#986=DIRECTION('center_axis',(-1.,-6.29171982257874E-32,-2.22044604925031E-16));
#987=DIRECTION('ref_axis',(-1.93424652125566E-16,-0.491092925397263,0.871107191236967));
#988=DIRECTION('',(-1.,0.,0.));
#989=DIRECTION('center_axis',(0.,-1.,3.04099006066429E-16));
#990=DIRECTION('ref_axis',(-2.22044604925031E-16,3.04099006066429E-16,1.));
#991=DIRECTION('',(2.22044604925031E-16,-3.04099006066429E-16,-1.));
#992=DIRECTION('',(-2.22044604925031E-16,3.04099006066429E-16,1.));
#993=DIRECTION('',(-1.,0.,0.));
#994=DIRECTION('center_axis',(-1.,0.,0.));
#995=DIRECTION('ref_axis',(0.,-1.,5.92118946466754E-15));
#996=DIRECTION('center_axis',(1.,0.,2.22044604925031E-16));
#997=DIRECTION('ref_axis',(-1.31476817536836E-30,-1.,5.92118946466754E-15));
#998=DIRECTION('center_axis',(-1.,0.,-2.22044604925031E-16));
#999=DIRECTION('ref_axis',(-1.31476817536836E-30,-1.,5.92118946466754E-15));
#1000=DIRECTION('',(-1.,0.,0.));
#1001=DIRECTION('center_axis',(0.,0.,-1.));
#1002=DIRECTION('ref_axis',(0.,-1.,0.));
#1003=DIRECTION('',(0.,1.,0.));
#1004=DIRECTION('',(0.,-1.,0.));
#1005=DIRECTION('',(-1.,0.,0.));
#1006=DIRECTION('center_axis',(-1.,0.,0.));
#1007=DIRECTION('ref_axis',(0.,2.96059473233376E-15,-1.));
#1008=DIRECTION('center_axis',(1.,2.80133011329819E-32,2.22044604925031E-16));
#1009=DIRECTION('ref_axis',(2.22044604925031E-16,2.96059473233376E-15,-1.));
#1010=DIRECTION('center_axis',(-1.,-2.80133011329819E-32,-2.22044604925031E-16));
#1011=DIRECTION('ref_axis',(2.22044604925031E-16,2.96059473233376E-15,-1.));
#1012=DIRECTION('',(-1.,0.,0.));
#1013=DIRECTION('center_axis',(-1.,0.,0.));
#1014=DIRECTION('ref_axis',(0.,1.56789947465941E-8,1.));
#1015=DIRECTION('center_axis',(1.,-4.60006360366439E-32,2.22044604925031E-16));
#1016=DIRECTION('ref_axis',(-2.22044604925031E-16,1.56789947465941E-8,1.));
#1017=DIRECTION('center_axis',(1.,-4.60006360366439E-32,2.22044604925031E-16));
#1018=DIRECTION('ref_axis',(-2.22044604925031E-16,1.56789947465941E-8,1.));
#1019=DIRECTION('',(-1.,0.,0.));
#1020=DIRECTION('center_axis',(-1.,0.,0.));
#1021=DIRECTION('ref_axis',(0.,0.491092925397267,-0.871107191236965));
#1022=DIRECTION('center_axis',(1.,1.24682652429277E-31,2.22044604925031E-16));
#1023=DIRECTION('ref_axis',(1.93424652125565E-16,0.491092925397267,-0.871107191236965));
#1024=DIRECTION('',(-1.,0.,0.));
#1025=DIRECTION('center_axis',(1.,1.24682652429277E-31,2.22044604925031E-16));
#1026=DIRECTION('ref_axis',(1.93424652125565E-16,0.491092925397267,-0.871107191236965));
#1027=DIRECTION('center_axis',(1.,0.,2.22044604925031E-16));
#1028=DIRECTION('ref_axis',(-1.57009397135777E-16,0.707106099938089,0.70710746243435));
#1029=DIRECTION('center_axis',(1.,0.,2.22044604925031E-16));
#1030=DIRECTION('ref_axis',(2.22044604925031E-16,0.,-1.));
#1031=DIRECTION('center_axis',(-1.,0.,-2.22044604925031E-16));
#1032=DIRECTION('ref_axis',(2.22044604925031E-16,0.,-1.));
#1033=DIRECTION('center_axis',(0.,0.500002221589035,-0.866024121145612));
#1034=DIRECTION('ref_axis',(1.11022795754375E-16,-0.866024121145612,-0.500002221589035));
#1035=DIRECTION('',(1.11022795754375E-16,-0.866024121145612,-0.500002221589035));
#1036=DIRECTION('',(1.,0.,0.));
#1037=DIRECTION('',(-1.11022795754375E-16,0.866024121145612,0.500002221589035));
#1038=DIRECTION('',(-1.,0.,0.));
#1039=DIRECTION('center_axis',(0.,-0.500002221589035,0.866024121145612));
#1040=DIRECTION('ref_axis',(-1.11022795754375E-16,0.866024121145612,0.500002221589035));
#1041=DIRECTION('',(-1.11022795754375E-16,0.866024121145612,0.500002221589035));
#1042=DIRECTION('',(-1.,0.,0.));
#1043=DIRECTION('',(1.11022795754375E-16,-0.866024121145612,-0.500002221589035));
#1044=DIRECTION('',(-1.,0.,0.));
#1045=DIRECTION('center_axis',(-1.,0.,0.));
#1046=DIRECTION('ref_axis',(0.,-0.500002221589035,0.866024121145612));
#1047=DIRECTION('center_axis',(-1.,0.,-2.22044604925031E-16));
#1048=DIRECTION('ref_axis',(0.,-0.500002221589035,0.866024121145612));
#1049=DIRECTION('center_axis',(1.,0.,2.22044604925031E-16));
#1050=DIRECTION('ref_axis',(0.,-0.500002221589035,0.866024121145612));
#1051=DIRECTION('center_axis',(0.,-0.500002221589036,0.866024121145612));
#1052=DIRECTION('ref_axis',(-1.11022795754375E-16,0.866024121145612,0.500002221589036));
#1053=DIRECTION('',(-1.11022795754375E-16,0.866024121145612,0.500002221589036));
#1054=DIRECTION('',(1.,0.,0.));
#1055=DIRECTION('',(1.11022795754375E-16,-0.866024121145612,-0.500002221589036));
#1056=DIRECTION('',(-1.,0.,0.));
#1057=DIRECTION('center_axis',(0.,0.500002221589035,-0.866024121145612));
#1058=DIRECTION('ref_axis',(1.11022795754375E-16,-0.866024121145612,-0.500002221589035));
#1059=DIRECTION('',(1.11022795754375E-16,-0.866024121145612,-0.500002221589035));
#1060=DIRECTION('',(-1.,0.,0.));
#1061=DIRECTION('',(-1.11022795754375E-16,0.866024121145612,0.500002221589035));
#1062=DIRECTION('',(-1.,0.,0.));
#1063=DIRECTION('center_axis',(-1.,0.,0.));
#1064=DIRECTION('ref_axis',(0.,0.500002221589035,-0.866024121145612));
#1065=DIRECTION('center_axis',(-1.,0.,-2.22044604925031E-16));
#1066=DIRECTION('ref_axis',(0.,0.500002221589035,-0.866024121145612));
#1067=DIRECTION('center_axis',(1.,0.,2.22044604925031E-16));
#1068=DIRECTION('ref_axis',(0.,0.500002221589035,-0.866024121145612));
#1069=DIRECTION('center_axis',(0.,-0.499997778407674,-0.866026686417567));
#1070=DIRECTION('ref_axis',(-1.11021809169925E-16,-0.866026686417567,0.499997778407674));
#1071=DIRECTION('',(-1.11021809169925E-16,-0.866026686417567,0.499997778407674));
#1072=DIRECTION('',(1.,0.,0.));
#1073=DIRECTION('',(1.11021809169925E-16,0.866026686417567,-0.499997778407674));
#1074=DIRECTION('',(-1.,0.,0.));
#1075=DIRECTION('center_axis',(0.,0.499997778407674,0.866026686417567));
#1076=DIRECTION('ref_axis',(1.11021809169925E-16,0.866026686417567,-0.499997778407674));
#1077=DIRECTION('',(1.11021809169925E-16,0.866026686417567,-0.499997778407674));
#1078=DIRECTION('',(-1.,0.,0.));
#1079=DIRECTION('',(-1.11021809169925E-16,-0.866026686417567,0.499997778407674));
#1080=DIRECTION('',(-1.,0.,0.));
#1081=DIRECTION('center_axis',(-1.,0.,0.));
#1082=DIRECTION('ref_axis',(0.,0.499997778407675,0.866026686417566));
#1083=DIRECTION('center_axis',(-1.,0.,-2.22044604925031E-16));
#1084=DIRECTION('ref_axis',(0.,0.499997778407675,0.866026686417566));
#1085=DIRECTION('center_axis',(1.,0.,2.22044604925031E-16));
#1086=DIRECTION('ref_axis',(0.,0.499997778407675,0.866026686417566));
#1087=DIRECTION('center_axis',(0.,0.99999999999671,2.56527195443025E-6));
#1088=DIRECTION('ref_axis',(2.22044604924301E-16,2.56527195443025E-6,-0.99999999999671));
#1089=DIRECTION('',(2.22044604924301E-16,2.56527195443025E-6,-0.99999999999671));
#1090=DIRECTION('',(1.,0.,0.));
#1091=DIRECTION('',(-2.22044604924301E-16,-2.56527195443025E-6,0.99999999999671));
#1092=DIRECTION('',(-1.,0.,0.));
#1093=DIRECTION('center_axis',(0.,-0.99999999999671,-2.56527195432855E-6));
#1094=DIRECTION('ref_axis',(-2.22044604924301E-16,-2.56527195432855E-6,
0.99999999999671));
#1095=DIRECTION('',(-2.22044604924301E-16,-2.56527195432855E-6,0.99999999999671));
#1096=DIRECTION('',(-1.,0.,0.));
#1097=DIRECTION('',(2.22044604924301E-16,2.56527195432855E-6,-0.99999999999671));
#1098=DIRECTION('',(-1.,0.,0.));
#1099=DIRECTION('center_axis',(-1.,0.,0.));
#1100=DIRECTION('ref_axis',(0.,-0.99999999999671,-2.56527195337715E-6));
#1101=DIRECTION('center_axis',(-1.,0.,-2.22044604925031E-16));
#1102=DIRECTION('ref_axis',(0.,-0.99999999999671,-2.56527195337715E-6));
#1103=DIRECTION('center_axis',(1.,0.,2.22044604925031E-16));
#1104=DIRECTION('ref_axis',(0.,-0.99999999999671,-2.56527195337715E-6));
#1105=DIRECTION('center_axis',(-1.,0.,0.));
#1106=DIRECTION('ref_axis',(0.,-0.499997778407675,-0.866026686417566));
#1107=DIRECTION('center_axis',(-1.,0.,-2.22044604925031E-16));
#1108=DIRECTION('ref_axis',(0.,-0.499997778407675,-0.866026686417566));
#1109=DIRECTION('',(-1.,0.,0.));
#1110=DIRECTION('center_axis',(1.,0.,2.22044604925031E-16));
#1111=DIRECTION('ref_axis',(0.,-0.499997778407675,-0.866026686417566));
#1112=DIRECTION('',(-1.,0.,0.));
#1113=DIRECTION('center_axis',(0.,0.499997778407674,0.866026686417567));
#1114=DIRECTION('ref_axis',(1.11021809169925E-16,0.866026686417567,-0.499997778407674));
#1115=DIRECTION('',(1.11021809169925E-16,0.866026686417567,-0.499997778407674));
#1116=DIRECTION('',(1.,0.,0.));
#1117=DIRECTION('',(-1.11021809169925E-16,-0.866026686417567,0.499997778407674));
#1118=DIRECTION('center_axis',(0.,-0.499997778407674,-0.866026686417567));
#1119=DIRECTION('ref_axis',(-1.11021809169925E-16,-0.866026686417567,0.499997778407674));
#1120=DIRECTION('',(-1.11021809169925E-16,-0.866026686417567,0.499997778407674));
#1121=DIRECTION('',(1.11021809169925E-16,0.866026686417567,-0.499997778407674));
#1122=DIRECTION('',(-1.,0.,0.));
#1123=DIRECTION('center_axis',(0.,-0.99999999999671,-2.56527195490485E-6));
#1124=DIRECTION('ref_axis',(-2.22044604924301E-16,-2.56527195490485E-6,
0.99999999999671));
#1125=DIRECTION('',(-2.22044604924301E-16,-2.56527195490485E-6,0.99999999999671));
#1126=DIRECTION('',(1.,0.,0.));
#1127=DIRECTION('',(2.22044604924301E-16,2.56527195490485E-6,-0.99999999999671));
#1128=DIRECTION('',(-1.,0.,0.));
#1129=DIRECTION('center_axis',(0.,0.99999999999671,2.56527195483705E-6));
#1130=DIRECTION('ref_axis',(2.22044604924301E-16,2.56527195483705E-6,-0.99999999999671));
#1131=DIRECTION('',(2.22044604924301E-16,2.56527195483705E-6,-0.99999999999671));
#1132=DIRECTION('',(-1.,0.,0.));
#1133=DIRECTION('',(-2.22044604924301E-16,-2.56527195483705E-6,0.99999999999671));
#1134=DIRECTION('',(-1.,0.,0.));
#1135=DIRECTION('center_axis',(-1.,0.,0.));
#1136=DIRECTION('ref_axis',(0.,0.99999999999671,2.56527195732461E-6));
#1137=DIRECTION('center_axis',(-1.,0.,-2.22044604925031E-16));
#1138=DIRECTION('ref_axis',(0.,0.99999999999671,2.56527195732461E-6));
#1139=DIRECTION('center_axis',(1.,0.,2.22044604925031E-16));
#1140=DIRECTION('ref_axis',(0.,0.99999999999671,2.56527195732461E-6));
#1141=DIRECTION('center_axis',(-1.,0.,-2.22044604925031E-16));
#1142=DIRECTION('ref_axis',(-2.22044604925031E-16,0.,1.));
#1143=DIRECTION('center_axis',(1.,0.,2.22044604925031E-16));
#1144=DIRECTION('ref_axis',(0.,0.,-1.));
#1145=DIRECTION('center_axis',(1.,0.,2.22044604925031E-16));
#1146=DIRECTION('ref_axis',(0.,0.,-1.));
#1147=DIRECTION('center_axis',(1.,0.,2.22044604925031E-16));
#1148=DIRECTION('ref_axis',(0.,0.,-1.));
#1149=DIRECTION('center_axis',(1.,0.,2.22044604925031E-16));
#1150=DIRECTION('ref_axis',(0.,0.,-1.));
#1151=DIRECTION('center_axis',(1.,0.,2.22044604925031E-16));
#1152=DIRECTION('ref_axis',(0.,0.,-1.));
#1153=DIRECTION('center_axis',(1.,0.,2.22044604925031E-16));
#1154=DIRECTION('ref_axis',(0.,0.,-1.));
#1155=DIRECTION('center_axis',(-1.,0.,0.));
#1156=DIRECTION('ref_axis',(0.,0.,-1.));
#1157=DIRECTION('center_axis',(-1.,0.,-2.22044604925031E-16));
#1158=DIRECTION('ref_axis',(0.,0.,-1.));
#1159=DIRECTION('center_axis',(-1.,0.,0.));
#1160=DIRECTION('ref_axis',(0.,0.,-1.));
#1161=DIRECTION('center_axis',(-1.,0.,-2.22044604925031E-16));
#1162=DIRECTION('ref_axis',(0.,0.,-1.));
#1163=DIRECTION('center_axis',(-1.,0.,0.));
#1164=DIRECTION('ref_axis',(0.,0.,-1.));
#1165=DIRECTION('center_axis',(-1.,0.,-2.22044604925031E-16));
#1166=DIRECTION('ref_axis',(0.,0.,-1.));
#1167=DIRECTION('center_axis',(-1.,0.,0.));
#1168=DIRECTION('ref_axis',(0.,0.,-1.));
#1169=DIRECTION('center_axis',(-1.,0.,-2.22044604925031E-16));
#1170=DIRECTION('ref_axis',(0.,0.,-1.));
#1171=DIRECTION('center_axis',(-1.,0.,0.));
#1172=DIRECTION('ref_axis',(0.,0.,-1.));
#1173=DIRECTION('center_axis',(-1.,0.,-2.22044604925031E-16));
#1174=DIRECTION('ref_axis',(0.,0.,-1.));
#1175=DIRECTION('center_axis',(-1.,0.,0.));
#1176=DIRECTION('ref_axis',(0.,0.,-1.));
#1177=DIRECTION('center_axis',(-1.,0.,-2.22044604925031E-16));
#1178=DIRECTION('ref_axis',(0.,0.,-1.));
#1179=DIRECTION('center_axis',(1.,0.,2.22044604925031E-16));
#1180=DIRECTION('ref_axis',(2.22044604925031E-16,0.,-1.));
#1181=CARTESIAN_POINT('',(0.,0.,0.));
#1182=CARTESIAN_POINT('Origin',(5.00000000000003,-101.999999999851,-125.000076958159));
#1183=CARTESIAN_POINT('',(5.00000000000003,-101.999999999851,-115.000077777723));
#1184=CARTESIAN_POINT('',(5.00000000000003,-101.999999999851,-125.000076958159));
#1185=CARTESIAN_POINT('',(5.00000000000003,-101.999999999851,-125.000076958159));
#1186=CARTESIAN_POINT('',(2.88657986402541E-14,-101.999999999851,-115.000077777723));
#1187=CARTESIAN_POINT('',(5.00000000000003,-101.999999999851,-115.000077777723));
#1188=CARTESIAN_POINT('',(3.10862446895044E-14,-101.999999999851,-125.000076958159));
#1189=CARTESIAN_POINT('',(3.10862446895044E-14,-101.999999999851,-125.000076958159));
#1190=CARTESIAN_POINT('',(5.00000000000003,-101.999999999851,-125.000076958159));
#1191=CARTESIAN_POINT('Origin',(5.00000000000003,-106.999999999851,-125.000076958159));
#1192=CARTESIAN_POINT('',(5.00000000000003,-111.999999999851,-125.000076958159));
#1193=CARTESIAN_POINT('Origin',(5.00000000000003,-106.999999999851,-125.000076958159));
#1194=CARTESIAN_POINT('',(3.10862446895044E-14,-111.999999999851,-125.000076958159));
#1195=CARTESIAN_POINT('Origin',(3.10862446895044E-14,-106.999999999851,
-125.000076958159));
#1196=CARTESIAN_POINT('',(5.00000000000003,-111.999999999851,-125.000076958159));
#1197=CARTESIAN_POINT('Origin',(5.00000000000003,-111.999999999851,-115.000077777723));
#1198=CARTESIAN_POINT('',(5.00000000000003,-111.999999999851,-115.000077777723));
#1199=CARTESIAN_POINT('',(5.00000000000003,-111.999999999851,-115.000077777723));
#1200=CARTESIAN_POINT('',(2.88657986402541E-14,-111.999999999851,-115.000077777723));
#1201=CARTESIAN_POINT('',(2.88657986402541E-14,-111.999999999851,-115.000077777723));
#1202=CARTESIAN_POINT('',(5.00000000000003,-111.999999999851,-115.000077777723));
#1203=CARTESIAN_POINT('Origin',(5.00000000000003,-106.999999999851,-115.000077777723));
#1204=CARTESIAN_POINT('Origin',(5.00000000000003,-106.999999999851,-115.000077777723));
#1205=CARTESIAN_POINT('Origin',(2.88657986402541E-14,-106.999999999851,
-115.000077777723));
#1206=CARTESIAN_POINT('Origin',(5.00000000000002,-101.999999999851,-85.0001539163173));
#1207=CARTESIAN_POINT('',(5.00000000000002,-101.999999999851,-75.0002313960166));
#1208=CARTESIAN_POINT('',(5.00000000000002,-101.999999999851,-85.0001539163173));
#1209=CARTESIAN_POINT('',(5.00000000000002,-101.999999999851,-85.0001539163173));
#1210=CARTESIAN_POINT('',(1.99840144432528E-14,-101.999999999851,-75.0002313960166));
#1211=CARTESIAN_POINT('',(5.00000000000002,-101.999999999851,-75.0002313960166));
#1212=CARTESIAN_POINT('',(2.22044604925031E-14,-101.999999999851,-85.0001539163173));
#1213=CARTESIAN_POINT('',(2.22044604925031E-14,-101.999999999851,-85.0001539163173));
#1214=CARTESIAN_POINT('',(5.00000000000002,-101.999999999851,-85.0001539163173));
#1215=CARTESIAN_POINT('Origin',(5.00000000000002,-106.999999999851,-85.0001539163173));
#1216=CARTESIAN_POINT('',(5.00000000000002,-111.999999999851,-85.0001539163173));
#1217=CARTESIAN_POINT('Origin',(5.00000000000002,-106.999999999851,-85.0001539163173));
#1218=CARTESIAN_POINT('',(2.22044604925031E-14,-111.999999999851,-85.0001539163173));
#1219=CARTESIAN_POINT('Origin',(2.22044604925031E-14,-106.999999999851,
-85.0001539163173));
#1220=CARTESIAN_POINT('',(5.00000000000002,-111.999999999851,-85.0001539163173));
#1221=CARTESIAN_POINT('Origin',(5.00000000000002,-111.999999999851,-75.0002313960166));
#1222=CARTESIAN_POINT('',(5.00000000000002,-111.999999999851,-75.0002313960166));
#1223=CARTESIAN_POINT('',(5.00000000000002,-111.999999999851,-75.0002313960166));
#1224=CARTESIAN_POINT('',(1.99840144432528E-14,-111.999999999851,-75.0002313960166));
#1225=CARTESIAN_POINT('',(1.99840144432528E-14,-111.999999999851,-75.0002313960166));
#1226=CARTESIAN_POINT('',(5.00000000000002,-111.999999999851,-75.0002313960166));
#1227=CARTESIAN_POINT('Origin',(5.00000000000002,-106.999999999851,-75.0002313960166));
#1228=CARTESIAN_POINT('Origin',(5.00000000000002,-106.999999999851,-75.0002313960166));
#1229=CARTESIAN_POINT('Origin',(1.99840144432528E-14,-106.999999999851,
-75.0002313960166));
#1230=CARTESIAN_POINT('Origin',(5.00000000000002,-102.499999999851,-70.5863872165269));
#1231=CARTESIAN_POINT('',(5.00000000000002,-110.848579731605,-55.7775649654986));
#1232=CARTESIAN_POINT('',(5.00000000000002,-119.499999999851,-70.586387216527));
#1233=CARTESIAN_POINT('Origin',(5.00000000000002,-102.499999999851,-70.5863872165269));
#1234=CARTESIAN_POINT('',(1.55431223447522E-14,-110.848579731605,-55.7775649654986));
#1235=CARTESIAN_POINT('',(5.00000000000002,-110.848579731605,-55.7775649654986));
#1236=CARTESIAN_POINT('',(1.88737914186277E-14,-119.499999999851,-70.586387216527));
#1237=CARTESIAN_POINT('Origin',(1.88737914186277E-14,-102.499999999851,
-70.5863872165269));
#1238=CARTESIAN_POINT('',(5.00000000000002,-119.499999999851,-70.586387216527));
#1239=CARTESIAN_POINT('Origin',(5.00000000000003,-119.499999999851,-129.000153916317));
#1240=CARTESIAN_POINT('',(5.00000000000003,-119.499999999851,-129.000153916317));
#1241=CARTESIAN_POINT('',(5.00000000000002,-119.499999999851,-70.586387216527));
#1242=CARTESIAN_POINT('',(3.21964677141295E-14,-119.499999999851,-129.000153916317));
#1243=CARTESIAN_POINT('',(1.88737914186277E-14,-119.499999999851,-70.586387216527));
#1244=CARTESIAN_POINT('',(5.00000000000003,-119.499999999851,-129.000153916317));
#1245=CARTESIAN_POINT('Origin',(5.00000000000003,-113.499999999851,-129.000153916317));
#1246=CARTESIAN_POINT('',(5.00000000000003,-113.499999999851,-135.000153916317));
#1247=CARTESIAN_POINT('Origin',(5.00000000000003,-113.499999999851,-129.000153916317));
#1248=CARTESIAN_POINT('',(3.33066907387547E-14,-113.499999999851,-135.000153916317));
#1249=CARTESIAN_POINT('Origin',(3.21964677141295E-14,-113.499999999851,
-129.000153916317));
#1250=CARTESIAN_POINT('',(5.00000000000003,-113.499999999851,-135.000153916317));
#1251=CARTESIAN_POINT('Origin',(5.00000000000003,-98.4723552846667,-135.000153916317));
#1252=CARTESIAN_POINT('',(5.00000000000003,-98.4723552846667,-135.000153916317));
#1253=CARTESIAN_POINT('',(5.00000000000003,-113.499999999851,-135.000153916317));
#1254=CARTESIAN_POINT('',(3.33066907387547E-14,-98.4723552846667,-135.000153916317));
#1255=CARTESIAN_POINT('',(3.33066907387547E-14,-113.499999999851,-135.000153916317));
#1256=CARTESIAN_POINT('',(5.00000000000003,-98.4723552846667,-135.000153916317));
#1257=CARTESIAN_POINT('Origin',(5.00000000000003,-98.4723552846667,-129.000153916317));
#1258=CARTESIAN_POINT('',(5.00000000000003,-92.9892683592882,-131.43649497798));
#1259=CARTESIAN_POINT('Origin',(5.00000000000003,-98.4723552846667,-129.000153916317));
#1260=CARTESIAN_POINT('',(3.21964677141295E-14,-92.9892683592882,-131.43649497798));
#1261=CARTESIAN_POINT('Origin',(3.21964677141295E-14,-98.4723552846667,
-129.000153916317));
#1262=CARTESIAN_POINT('',(5.00000000000003,-92.9892683592882,-131.43649497798));
#1263=CARTESIAN_POINT('Origin',(5.00000000000004,9.99999823300106,-177.198486812896));
#1264=CARTESIAN_POINT('',(5.00000000000002,10.,-64.5));
#1265=CARTESIAN_POINT('Origin',(5.00000000000004,9.99999823300106,-177.198486812896));
#1266=CARTESIAN_POINT('',(1.77635683940025E-14,10.,-64.5));
#1267=CARTESIAN_POINT('Origin',(4.21884749357559E-14,9.99999823300106,-177.198486812896));
#1268=CARTESIAN_POINT('',(5.00000000000002,9.99999926910759,-64.5));
#1269=CARTESIAN_POINT('Origin',(5.,-150.749764043918,14.9996887797272));
#1270=CARTESIAN_POINT('',(5.,-69.499999999851,14.9998460836827));
#1271=CARTESIAN_POINT('Origin',(5.,-150.749764043918,14.9996887797272));
#1272=CARTESIAN_POINT('',(0.,-69.499999999851,14.9998460836827));
#1273=CARTESIAN_POINT('',(5.,-69.499999999851,14.9998460836827));
#1274=CARTESIAN_POINT('Origin',(0.,-150.749764043918,14.9996887797272));
#1275=CARTESIAN_POINT('Origin',(2.5,10.,15.));
#1276=CARTESIAN_POINT('Origin',(5.,10.,15.));
#1277=CARTESIAN_POINT('Origin',(0.,10.,15.));
#1278=CARTESIAN_POINT('Origin',(4.99999999999999,-39.5650896095179,-18.8127474778442));
#1279=CARTESIAN_POINT('',(4.99999999999999,-39.5650896095179,-18.8127474778442));
#1280=CARTESIAN_POINT('',(4.99999999999999,-44.4748219767897,-21.6473995748275));
#1281=CARTESIAN_POINT('',(5.,-13.6575398061836,-3.85492801149974));
#1282=CARTESIAN_POINT('',(-5.55111512312578E-15,-39.5650896095179,-18.8127474778442));
#1283=CARTESIAN_POINT('',(5.,-39.5650896095179,-18.8127474778442));
#1284=CARTESIAN_POINT('',(-4.9960036108132E-15,-44.4748219767897,-21.6473995748275));
#1285=CARTESIAN_POINT('',(4.44089209850063E-15,-13.6575398061836,-3.85492801149974));
#1286=CARTESIAN_POINT('',(4.99999999999999,-44.4748219767897,-21.6473995748275));
#1287=CARTESIAN_POINT('Origin',(4.99999999999999,-48.9748419710911,-13.853182484517));
#1288=CARTESIAN_POINT('',(4.99999999999999,-48.9748419710911,-13.853182484517));
#1289=CARTESIAN_POINT('',(4.99999999999999,-44.0651096038192,-11.0185303875337));
#1290=CARTESIAN_POINT('',(5.,-20.6124259841209,2.52196303031912));
#1291=CARTESIAN_POINT('',(-6.66133814775094E-15,-48.9748419710911,-13.853182484517));
#1292=CARTESIAN_POINT('',(4.99999999999999,-48.9748419710911,-13.853182484517));
#1293=CARTESIAN_POINT('',(-7.7715611723761E-15,-44.0651096038192,-11.0185303875337));
#1294=CARTESIAN_POINT('',(3.05311331771918E-15,-20.6124259841209,2.52196303031912));
#1295=CARTESIAN_POINT('',(5.,-44.0651096038192,-11.0185303875337));
#1296=CARTESIAN_POINT('Origin',(4.99999999999999,-46.7248319739404,-17.7502910296723));
#1297=CARTESIAN_POINT('Origin',(5.,-46.7248319739404,-17.7502910296723));
#1298=CARTESIAN_POINT('Origin',(0.,-46.7248319739404,-17.7502910296723));
#1299=CARTESIAN_POINT('Origin',(4.99999999999998,59.5650896095179,48.8127474778442));
#1300=CARTESIAN_POINT('',(4.99999999999998,59.5650896095179,48.8127474778442));
#1301=CARTESIAN_POINT('',(4.99999999999998,64.4748219767897,51.6473995748275));
#1302=CARTESIAN_POINT('',(5.,33.6575398061836,33.8549280114998));
#1303=CARTESIAN_POINT('',(-2.1094237467878E-14,59.5650896095179,48.8127474778442));
#1304=CARTESIAN_POINT('',(5.,59.5650896095179,48.8127474778443));
#1305=CARTESIAN_POINT('',(-2.16493489801906E-14,64.4748219767897,51.6473995748275));
#1306=CARTESIAN_POINT('',(-3.88578058618805E-15,33.6575398061836,33.8549280114998));
#1307=CARTESIAN_POINT('',(4.99999999999998,64.4748219767897,51.6473995748275));
#1308=CARTESIAN_POINT('Origin',(4.99999999999998,68.974841971091,43.853182484517));
#1309=CARTESIAN_POINT('',(4.99999999999998,68.974841971091,43.853182484517));
#1310=CARTESIAN_POINT('',(4.99999999999998,64.0651096038192,41.0185303875337));
#1311=CARTESIAN_POINT('',(5.,40.6124259841208,27.4780369696809));
#1312=CARTESIAN_POINT('',(-1.99840144432528E-14,68.974841971091,43.853182484517));
#1313=CARTESIAN_POINT('',(4.99999999999998,68.974841971091,43.853182484517));
#1314=CARTESIAN_POINT('',(-1.88737914186277E-14,64.0651096038192,41.0185303875337));
#1315=CARTESIAN_POINT('',(-2.77555756156289E-15,40.6124259841208,27.4780369696809));
#1316=CARTESIAN_POINT('',(5.,64.0651096038192,41.0185303875337));
#1317=CARTESIAN_POINT('Origin',(4.99999999999998,66.7248319739404,47.7502910296723));
#1318=CARTESIAN_POINT('Origin',(5.,66.7248319739404,47.7502910296723));
#1319=CARTESIAN_POINT('Origin',(0.,66.7248319739404,47.7502910296723));
#1320=CARTESIAN_POINT('Origin',(4.99999999999998,-44.0652430923203,41.0182530037725));
#1321=CARTESIAN_POINT('',(4.99999999999998,-44.0652430923203,41.0182530037725));
#1322=CARTESIAN_POINT('',(4.99999999999998,-48.9749900028345,43.852879911121));
#1323=CARTESIAN_POINT('',(5.,-18.1576165475774,26.0605664574467));
#1324=CARTESIAN_POINT('',(-1.88737914186277E-14,-44.0652430923203,41.0182530037725));
#1325=CARTESIAN_POINT('',(5.,-44.0652430923203,41.0182530037725));
#1326=CARTESIAN_POINT('',(-1.99840144432528E-14,-48.9749900028345,43.852879911121));
#1327=CARTESIAN_POINT('',(-2.22044604925031E-15,-18.1576165475774,26.0605664574467));
#1328=CARTESIAN_POINT('',(4.99999999999998,-48.9749900028345,43.852879911121));
#1329=CARTESIAN_POINT('Origin',(4.99999999999998,-44.4750099971655,51.6471200888791));
#1330=CARTESIAN_POINT('',(4.99999999999998,-44.4750099971655,51.6471200888791));
#1331=CARTESIAN_POINT('',(4.99999999999998,-39.5652630866512,48.8124931815306));
#1332=CARTESIAN_POINT('',(5.,-16.1125099971655,35.2721200888791));
#1333=CARTESIAN_POINT('',(-2.16493489801906E-14,-44.4750099971655,51.6471200888791));
#1334=CARTESIAN_POINT('',(4.99999999999998,-44.4750099971655,51.6471200888791));
#1335=CARTESIAN_POINT('',(-2.1094237467878E-14,-39.5652630866512,48.8124931815306));
#1336=CARTESIAN_POINT('',(-4.71844785465692E-15,-16.1125099971655,35.2721200888791));
#1337=CARTESIAN_POINT('',(5.,-39.5652630866512,48.8124931815306));
#1338=CARTESIAN_POINT('Origin',(4.99999999999998,-46.725,47.75));
#1339=CARTESIAN_POINT('Origin',(5.,-46.725,47.75));
#1340=CARTESIAN_POINT('Origin',(0.,-46.725,47.75));
#1341=CARTESIAN_POINT('Origin',(5.,14.5001534828023,-44.8310004816167));
#1342=CARTESIAN_POINT('',(5.,14.5001534828023,-44.8310004816167));
#1343=CARTESIAN_POINT('',(5.,14.5001680260448,-50.5002794859485));
#1344=CARTESIAN_POINT('',(5.00000000000001,14.5000767413938,-14.9154944689465));
#1345=CARTESIAN_POINT('',(0.,14.5001534828023,-44.8310004816167));
#1346=CARTESIAN_POINT('',(5.,14.5001534828023,-44.8310004816167));
#1347=CARTESIAN_POINT('',(1.11022302462516E-15,14.5001680260448,-50.5002794859485));
#1348=CARTESIAN_POINT('',(6.38378239159465E-15,14.5000767413938,-14.9154944689465));
#1349=CARTESIAN_POINT('',(5.,14.5001680260448,-50.5002794859485));
#1350=CARTESIAN_POINT('Origin',(5.,5.50016802607439,-50.5003025733961));
#1351=CARTESIAN_POINT('',(5.,5.50016802607439,-50.5003025733961));
#1352=CARTESIAN_POINT('',(5.,5.50015348283196,-44.8310235690643));
#1353=CARTESIAN_POINT('',(5.00000000000001,5.5000840130446,-17.7501570585599));
#1354=CARTESIAN_POINT('',(1.11022302462516E-15,5.50016802607439,-50.5003025733961));
#1355=CARTESIAN_POINT('',(5.,5.50016802607439,-50.5003025733961));
#1356=CARTESIAN_POINT('',(0.,5.50015348283196,-44.8310235690643));
#1357=CARTESIAN_POINT('',(6.93889390390723E-15,5.5000840130446,-17.7501570585599));
#1358=CARTESIAN_POINT('',(5.,5.50015348283195,-44.8310235690643));
#1359=CARTESIAN_POINT('Origin',(5.,10.0001680260596,-50.5002910296723));
#1360=CARTESIAN_POINT('Origin',(5.,10.0001680260596,-50.5002910296723));
#1361=CARTESIAN_POINT('Origin',(0.,10.0001680260596,-50.5002910296723));
#1362=CARTESIAN_POINT('Origin',(4.99999999999999,66.725,-17.75));
#1363=CARTESIAN_POINT('',(4.99999999999999,68.9749900609062,-13.8528799446484));
#1364=CARTESIAN_POINT('',(4.99999999999999,64.4750099971655,-21.6471200888791));
#1365=CARTESIAN_POINT('Origin',(5.,66.725,-17.75));
#1366=CARTESIAN_POINT('',(-6.66133814775094E-15,68.9749900609062,-13.8528799446484));
#1367=CARTESIAN_POINT('',(4.99999999999999,68.9749900609062,-13.8528799446484));
#1368=CARTESIAN_POINT('',(-4.9960036108132E-15,64.4750099971655,-21.6471200888791));
#1369=CARTESIAN_POINT('Origin',(0.,66.725,-17.75));
#1370=CARTESIAN_POINT('',(4.99999999999999,64.4750099971655,-21.6471200888791));
#1371=CARTESIAN_POINT('Origin',(4.99999999999999,64.0652430923203,-11.0182530037725));
#1372=CARTESIAN_POINT('',(4.99999999999999,64.0652430923203,-11.0182530037725));
#1373=CARTESIAN_POINT('',(5.,38.1576165475774,3.93943354255329));
#1374=CARTESIAN_POINT('',(-7.7715611723761E-15,64.0652430923203,-11.0182530037725));
#1375=CARTESIAN_POINT('',(5.,64.0652430923203,-11.0182530037725));
#1376=CARTESIAN_POINT('',(2.22044604925031E-15,38.1576165475774,3.93943354255329));
#1377=CARTESIAN_POINT('Origin',(4.99999999999999,64.4750099971655,-21.6471200888791));
#1378=CARTESIAN_POINT('',(4.99999999999999,59.5652630866512,-18.8124931815306));
#1379=CARTESIAN_POINT('',(5.,36.1125099971655,-5.27212008887905));
#1380=CARTESIAN_POINT('',(-5.55111512312578E-15,59.5652630866512,-18.8124931815306));
#1381=CARTESIAN_POINT('',(4.44089209850063E-15,36.1125099971655,-5.27212008887905));
#1382=CARTESIAN_POINT('',(5.,59.5652630866512,-18.8124931815306));
#1383=CARTESIAN_POINT('Origin',(4.99999999999997,5.49984651719762,74.8310004816167));
#1384=CARTESIAN_POINT('',(4.99999999999997,5.49984651719762,74.8310004816167));
#1385=CARTESIAN_POINT('',(4.99999999999997,5.49983197395519,80.5002794859485));
#1386=CARTESIAN_POINT('',(4.99999999999999,5.49992325860621,44.9154944689465));
#1387=CARTESIAN_POINT('',(-2.66453525910038E-14,5.49984651719762,74.8310004816167));
#1388=CARTESIAN_POINT('',(5.,5.49984651719762,74.8310004816167));
#1389=CARTESIAN_POINT('',(-2.77555756156289E-14,5.49983197395519,80.5002794859485));
#1390=CARTESIAN_POINT('',(-6.93889390390723E-15,5.49992325860621,44.9154944689465));
#1391=CARTESIAN_POINT('',(4.99999999999997,5.49983197395519,80.5002794859485));
#1392=CARTESIAN_POINT('Origin',(4.99999999999997,14.4998319739256,80.5003025733961));
#1393=CARTESIAN_POINT('',(4.99999999999997,14.4998319739256,80.5003025733961));
#1394=CARTESIAN_POINT('',(4.99999999999997,14.499846517168,74.8310235690643));
#1395=CARTESIAN_POINT('',(4.99999999999999,14.4999159869554,47.7501570585599));
#1396=CARTESIAN_POINT('',(-2.77555756156289E-14,14.4998319739256,80.5003025733961));
#1397=CARTESIAN_POINT('',(4.99999999999997,14.4998319739256,80.5003025733961));
#1398=CARTESIAN_POINT('',(-2.66453525910038E-14,14.499846517168,74.8310235690643));
#1399=CARTESIAN_POINT('',(-7.49400541621981E-15,14.4999159869554,47.7501570585599));
#1400=CARTESIAN_POINT('',(5.,14.499846517168,74.8310235690643));
#1401=CARTESIAN_POINT('Origin',(4.99999999999997,9.99983197394038,80.5002910296723));
#1402=CARTESIAN_POINT('Origin',(5.,9.99983197394038,80.5002910296723));
#1403=CARTESIAN_POINT('Origin',(0.,9.99983197394038,80.5002910296723));
#1404=CARTESIAN_POINT('Origin',(0.,10.,15.));
#1405=CARTESIAN_POINT('Origin',(0.,10.,15.));
#1406=CARTESIAN_POINT('Origin',(0.,10.,15.));
#1407=CARTESIAN_POINT('Origin',(0.,10.,15.));
#1408=CARTESIAN_POINT('Origin',(0.,10.,15.));
#1409=CARTESIAN_POINT('Origin',(0.,10.,15.));
#1410=CARTESIAN_POINT('Origin',(0.,10.,15.));
#1411=CARTESIAN_POINT('Origin',(5.,10.,15.));
#1412=CARTESIAN_POINT('Origin',(5.,10.,15.));
#1413=CARTESIAN_POINT('Origin',(5.,10.,15.));
#1414=CARTESIAN_POINT('Origin',(5.,10.,15.));
#1415=CARTESIAN_POINT('Origin',(5.,10.,15.));
#1416=CARTESIAN_POINT('Origin',(5.,10.,15.));
#1417=CARTESIAN_POINT('Origin',(5.,10.,15.));
#1418=CARTESIAN_POINT('Origin',(5.,10.,15.));
#1419=CARTESIAN_POINT('Origin',(5.,10.,15.));
#1420=CARTESIAN_POINT('Origin',(5.,10.,15.));
#1421=CARTESIAN_POINT('Origin',(5.,10.,15.));
#1422=CARTESIAN_POINT('Origin',(5.,10.,15.));
#1423=CARTESIAN_POINT('Origin',(5.,10.,15.));
#1424=UNCERTAINTY_MEASURE_WITH_UNIT(LENGTH_MEASURE(0.01),#1428,
'DISTANCE_ACCURACY_VALUE',
'Maximum model space distance between geometric entities at asserted c
onnectivities');
#1425=UNCERTAINTY_MEASURE_WITH_UNIT(LENGTH_MEASURE(0.01),#1428,
'DISTANCE_ACCURACY_VALUE',
'Maximum model space distance between geometric entities at asserted c
onnectivities');
#1426=(
GEOMETRIC_REPRESENTATION_CONTEXT(3)
GLOBAL_UNCERTAINTY_ASSIGNED_CONTEXT((#1424))
GLOBAL_UNIT_ASSIGNED_CONTEXT((#1428,#1430,#1431))
REPRESENTATION_CONTEXT('','3D')
);
#1427=(
GEOMETRIC_REPRESENTATION_CONTEXT(3)
GLOBAL_UNCERTAINTY_ASSIGNED_CONTEXT((#1425))
GLOBAL_UNIT_ASSIGNED_CONTEXT((#1428,#1430,#1431))
REPRESENTATION_CONTEXT('','3D')
);
#1428=(
LENGTH_UNIT()
NAMED_UNIT(*)
SI_UNIT(.MILLI.,.METRE.)
);
#1429=(
LENGTH_UNIT()
NAMED_UNIT(*)
SI_UNIT($,.METRE.)
);
#1430=(
NAMED_UNIT(*)
PLANE_ANGLE_UNIT()
SI_UNIT($,.RADIAN.)
);
#1431=(
NAMED_UNIT(*)
SI_UNIT($,.STERADIAN.)
SOLID_ANGLE_UNIT()
);
#1432=SHAPE_DEFINITION_REPRESENTATION(#1433,#1434);
#1433=PRODUCT_DEFINITION_SHAPE('',$,#1436);
#1434=SHAPE_REPRESENTATION('',(#844),#1426);
#1435=PRODUCT_DEFINITION_CONTEXT('part definition',#1440,'design');
#1436=PRODUCT_DEFINITION('Bracket R_1','Bracket R_1 v2',#1437,#1435);
#1437=PRODUCT_DEFINITION_FORMATION('',$,#1442);
#1438=PRODUCT_RELATED_PRODUCT_CATEGORY('Bracket R_1 v2',
'Bracket R_1 v2',(#1442));
#1439=APPLICATION_PROTOCOL_DEFINITION('international standard',
'automotive_design',2009,#1440);
#1440=APPLICATION_CONTEXT(
'Core Data for Automotive Mechanical Design Process');
#1441=PRODUCT_CONTEXT('part definition',#1440,'mechanical');
#1442=PRODUCT('Bracket R_1','Bracket R_1 v2',$,(#1441));
#1443=PRESENTATION_STYLE_ASSIGNMENT((#1444));
#1444=SURFACE_STYLE_USAGE(.BOTH.,#1445);
#1445=SURFACE_SIDE_STYLE('',(#1446));
#1446=SURFACE_STYLE_FILL_AREA(#1447);
#1447=FILL_AREA_STYLE('Steel - Satin',(#1448));
#1448=FILL_AREA_STYLE_COLOUR('Steel - Satin',#1449);
#1449=COLOUR_RGB('Steel - Satin',0.627450980392157,0.627450980392157,0.627450980392157);
ENDSEC;
END-ISO-10303-21;
