ISO-10303-21;
HEADER;
/* Generated by software containing ST-Developer
 * from STEP Tools, Inc. (www.steptools.com) 
 */

FILE_DESCRIPTION(
/* description */ (''),
/* implementation_level */ '2;1');

FILE_NAME(
/* name */ 'Bracket L_1 v3.step',
/* time_stamp */ '2023-04-30T20:52:07-07:00',
/* author */ (''),
/* organization */ (''),
/* preprocessor_version */ 'ST-DEVELOPER v19.2',
/* originating_system */ 'Autodesk Translation Framework v12.4.0.73',
/* authorisation */ '');

FILE_SCHEMA (('AUTOMOTIVE_DESIGN { 1 0 10303 214 3 1 1 }'));
ENDSEC;

DATA;
#10=MECHANICAL_DESIGN_GEOMETRIC_PRESENTATION_REPRESENTATION('',(#13),#1522);
#11=SHAPE_REPRESENTATION_RELATIONSHIP('SRR','None',#1529,#12);
#12=ADVANCED_BREP_SHAPE_REPRESENTATION('',(#14),#1521);
#13=STYLED_ITEM('',(#1538),#14);
#14=MANIFOLD_SOLID_BREP('Body1',#890);
#15=FACE_BOUND('',#174,.T.);
#16=FACE_BOUND('',#175,.T.);
#17=FACE_BOUND('',#177,.T.);
#18=FACE_BOUND('',#178,.T.);
#19=CIRCLE('',#906,6.0000018030405);
#20=CIRCLE('',#907,6.0000018030405);
#21=CIRCLE('',#910,6.0000018030405);
#22=CIRCLE('',#911,6.0000018030405);
#23=CIRCLE('',#914,5.);
#24=CIRCLE('',#915,5.);
#25=CIRCLE('',#918,5.);
#26=CIRCLE('',#919,5.);
#27=CIRCLE('',#921,2.49999999999999);
#28=CIRCLE('',#922,2.49999999999999);
#29=CIRCLE('',#925,30.0000000000001);
#30=CIRCLE('',#926,30.0000000000001);
#31=CIRCLE('',#928,60.);
#32=CIRCLE('',#929,60.);
#33=CIRCLE('',#932,4.5);
#34=CIRCLE('',#933,4.5);
#35=CIRCLE('',#936,60.);
#36=CIRCLE('',#937,60.);
#37=CIRCLE('',#940,4.5);
#38=CIRCLE('',#941,4.5);
#39=CIRCLE('',#944,60.);
#40=CIRCLE('',#945,60.);
#41=CIRCLE('',#948,4.5);
#42=CIRCLE('',#949,4.5);
#43=CIRCLE('',#952,60.);
#44=CIRCLE('',#953,60.);
#45=CIRCLE('',#956,4.5);
#46=CIRCLE('',#957,4.5);
#47=CIRCLE('',#960,60.);
#48=CIRCLE('',#961,60.);
#49=CIRCLE('',#964,2.99999999999999);
#50=CIRCLE('',#965,2.99999999999999);
#51=CIRCLE('',#968,70.5093701733229);
#52=CIRCLE('',#969,70.5093701733229);
#53=CIRCLE('',#971,9.99999999999998);
#54=CIRCLE('',#972,9.99999999999998);
#55=CIRCLE('',#975,10.);
#56=CIRCLE('',#976,10.);
#57=CIRCLE('',#979,188.308576715553);
#58=CIRCLE('',#980,188.308576715553);
#59=CIRCLE('',#982,44.9999999999999);
#60=CIRCLE('',#983,44.9999999999999);
#61=CIRCLE('',#988,2.49999999999996);
#62=CIRCLE('',#989,2.49999999999996);
#63=CYLINDRICAL_SURFACE('',#905,6.0000018030405);
#64=CYLINDRICAL_SURFACE('',#909,6.0000018030405);
#65=CYLINDRICAL_SURFACE('',#913,5.);
#66=CYLINDRICAL_SURFACE('',#917,5.);
#67=CYLINDRICAL_SURFACE('',#920,2.49999999999999);
#68=CYLINDRICAL_SURFACE('',#924,30.0000000000001);
#69=CYLINDRICAL_SURFACE('',#927,60.);
#70=CYLINDRICAL_SURFACE('',#931,4.5);
#71=CYLINDRICAL_SURFACE('',#935,60.);
#72=CYLINDRICAL_SURFACE('',#939,4.5);
#73=CYLINDRICAL_SURFACE('',#943,60.);
#74=CYLINDRICAL_SURFACE('',#947,4.5);
#75=CYLINDRICAL_SURFACE('',#951,60.);
#76=CYLINDRICAL_SURFACE('',#955,4.5);
#77=CYLINDRICAL_SURFACE('',#959,60.);
#78=CYLINDRICAL_SURFACE('',#963,2.99999999999999);
#79=CYLINDRICAL_SURFACE('',#967,70.5093701733229);
#80=CYLINDRICAL_SURFACE('',#970,9.99999999999998);
#81=CYLINDRICAL_SURFACE('',#974,10.);
#82=CYLINDRICAL_SURFACE('',#978,188.308576715553);
#83=CYLINDRICAL_SURFACE('',#981,44.9999999999999);
#84=CYLINDRICAL_SURFACE('',#987,2.49999999999996);
#85=FACE_OUTER_BOUND('',#130,.T.);
#86=FACE_OUTER_BOUND('',#131,.T.);
#87=FACE_OUTER_BOUND('',#132,.T.);
#88=FACE_OUTER_BOUND('',#133,.T.);
#89=FACE_OUTER_BOUND('',#134,.T.);
#90=FACE_OUTER_BOUND('',#135,.T.);
#91=FACE_OUTER_BOUND('',#136,.T.);
#92=FACE_OUTER_BOUND('',#137,.T.);
#93=FACE_OUTER_BOUND('',#138,.T.);
#94=FACE_OUTER_BOUND('',#139,.T.);
#95=FACE_OUTER_BOUND('',#140,.T.);
#96=FACE_OUTER_BOUND('',#141,.T.);
#97=FACE_OUTER_BOUND('',#142,.T.);
#98=FACE_OUTER_BOUND('',#143,.T.);
#99=FACE_OUTER_BOUND('',#144,.T.);
#100=FACE_OUTER_BOUND('',#145,.T.);
#101=FACE_OUTER_BOUND('',#146,.T.);
#102=FACE_OUTER_BOUND('',#147,.T.);
#103=FACE_OUTER_BOUND('',#148,.T.);
#104=FACE_OUTER_BOUND('',#149,.T.);
#105=FACE_OUTER_BOUND('',#150,.T.);
#106=FACE_OUTER_BOUND('',#151,.T.);
#107=FACE_OUTER_BOUND('',#152,.T.);
#108=FACE_OUTER_BOUND('',#153,.T.);
#109=FACE_OUTER_BOUND('',#154,.T.);
#110=FACE_OUTER_BOUND('',#155,.T.);
#111=FACE_OUTER_BOUND('',#156,.T.);
#112=FACE_OUTER_BOUND('',#157,.T.);
#113=FACE_OUTER_BOUND('',#158,.T.);
#114=FACE_OUTER_BOUND('',#159,.T.);
#115=FACE_OUTER_BOUND('',#160,.T.);
#116=FACE_OUTER_BOUND('',#161,.T.);
#117=FACE_OUTER_BOUND('',#162,.T.);
#118=FACE_OUTER_BOUND('',#163,.T.);
#119=FACE_OUTER_BOUND('',#164,.T.);
#120=FACE_OUTER_BOUND('',#165,.T.);
#121=FACE_OUTER_BOUND('',#166,.T.);
#122=FACE_OUTER_BOUND('',#167,.T.);
#123=FACE_OUTER_BOUND('',#168,.T.);
#124=FACE_OUTER_BOUND('',#169,.T.);
#125=FACE_OUTER_BOUND('',#170,.T.);
#126=FACE_OUTER_BOUND('',#171,.T.);
#127=FACE_OUTER_BOUND('',#172,.T.);
#128=FACE_OUTER_BOUND('',#173,.T.);
#129=FACE_OUTER_BOUND('',#176,.T.);
#130=EDGE_LOOP('',(#564,#565,#566,#567));
#131=EDGE_LOOP('',(#568,#569,#570,#571));
#132=EDGE_LOOP('',(#572,#573,#574,#575));
#133=EDGE_LOOP('',(#576,#577,#578,#579));
#134=EDGE_LOOP('',(#580,#581,#582,#583));
#135=EDGE_LOOP('',(#584,#585,#586,#587));
#136=EDGE_LOOP('',(#588,#589,#590,#591));
#137=EDGE_LOOP('',(#592,#593,#594,#595));
#138=EDGE_LOOP('',(#596,#597,#598,#599));
#139=EDGE_LOOP('',(#600,#601,#602,#603));
#140=EDGE_LOOP('',(#604,#605,#606,#607));
#141=EDGE_LOOP('',(#608,#609,#610,#611));
#142=EDGE_LOOP('',(#612,#613,#614,#615));
#143=EDGE_LOOP('',(#616,#617,#618,#619));
#144=EDGE_LOOP('',(#620,#621,#622,#623));
#145=EDGE_LOOP('',(#624,#625,#626,#627));
#146=EDGE_LOOP('',(#628,#629,#630,#631));
#147=EDGE_LOOP('',(#632,#633,#634,#635));
#148=EDGE_LOOP('',(#636,#637,#638,#639));
#149=EDGE_LOOP('',(#640,#641,#642,#643));
#150=EDGE_LOOP('',(#644,#645,#646,#647));
#151=EDGE_LOOP('',(#648,#649,#650,#651));
#152=EDGE_LOOP('',(#652,#653,#654,#655));
#153=EDGE_LOOP('',(#656,#657,#658,#659));
#154=EDGE_LOOP('',(#660,#661,#662,#663));
#155=EDGE_LOOP('',(#664,#665,#666,#667));
#156=EDGE_LOOP('',(#668,#669,#670,#671));
#157=EDGE_LOOP('',(#672,#673,#674,#675));
#158=EDGE_LOOP('',(#676,#677,#678,#679));
#159=EDGE_LOOP('',(#680,#681,#682,#683));
#160=EDGE_LOOP('',(#684,#685,#686,#687));
#161=EDGE_LOOP('',(#688,#689,#690,#691));
#162=EDGE_LOOP('',(#692,#693,#694,#695));
#163=EDGE_LOOP('',(#696,#697,#698,#699));
#164=EDGE_LOOP('',(#700,#701,#702,#703));
#165=EDGE_LOOP('',(#704,#705,#706,#707));
#166=EDGE_LOOP('',(#708,#709,#710,#711));
#167=EDGE_LOOP('',(#712,#713,#714,#715));
#168=EDGE_LOOP('',(#716,#717,#718,#719));
#169=EDGE_LOOP('',(#720,#721,#722,#723));
#170=EDGE_LOOP('',(#724,#725,#726,#727));
#171=EDGE_LOOP('',(#728,#729,#730,#731));
#172=EDGE_LOOP('',(#732,#733,#734,#735));
#173=EDGE_LOOP('',(#736,#737,#738,#739,#740,#741,#742,#743,#744,#745,#746,
#747,#748,#749,#750,#751,#752,#753,#754,#755,#756,#757,#758,#759,#760,#761,
#762,#763,#764,#765,#766,#767,#768,#769,#770));
#174=EDGE_LOOP('',(#771,#772,#773,#774));
#175=EDGE_LOOP('',(#775,#776,#777,#778));
#176=EDGE_LOOP('',(#779,#780,#781,#782,#783,#784,#785,#786,#787,#788,#789,
#790,#791,#792,#793,#794,#795,#796,#797,#798,#799,#800,#801,#802,#803,#804,
#805,#806,#807,#808,#809,#810,#811,#812,#813));
#177=EDGE_LOOP('',(#814,#815,#816,#817));
#178=EDGE_LOOP('',(#818,#819,#820,#821));
#179=LINE('',#1262,#264);
#180=LINE('',#1264,#265);
#181=LINE('',#1266,#266);
#182=LINE('',#1267,#267);
#183=LINE('',#1273,#268);
#184=LINE('',#1276,#269);
#185=LINE('',#1278,#270);
#186=LINE('',#1279,#271);
#187=LINE('',#1286,#272);
#188=LINE('',#1288,#273);
#189=LINE('',#1290,#274);
#190=LINE('',#1291,#275);
#191=LINE('',#1297,#276);
#192=LINE('',#1300,#277);
#193=LINE('',#1302,#278);
#194=LINE('',#1303,#279);
#195=LINE('',#1312,#280);
#196=LINE('',#1315,#281);
#197=LINE('',#1318,#282);
#198=LINE('',#1320,#283);
#199=LINE('',#1321,#284);
#200=LINE('',#1327,#285);
#201=LINE('',#1333,#286);
#202=LINE('',#1336,#287);
#203=LINE('',#1338,#288);
#204=LINE('',#1339,#289);
#205=LINE('',#1345,#290);
#206=LINE('',#1348,#291);
#207=LINE('',#1350,#292);
#208=LINE('',#1351,#293);
#209=LINE('',#1357,#294);
#210=LINE('',#1360,#295);
#211=LINE('',#1362,#296);
#212=LINE('',#1363,#297);
#213=LINE('',#1369,#298);
#214=LINE('',#1372,#299);
#215=LINE('',#1374,#300);
#216=LINE('',#1375,#301);
#217=LINE('',#1381,#302);
#218=LINE('',#1384,#303);
#219=LINE('',#1386,#304);
#220=LINE('',#1387,#305);
#221=LINE('',#1393,#306);
#222=LINE('',#1396,#307);
#223=LINE('',#1398,#308);
#224=LINE('',#1399,#309);
#225=LINE('',#1405,#310);
#226=LINE('',#1408,#311);
#227=LINE('',#1410,#312);
#228=LINE('',#1411,#313);
#229=LINE('',#1417,#314);
#230=LINE('',#1420,#315);
#231=LINE('',#1422,#316);
#232=LINE('',#1423,#317);
#233=LINE('',#1429,#318);
#234=LINE('',#1432,#319);
#235=LINE('',#1434,#320);
#236=LINE('',#1435,#321);
#237=LINE('',#1441,#322);
#238=LINE('',#1444,#323);
#239=LINE('',#1446,#324);
#240=LINE('',#1447,#325);
#241=LINE('',#1453,#326);
#242=LINE('',#1459,#327);
#243=LINE('',#1462,#328);
#244=LINE('',#1464,#329);
#245=LINE('',#1465,#330);
#246=LINE('',#1471,#331);
#247=LINE('',#1474,#332);
#248=LINE('',#1476,#333);
#249=LINE('',#1477,#334);
#250=LINE('',#1483,#335);
#251=LINE('',#1489,#336);
#252=LINE('',#1492,#337);
#253=LINE('',#1494,#338);
#254=LINE('',#1495,#339);
#255=LINE('',#1498,#340);
#256=LINE('',#1500,#341);
#257=LINE('',#1501,#342);
#258=LINE('',#1504,#343);
#259=LINE('',#1506,#344);
#260=LINE('',#1507,#345);
#261=LINE('',#1513,#346);
#262=LINE('',#1515,#347);
#263=LINE('',#1516,#348);
#264=VECTOR('',#997,10.);
#265=VECTOR('',#998,10.);
#266=VECTOR('',#999,10.);
#267=VECTOR('',#1000,10.);
#268=VECTOR('',#1007,10.);
#269=VECTOR('',#1010,10.);
#270=VECTOR('',#1011,10.);
#271=VECTOR('',#1012,10.);
#272=VECTOR('',#1021,10.);
#273=VECTOR('',#1022,10.);
#274=VECTOR('',#1023,10.);
#275=VECTOR('',#1024,10.);
#276=VECTOR('',#1031,10.);
#277=VECTOR('',#1034,10.);
#278=VECTOR('',#1035,10.);
#279=VECTOR('',#1036,10.);
#280=VECTOR('',#1047,10.);
#281=VECTOR('',#1050,10.);
#282=VECTOR('',#1053,10.);
#283=VECTOR('',#1054,10.);
#284=VECTOR('',#1055,10.);
#285=VECTOR('',#1062,10.);
#286=VECTOR('',#1069,10.);
#287=VECTOR('',#1072,10.);
#288=VECTOR('',#1073,10.);
#289=VECTOR('',#1074,10.);
#290=VECTOR('',#1081,10.);
#291=VECTOR('',#1084,10.);
#292=VECTOR('',#1085,10.);
#293=VECTOR('',#1086,10.);
#294=VECTOR('',#1093,10.);
#295=VECTOR('',#1096,10.);
#296=VECTOR('',#1097,10.);
#297=VECTOR('',#1098,10.);
#298=VECTOR('',#1105,10.);
#299=VECTOR('',#1108,10.);
#300=VECTOR('',#1109,10.);
#301=VECTOR('',#1110,10.);
#302=VECTOR('',#1117,10.);
#303=VECTOR('',#1120,10.);
#304=VECTOR('',#1121,10.);
#305=VECTOR('',#1122,10.);
#306=VECTOR('',#1129,10.);
#307=VECTOR('',#1132,10.);
#308=VECTOR('',#1133,10.);
#309=VECTOR('',#1134,10.);
#310=VECTOR('',#1141,10.);
#311=VECTOR('',#1144,10.);
#312=VECTOR('',#1145,10.);
#313=VECTOR('',#1146,10.);
#314=VECTOR('',#1153,10.);
#315=VECTOR('',#1156,10.);
#316=VECTOR('',#1157,10.);
#317=VECTOR('',#1158,10.);
#318=VECTOR('',#1165,10.);
#319=VECTOR('',#1168,10.);
#320=VECTOR('',#1169,10.);
#321=VECTOR('',#1170,10.);
#322=VECTOR('',#1177,10.);
#323=VECTOR('',#1180,10.);
#324=VECTOR('',#1181,10.);
#325=VECTOR('',#1182,10.);
#326=VECTOR('',#1189,10.);
#327=VECTOR('',#1196,10.);
#328=VECTOR('',#1199,10.);
#329=VECTOR('',#1200,10.);
#330=VECTOR('',#1201,10.);
#331=VECTOR('',#1208,10.);
#332=VECTOR('',#1211,10.);
#333=VECTOR('',#1212,10.);
#334=VECTOR('',#1213,10.);
#335=VECTOR('',#1220,10.);
#336=VECTOR('',#1227,10.);
#337=VECTOR('',#1230,10.);
#338=VECTOR('',#1231,10.);
#339=VECTOR('',#1232,10.);
#340=VECTOR('',#1235,10.);
#341=VECTOR('',#1236,10.);
#342=VECTOR('',#1237,10.);
#343=VECTOR('',#1240,10.);
#344=VECTOR('',#1241,10.);
#345=VECTOR('',#1242,10.);
#346=VECTOR('',#1249,10.);
#347=VECTOR('',#1252,10.);
#348=VECTOR('',#1253,10.);
#349=VERTEX_POINT('',#1260);
#350=VERTEX_POINT('',#1261);
#351=VERTEX_POINT('',#1263);
#352=VERTEX_POINT('',#1265);
#353=VERTEX_POINT('',#1269);
#354=VERTEX_POINT('',#1271);
#355=VERTEX_POINT('',#1275);
#356=VERTEX_POINT('',#1277);
#357=VERTEX_POINT('',#1284);
#358=VERTEX_POINT('',#1285);
#359=VERTEX_POINT('',#1287);
#360=VERTEX_POINT('',#1289);
#361=VERTEX_POINT('',#1293);
#362=VERTEX_POINT('',#1295);
#363=VERTEX_POINT('',#1299);
#364=VERTEX_POINT('',#1301);
#365=VERTEX_POINT('',#1308);
#366=VERTEX_POINT('',#1309);
#367=VERTEX_POINT('',#1311);
#368=VERTEX_POINT('',#1313);
#369=VERTEX_POINT('',#1317);
#370=VERTEX_POINT('',#1319);
#371=VERTEX_POINT('',#1323);
#372=VERTEX_POINT('',#1325);
#373=VERTEX_POINT('',#1329);
#374=VERTEX_POINT('',#1331);
#375=VERTEX_POINT('',#1335);
#376=VERTEX_POINT('',#1337);
#377=VERTEX_POINT('',#1341);
#378=VERTEX_POINT('',#1343);
#379=VERTEX_POINT('',#1347);
#380=VERTEX_POINT('',#1349);
#381=VERTEX_POINT('',#1353);
#382=VERTEX_POINT('',#1355);
#383=VERTEX_POINT('',#1359);
#384=VERTEX_POINT('',#1361);
#385=VERTEX_POINT('',#1365);
#386=VERTEX_POINT('',#1367);
#387=VERTEX_POINT('',#1371);
#388=VERTEX_POINT('',#1373);
#389=VERTEX_POINT('',#1377);
#390=VERTEX_POINT('',#1379);
#391=VERTEX_POINT('',#1383);
#392=VERTEX_POINT('',#1385);
#393=VERTEX_POINT('',#1389);
#394=VERTEX_POINT('',#1391);
#395=VERTEX_POINT('',#1395);
#396=VERTEX_POINT('',#1397);
#397=VERTEX_POINT('',#1401);
#398=VERTEX_POINT('',#1403);
#399=VERTEX_POINT('',#1407);
#400=VERTEX_POINT('',#1409);
#401=VERTEX_POINT('',#1413);
#402=VERTEX_POINT('',#1415);
#403=VERTEX_POINT('',#1419);
#404=VERTEX_POINT('',#1421);
#405=VERTEX_POINT('',#1425);
#406=VERTEX_POINT('',#1427);
#407=VERTEX_POINT('',#1431);
#408=VERTEX_POINT('',#1433);
#409=VERTEX_POINT('',#1437);
#410=VERTEX_POINT('',#1439);
#411=VERTEX_POINT('',#1443);
#412=VERTEX_POINT('',#1445);
#413=VERTEX_POINT('',#1449);
#414=VERTEX_POINT('',#1451);
#415=VERTEX_POINT('',#1455);
#416=VERTEX_POINT('',#1457);
#417=VERTEX_POINT('',#1461);
#418=VERTEX_POINT('',#1463);
#419=VERTEX_POINT('',#1467);
#420=VERTEX_POINT('',#1469);
#421=VERTEX_POINT('',#1473);
#422=VERTEX_POINT('',#1475);
#423=VERTEX_POINT('',#1479);
#424=VERTEX_POINT('',#1481);
#425=VERTEX_POINT('',#1485);
#426=VERTEX_POINT('',#1487);
#427=VERTEX_POINT('',#1491);
#428=VERTEX_POINT('',#1493);
#429=VERTEX_POINT('',#1497);
#430=VERTEX_POINT('',#1499);
#431=VERTEX_POINT('',#1503);
#432=VERTEX_POINT('',#1505);
#433=VERTEX_POINT('',#1509);
#434=VERTEX_POINT('',#1511);
#435=EDGE_CURVE('',#349,#350,#179,.T.);
#436=EDGE_CURVE('',#350,#351,#180,.T.);
#437=EDGE_CURVE('',#352,#351,#181,.T.);
#438=EDGE_CURVE('',#349,#352,#182,.T.);
#439=EDGE_CURVE('',#353,#349,#19,.T.);
#440=EDGE_CURVE('',#354,#352,#20,.T.);
#441=EDGE_CURVE('',#353,#354,#183,.T.);
#442=EDGE_CURVE('',#355,#353,#184,.T.);
#443=EDGE_CURVE('',#356,#354,#185,.T.);
#444=EDGE_CURVE('',#355,#356,#186,.T.);
#445=EDGE_CURVE('',#350,#355,#21,.T.);
#446=EDGE_CURVE('',#351,#356,#22,.T.);
#447=EDGE_CURVE('',#357,#358,#187,.T.);
#448=EDGE_CURVE('',#358,#359,#188,.T.);
#449=EDGE_CURVE('',#360,#359,#189,.T.);
#450=EDGE_CURVE('',#357,#360,#190,.T.);
#451=EDGE_CURVE('',#361,#357,#23,.T.);
#452=EDGE_CURVE('',#362,#360,#24,.T.);
#453=EDGE_CURVE('',#361,#362,#191,.T.);
#454=EDGE_CURVE('',#363,#361,#192,.T.);
#455=EDGE_CURVE('',#364,#362,#193,.T.);
#456=EDGE_CURVE('',#363,#364,#194,.T.);
#457=EDGE_CURVE('',#358,#363,#25,.T.);
#458=EDGE_CURVE('',#359,#364,#26,.T.);
#459=EDGE_CURVE('',#365,#366,#27,.T.);
#460=EDGE_CURVE('',#366,#367,#195,.T.);
#461=EDGE_CURVE('',#368,#367,#28,.T.);
#462=EDGE_CURVE('',#365,#368,#196,.T.);
#463=EDGE_CURVE('',#369,#365,#197,.T.);
#464=EDGE_CURVE('',#370,#368,#198,.T.);
#465=EDGE_CURVE('',#369,#370,#199,.T.);
#466=EDGE_CURVE('',#369,#371,#29,.T.);
#467=EDGE_CURVE('',#372,#370,#30,.T.);
#468=EDGE_CURVE('',#371,#372,#200,.T.);
#469=EDGE_CURVE('',#371,#373,#31,.T.);
#470=EDGE_CURVE('',#374,#372,#32,.T.);
#471=EDGE_CURVE('',#373,#374,#201,.T.);
#472=EDGE_CURVE('',#375,#373,#202,.T.);
#473=EDGE_CURVE('',#376,#374,#203,.T.);
#474=EDGE_CURVE('',#375,#376,#204,.T.);
#475=EDGE_CURVE('',#375,#377,#33,.T.);
#476=EDGE_CURVE('',#378,#376,#34,.T.);
#477=EDGE_CURVE('',#377,#378,#205,.T.);
#478=EDGE_CURVE('',#379,#377,#206,.T.);
#479=EDGE_CURVE('',#380,#378,#207,.T.);
#480=EDGE_CURVE('',#379,#380,#208,.T.);
#481=EDGE_CURVE('',#379,#381,#35,.T.);
#482=EDGE_CURVE('',#382,#380,#36,.T.);
#483=EDGE_CURVE('',#381,#382,#209,.T.);
#484=EDGE_CURVE('',#383,#381,#210,.T.);
#485=EDGE_CURVE('',#384,#382,#211,.T.);
#486=EDGE_CURVE('',#383,#384,#212,.T.);
#487=EDGE_CURVE('',#383,#385,#37,.T.);
#488=EDGE_CURVE('',#386,#384,#38,.T.);
#489=EDGE_CURVE('',#385,#386,#213,.T.);
#490=EDGE_CURVE('',#387,#385,#214,.T.);
#491=EDGE_CURVE('',#388,#386,#215,.T.);
#492=EDGE_CURVE('',#387,#388,#216,.T.);
#493=EDGE_CURVE('',#387,#389,#39,.T.);
#494=EDGE_CURVE('',#390,#388,#40,.T.);
#495=EDGE_CURVE('',#389,#390,#217,.T.);
#496=EDGE_CURVE('',#391,#389,#218,.T.);
#497=EDGE_CURVE('',#392,#390,#219,.T.);
#498=EDGE_CURVE('',#391,#392,#220,.T.);
#499=EDGE_CURVE('',#391,#393,#41,.T.);
#500=EDGE_CURVE('',#394,#392,#42,.T.);
#501=EDGE_CURVE('',#393,#394,#221,.T.);
#502=EDGE_CURVE('',#395,#393,#222,.T.);
#503=EDGE_CURVE('',#396,#394,#223,.T.);
#504=EDGE_CURVE('',#395,#396,#224,.T.);
#505=EDGE_CURVE('',#395,#397,#43,.T.);
#506=EDGE_CURVE('',#398,#396,#44,.T.);
#507=EDGE_CURVE('',#397,#398,#225,.T.);
#508=EDGE_CURVE('',#399,#397,#226,.T.);
#509=EDGE_CURVE('',#400,#398,#227,.T.);
#510=EDGE_CURVE('',#399,#400,#228,.T.);
#511=EDGE_CURVE('',#399,#401,#45,.T.);
#512=EDGE_CURVE('',#402,#400,#46,.T.);
#513=EDGE_CURVE('',#401,#402,#229,.T.);
#514=EDGE_CURVE('',#403,#401,#230,.T.);
#515=EDGE_CURVE('',#404,#402,#231,.T.);
#516=EDGE_CURVE('',#403,#404,#232,.T.);
#517=EDGE_CURVE('',#403,#405,#47,.T.);
#518=EDGE_CURVE('',#406,#404,#48,.T.);
#519=EDGE_CURVE('',#405,#406,#233,.T.);
#520=EDGE_CURVE('',#407,#405,#234,.T.);
#521=EDGE_CURVE('',#408,#406,#235,.T.);
#522=EDGE_CURVE('',#407,#408,#236,.T.);
#523=EDGE_CURVE('',#409,#407,#49,.T.);
#524=EDGE_CURVE('',#410,#408,#50,.T.);
#525=EDGE_CURVE('',#409,#410,#237,.T.);
#526=EDGE_CURVE('',#411,#409,#238,.T.);
#527=EDGE_CURVE('',#412,#410,#239,.T.);
#528=EDGE_CURVE('',#411,#412,#240,.T.);
#529=EDGE_CURVE('',#411,#413,#51,.T.);
#530=EDGE_CURVE('',#414,#412,#52,.T.);
#531=EDGE_CURVE('',#413,#414,#241,.T.);
#532=EDGE_CURVE('',#415,#413,#53,.T.);
#533=EDGE_CURVE('',#416,#414,#54,.T.);
#534=EDGE_CURVE('',#415,#416,#242,.T.);
#535=EDGE_CURVE('',#417,#415,#243,.T.);
#536=EDGE_CURVE('',#418,#416,#244,.T.);
#537=EDGE_CURVE('',#417,#418,#245,.T.);
#538=EDGE_CURVE('',#419,#417,#55,.T.);
#539=EDGE_CURVE('',#420,#418,#56,.T.);
#540=EDGE_CURVE('',#419,#420,#246,.T.);
#541=EDGE_CURVE('',#419,#421,#247,.T.);
#542=EDGE_CURVE('',#422,#420,#248,.T.);
#543=EDGE_CURVE('',#421,#422,#249,.T.);
#544=EDGE_CURVE('',#423,#421,#57,.T.);
#545=EDGE_CURVE('',#424,#422,#58,.T.);
#546=EDGE_CURVE('',#423,#424,#250,.T.);
#547=EDGE_CURVE('',#425,#423,#59,.T.);
#548=EDGE_CURVE('',#426,#424,#60,.T.);
#549=EDGE_CURVE('',#425,#426,#251,.T.);
#550=EDGE_CURVE('',#425,#427,#252,.T.);
#551=EDGE_CURVE('',#428,#426,#253,.T.);
#552=EDGE_CURVE('',#427,#428,#254,.T.);
#553=EDGE_CURVE('',#429,#427,#255,.T.);
#554=EDGE_CURVE('',#430,#428,#256,.T.);
#555=EDGE_CURVE('',#429,#430,#257,.T.);
#556=EDGE_CURVE('',#431,#429,#258,.T.);
#557=EDGE_CURVE('',#432,#430,#259,.T.);
#558=EDGE_CURVE('',#431,#432,#260,.T.);
#559=EDGE_CURVE('',#433,#431,#61,.T.);
#560=EDGE_CURVE('',#434,#432,#62,.T.);
#561=EDGE_CURVE('',#433,#434,#261,.T.);
#562=EDGE_CURVE('',#366,#433,#262,.T.);
#563=EDGE_CURVE('',#367,#434,#263,.T.);
#564=ORIENTED_EDGE('',*,*,#435,.T.);
#565=ORIENTED_EDGE('',*,*,#436,.T.);
#566=ORIENTED_EDGE('',*,*,#437,.F.);
#567=ORIENTED_EDGE('',*,*,#438,.F.);
#568=ORIENTED_EDGE('',*,*,#439,.T.);
#569=ORIENTED_EDGE('',*,*,#438,.T.);
#570=ORIENTED_EDGE('',*,*,#440,.F.);
#571=ORIENTED_EDGE('',*,*,#441,.F.);
#572=ORIENTED_EDGE('',*,*,#442,.T.);
#573=ORIENTED_EDGE('',*,*,#441,.T.);
#574=ORIENTED_EDGE('',*,*,#443,.F.);
#575=ORIENTED_EDGE('',*,*,#444,.F.);
#576=ORIENTED_EDGE('',*,*,#445,.T.);
#577=ORIENTED_EDGE('',*,*,#444,.T.);
#578=ORIENTED_EDGE('',*,*,#446,.F.);
#579=ORIENTED_EDGE('',*,*,#436,.F.);
#580=ORIENTED_EDGE('',*,*,#447,.T.);
#581=ORIENTED_EDGE('',*,*,#448,.T.);
#582=ORIENTED_EDGE('',*,*,#449,.F.);
#583=ORIENTED_EDGE('',*,*,#450,.F.);
#584=ORIENTED_EDGE('',*,*,#451,.T.);
#585=ORIENTED_EDGE('',*,*,#450,.T.);
#586=ORIENTED_EDGE('',*,*,#452,.F.);
#587=ORIENTED_EDGE('',*,*,#453,.F.);
#588=ORIENTED_EDGE('',*,*,#454,.T.);
#589=ORIENTED_EDGE('',*,*,#453,.T.);
#590=ORIENTED_EDGE('',*,*,#455,.F.);
#591=ORIENTED_EDGE('',*,*,#456,.F.);
#592=ORIENTED_EDGE('',*,*,#457,.T.);
#593=ORIENTED_EDGE('',*,*,#456,.T.);
#594=ORIENTED_EDGE('',*,*,#458,.F.);
#595=ORIENTED_EDGE('',*,*,#448,.F.);
#596=ORIENTED_EDGE('',*,*,#459,.T.);
#597=ORIENTED_EDGE('',*,*,#460,.T.);
#598=ORIENTED_EDGE('',*,*,#461,.F.);
#599=ORIENTED_EDGE('',*,*,#462,.F.);
#600=ORIENTED_EDGE('',*,*,#463,.T.);
#601=ORIENTED_EDGE('',*,*,#462,.T.);
#602=ORIENTED_EDGE('',*,*,#464,.F.);
#603=ORIENTED_EDGE('',*,*,#465,.F.);
#604=ORIENTED_EDGE('',*,*,#466,.F.);
#605=ORIENTED_EDGE('',*,*,#465,.T.);
#606=ORIENTED_EDGE('',*,*,#467,.F.);
#607=ORIENTED_EDGE('',*,*,#468,.F.);
#608=ORIENTED_EDGE('',*,*,#469,.F.);
#609=ORIENTED_EDGE('',*,*,#468,.T.);
#610=ORIENTED_EDGE('',*,*,#470,.F.);
#611=ORIENTED_EDGE('',*,*,#471,.F.);
#612=ORIENTED_EDGE('',*,*,#472,.T.);
#613=ORIENTED_EDGE('',*,*,#471,.T.);
#614=ORIENTED_EDGE('',*,*,#473,.F.);
#615=ORIENTED_EDGE('',*,*,#474,.F.);
#616=ORIENTED_EDGE('',*,*,#475,.F.);
#617=ORIENTED_EDGE('',*,*,#474,.T.);
#618=ORIENTED_EDGE('',*,*,#476,.F.);
#619=ORIENTED_EDGE('',*,*,#477,.F.);
#620=ORIENTED_EDGE('',*,*,#478,.T.);
#621=ORIENTED_EDGE('',*,*,#477,.T.);
#622=ORIENTED_EDGE('',*,*,#479,.F.);
#623=ORIENTED_EDGE('',*,*,#480,.F.);
#624=ORIENTED_EDGE('',*,*,#481,.F.);
#625=ORIENTED_EDGE('',*,*,#480,.T.);
#626=ORIENTED_EDGE('',*,*,#482,.F.);
#627=ORIENTED_EDGE('',*,*,#483,.F.);
#628=ORIENTED_EDGE('',*,*,#484,.T.);
#629=ORIENTED_EDGE('',*,*,#483,.T.);
#630=ORIENTED_EDGE('',*,*,#485,.F.);
#631=ORIENTED_EDGE('',*,*,#486,.F.);
#632=ORIENTED_EDGE('',*,*,#487,.F.);
#633=ORIENTED_EDGE('',*,*,#486,.T.);
#634=ORIENTED_EDGE('',*,*,#488,.F.);
#635=ORIENTED_EDGE('',*,*,#489,.F.);
#636=ORIENTED_EDGE('',*,*,#490,.T.);
#637=ORIENTED_EDGE('',*,*,#489,.T.);
#638=ORIENTED_EDGE('',*,*,#491,.F.);
#639=ORIENTED_EDGE('',*,*,#492,.F.);
#640=ORIENTED_EDGE('',*,*,#493,.F.);
#641=ORIENTED_EDGE('',*,*,#492,.T.);
#642=ORIENTED_EDGE('',*,*,#494,.F.);
#643=ORIENTED_EDGE('',*,*,#495,.F.);
#644=ORIENTED_EDGE('',*,*,#496,.T.);
#645=ORIENTED_EDGE('',*,*,#495,.T.);
#646=ORIENTED_EDGE('',*,*,#497,.F.);
#647=ORIENTED_EDGE('',*,*,#498,.F.);
#648=ORIENTED_EDGE('',*,*,#499,.F.);
#649=ORIENTED_EDGE('',*,*,#498,.T.);
#650=ORIENTED_EDGE('',*,*,#500,.F.);
#651=ORIENTED_EDGE('',*,*,#501,.F.);
#652=ORIENTED_EDGE('',*,*,#502,.T.);
#653=ORIENTED_EDGE('',*,*,#501,.T.);
#654=ORIENTED_EDGE('',*,*,#503,.F.);
#655=ORIENTED_EDGE('',*,*,#504,.F.);
#656=ORIENTED_EDGE('',*,*,#505,.F.);
#657=ORIENTED_EDGE('',*,*,#504,.T.);
#658=ORIENTED_EDGE('',*,*,#506,.F.);
#659=ORIENTED_EDGE('',*,*,#507,.F.);
#660=ORIENTED_EDGE('',*,*,#508,.T.);
#661=ORIENTED_EDGE('',*,*,#507,.T.);
#662=ORIENTED_EDGE('',*,*,#509,.F.);
#663=ORIENTED_EDGE('',*,*,#510,.F.);
#664=ORIENTED_EDGE('',*,*,#511,.F.);
#665=ORIENTED_EDGE('',*,*,#510,.T.);
#666=ORIENTED_EDGE('',*,*,#512,.F.);
#667=ORIENTED_EDGE('',*,*,#513,.F.);
#668=ORIENTED_EDGE('',*,*,#514,.T.);
#669=ORIENTED_EDGE('',*,*,#513,.T.);
#670=ORIENTED_EDGE('',*,*,#515,.F.);
#671=ORIENTED_EDGE('',*,*,#516,.F.);
#672=ORIENTED_EDGE('',*,*,#517,.F.);
#673=ORIENTED_EDGE('',*,*,#516,.T.);
#674=ORIENTED_EDGE('',*,*,#518,.F.);
#675=ORIENTED_EDGE('',*,*,#519,.F.);
#676=ORIENTED_EDGE('',*,*,#520,.T.);
#677=ORIENTED_EDGE('',*,*,#519,.T.);
#678=ORIENTED_EDGE('',*,*,#521,.F.);
#679=ORIENTED_EDGE('',*,*,#522,.F.);
#680=ORIENTED_EDGE('',*,*,#523,.T.);
#681=ORIENTED_EDGE('',*,*,#522,.T.);
#682=ORIENTED_EDGE('',*,*,#524,.F.);
#683=ORIENTED_EDGE('',*,*,#525,.F.);
#684=ORIENTED_EDGE('',*,*,#526,.T.);
#685=ORIENTED_EDGE('',*,*,#525,.T.);
#686=ORIENTED_EDGE('',*,*,#527,.F.);
#687=ORIENTED_EDGE('',*,*,#528,.F.);
#688=ORIENTED_EDGE('',*,*,#529,.F.);
#689=ORIENTED_EDGE('',*,*,#528,.T.);
#690=ORIENTED_EDGE('',*,*,#530,.F.);
#691=ORIENTED_EDGE('',*,*,#531,.F.);
#692=ORIENTED_EDGE('',*,*,#532,.T.);
#693=ORIENTED_EDGE('',*,*,#531,.T.);
#694=ORIENTED_EDGE('',*,*,#533,.F.);
#695=ORIENTED_EDGE('',*,*,#534,.F.);
#696=ORIENTED_EDGE('',*,*,#535,.T.);
#697=ORIENTED_EDGE('',*,*,#534,.T.);
#698=ORIENTED_EDGE('',*,*,#536,.F.);
#699=ORIENTED_EDGE('',*,*,#537,.F.);
#700=ORIENTED_EDGE('',*,*,#538,.T.);
#701=ORIENTED_EDGE('',*,*,#537,.T.);
#702=ORIENTED_EDGE('',*,*,#539,.F.);
#703=ORIENTED_EDGE('',*,*,#540,.F.);
#704=ORIENTED_EDGE('',*,*,#541,.F.);
#705=ORIENTED_EDGE('',*,*,#540,.T.);
#706=ORIENTED_EDGE('',*,*,#542,.F.);
#707=ORIENTED_EDGE('',*,*,#543,.F.);
#708=ORIENTED_EDGE('',*,*,#544,.T.);
#709=ORIENTED_EDGE('',*,*,#543,.T.);
#710=ORIENTED_EDGE('',*,*,#545,.F.);
#711=ORIENTED_EDGE('',*,*,#546,.F.);
#712=ORIENTED_EDGE('',*,*,#547,.T.);
#713=ORIENTED_EDGE('',*,*,#546,.T.);
#714=ORIENTED_EDGE('',*,*,#548,.F.);
#715=ORIENTED_EDGE('',*,*,#549,.F.);
#716=ORIENTED_EDGE('',*,*,#550,.F.);
#717=ORIENTED_EDGE('',*,*,#549,.T.);
#718=ORIENTED_EDGE('',*,*,#551,.F.);
#719=ORIENTED_EDGE('',*,*,#552,.F.);
#720=ORIENTED_EDGE('',*,*,#553,.T.);
#721=ORIENTED_EDGE('',*,*,#552,.T.);
#722=ORIENTED_EDGE('',*,*,#554,.F.);
#723=ORIENTED_EDGE('',*,*,#555,.F.);
#724=ORIENTED_EDGE('',*,*,#556,.T.);
#725=ORIENTED_EDGE('',*,*,#555,.T.);
#726=ORIENTED_EDGE('',*,*,#557,.F.);
#727=ORIENTED_EDGE('',*,*,#558,.F.);
#728=ORIENTED_EDGE('',*,*,#559,.T.);
#729=ORIENTED_EDGE('',*,*,#558,.T.);
#730=ORIENTED_EDGE('',*,*,#560,.F.);
#731=ORIENTED_EDGE('',*,*,#561,.F.);
#732=ORIENTED_EDGE('',*,*,#562,.T.);
#733=ORIENTED_EDGE('',*,*,#561,.T.);
#734=ORIENTED_EDGE('',*,*,#563,.F.);
#735=ORIENTED_EDGE('',*,*,#460,.F.);
#736=ORIENTED_EDGE('',*,*,#563,.T.);
#737=ORIENTED_EDGE('',*,*,#560,.T.);
#738=ORIENTED_EDGE('',*,*,#557,.T.);
#739=ORIENTED_EDGE('',*,*,#554,.T.);
#740=ORIENTED_EDGE('',*,*,#551,.T.);
#741=ORIENTED_EDGE('',*,*,#548,.T.);
#742=ORIENTED_EDGE('',*,*,#545,.T.);
#743=ORIENTED_EDGE('',*,*,#542,.T.);
#744=ORIENTED_EDGE('',*,*,#539,.T.);
#745=ORIENTED_EDGE('',*,*,#536,.T.);
#746=ORIENTED_EDGE('',*,*,#533,.T.);
#747=ORIENTED_EDGE('',*,*,#530,.T.);
#748=ORIENTED_EDGE('',*,*,#527,.T.);
#749=ORIENTED_EDGE('',*,*,#524,.T.);
#750=ORIENTED_EDGE('',*,*,#521,.T.);
#751=ORIENTED_EDGE('',*,*,#518,.T.);
#752=ORIENTED_EDGE('',*,*,#515,.T.);
#753=ORIENTED_EDGE('',*,*,#512,.T.);
#754=ORIENTED_EDGE('',*,*,#509,.T.);
#755=ORIENTED_EDGE('',*,*,#506,.T.);
#756=ORIENTED_EDGE('',*,*,#503,.T.);
#757=ORIENTED_EDGE('',*,*,#500,.T.);
#758=ORIENTED_EDGE('',*,*,#497,.T.);
#759=ORIENTED_EDGE('',*,*,#494,.T.);
#760=ORIENTED_EDGE('',*,*,#491,.T.);
#761=ORIENTED_EDGE('',*,*,#488,.T.);
#762=ORIENTED_EDGE('',*,*,#485,.T.);
#763=ORIENTED_EDGE('',*,*,#482,.T.);
#764=ORIENTED_EDGE('',*,*,#479,.T.);
#765=ORIENTED_EDGE('',*,*,#476,.T.);
#766=ORIENTED_EDGE('',*,*,#473,.T.);
#767=ORIENTED_EDGE('',*,*,#470,.T.);
#768=ORIENTED_EDGE('',*,*,#467,.T.);
#769=ORIENTED_EDGE('',*,*,#464,.T.);
#770=ORIENTED_EDGE('',*,*,#461,.T.);
#771=ORIENTED_EDGE('',*,*,#458,.T.);
#772=ORIENTED_EDGE('',*,*,#455,.T.);
#773=ORIENTED_EDGE('',*,*,#452,.T.);
#774=ORIENTED_EDGE('',*,*,#449,.T.);
#775=ORIENTED_EDGE('',*,*,#446,.T.);
#776=ORIENTED_EDGE('',*,*,#443,.T.);
#777=ORIENTED_EDGE('',*,*,#440,.T.);
#778=ORIENTED_EDGE('',*,*,#437,.T.);
#779=ORIENTED_EDGE('',*,*,#562,.F.);
#780=ORIENTED_EDGE('',*,*,#459,.F.);
#781=ORIENTED_EDGE('',*,*,#463,.F.);
#782=ORIENTED_EDGE('',*,*,#466,.T.);
#783=ORIENTED_EDGE('',*,*,#469,.T.);
#784=ORIENTED_EDGE('',*,*,#472,.F.);
#785=ORIENTED_EDGE('',*,*,#475,.T.);
#786=ORIENTED_EDGE('',*,*,#478,.F.);
#787=ORIENTED_EDGE('',*,*,#481,.T.);
#788=ORIENTED_EDGE('',*,*,#484,.F.);
#789=ORIENTED_EDGE('',*,*,#487,.T.);
#790=ORIENTED_EDGE('',*,*,#490,.F.);
#791=ORIENTED_EDGE('',*,*,#493,.T.);
#792=ORIENTED_EDGE('',*,*,#496,.F.);
#793=ORIENTED_EDGE('',*,*,#499,.T.);
#794=ORIENTED_EDGE('',*,*,#502,.F.);
#795=ORIENTED_EDGE('',*,*,#505,.T.);
#796=ORIENTED_EDGE('',*,*,#508,.F.);
#797=ORIENTED_EDGE('',*,*,#511,.T.);
#798=ORIENTED_EDGE('',*,*,#514,.F.);
#799=ORIENTED_EDGE('',*,*,#517,.T.);
#800=ORIENTED_EDGE('',*,*,#520,.F.);
#801=ORIENTED_EDGE('',*,*,#523,.F.);
#802=ORIENTED_EDGE('',*,*,#526,.F.);
#803=ORIENTED_EDGE('',*,*,#529,.T.);
#804=ORIENTED_EDGE('',*,*,#532,.F.);
#805=ORIENTED_EDGE('',*,*,#535,.F.);
#806=ORIENTED_EDGE('',*,*,#538,.F.);
#807=ORIENTED_EDGE('',*,*,#541,.T.);
#808=ORIENTED_EDGE('',*,*,#544,.F.);
#809=ORIENTED_EDGE('',*,*,#547,.F.);
#810=ORIENTED_EDGE('',*,*,#550,.T.);
#811=ORIENTED_EDGE('',*,*,#553,.F.);
#812=ORIENTED_EDGE('',*,*,#556,.F.);
#813=ORIENTED_EDGE('',*,*,#559,.F.);
#814=ORIENTED_EDGE('',*,*,#457,.F.);
#815=ORIENTED_EDGE('',*,*,#447,.F.);
#816=ORIENTED_EDGE('',*,*,#451,.F.);
#817=ORIENTED_EDGE('',*,*,#454,.F.);
#818=ORIENTED_EDGE('',*,*,#445,.F.);
#819=ORIENTED_EDGE('',*,*,#435,.F.);
#820=ORIENTED_EDGE('',*,*,#439,.F.);
#821=ORIENTED_EDGE('',*,*,#442,.F.);
#822=PLANE('',#904);
#823=PLANE('',#908);
#824=PLANE('',#912);
#825=PLANE('',#916);
#826=PLANE('',#923);
#827=PLANE('',#930);
#828=PLANE('',#934);
#829=PLANE('',#938);
#830=PLANE('',#942);
#831=PLANE('',#946);
#832=PLANE('',#950);
#833=PLANE('',#954);
#834=PLANE('',#958);
#835=PLANE('',#962);
#836=PLANE('',#966);
#837=PLANE('',#973);
#838=PLANE('',#977);
#839=PLANE('',#984);
#840=PLANE('',#985);
#841=PLANE('',#986);
#842=PLANE('',#990);
#843=PLANE('',#991);
#844=PLANE('',#992);
#845=ADVANCED_FACE('',(#85),#822,.T.);
#846=ADVANCED_FACE('',(#86),#63,.F.);
#847=ADVANCED_FACE('',(#87),#823,.T.);
#848=ADVANCED_FACE('',(#88),#64,.F.);
#849=ADVANCED_FACE('',(#89),#824,.T.);
#850=ADVANCED_FACE('',(#90),#65,.F.);
#851=ADVANCED_FACE('',(#91),#825,.T.);
#852=ADVANCED_FACE('',(#92),#66,.F.);
#853=ADVANCED_FACE('',(#93),#67,.T.);
#854=ADVANCED_FACE('',(#94),#826,.T.);
#855=ADVANCED_FACE('',(#95),#68,.F.);
#856=ADVANCED_FACE('',(#96),#69,.F.);
#857=ADVANCED_FACE('',(#97),#827,.T.);
#858=ADVANCED_FACE('',(#98),#70,.F.);
#859=ADVANCED_FACE('',(#99),#828,.T.);
#860=ADVANCED_FACE('',(#100),#71,.F.);
#861=ADVANCED_FACE('',(#101),#829,.T.);
#862=ADVANCED_FACE('',(#102),#72,.F.);
#863=ADVANCED_FACE('',(#103),#830,.T.);
#864=ADVANCED_FACE('',(#104),#73,.F.);
#865=ADVANCED_FACE('',(#105),#831,.T.);
#866=ADVANCED_FACE('',(#106),#74,.F.);
#867=ADVANCED_FACE('',(#107),#832,.T.);
#868=ADVANCED_FACE('',(#108),#75,.F.);
#869=ADVANCED_FACE('',(#109),#833,.T.);
#870=ADVANCED_FACE('',(#110),#76,.F.);
#871=ADVANCED_FACE('',(#111),#834,.T.);
#872=ADVANCED_FACE('',(#112),#77,.F.);
#873=ADVANCED_FACE('',(#113),#835,.T.);
#874=ADVANCED_FACE('',(#114),#78,.T.);
#875=ADVANCED_FACE('',(#115),#836,.T.);
#876=ADVANCED_FACE('',(#116),#79,.F.);
#877=ADVANCED_FACE('',(#117),#80,.T.);
#878=ADVANCED_FACE('',(#118),#837,.T.);
#879=ADVANCED_FACE('',(#119),#81,.T.);
#880=ADVANCED_FACE('',(#120),#838,.T.);
#881=ADVANCED_FACE('',(#121),#82,.T.);
#882=ADVANCED_FACE('',(#122),#83,.T.);
#883=ADVANCED_FACE('',(#123),#839,.T.);
#884=ADVANCED_FACE('',(#124),#840,.T.);
#885=ADVANCED_FACE('',(#125),#841,.T.);
#886=ADVANCED_FACE('',(#126),#84,.T.);
#887=ADVANCED_FACE('',(#127),#842,.T.);
#888=ADVANCED_FACE('',(#128,#15,#16),#843,.T.);
#889=ADVANCED_FACE('',(#129,#17,#18),#844,.F.);
#890=CLOSED_SHELL('',(#845,#846,#847,#848,#849,#850,#851,#852,#853,#854,
#855,#856,#857,#858,#859,#860,#861,#862,#863,#864,#865,#866,#867,#868,#869,
#870,#871,#872,#873,#874,#875,#876,#877,#878,#879,#880,#881,#882,#883,#884,
#885,#886,#887,#888,#889));
#891=DERIVED_UNIT_ELEMENT(#893,1.);
#892=DERIVED_UNIT_ELEMENT(#1524,-3.);
#893=(
MASS_UNIT()
NAMED_UNIT(*)
SI_UNIT(.KILO.,.GRAM.)
);
#894=DERIVED_UNIT((#891,#892));
#895=MEASURE_REPRESENTATION_ITEM('density measure',
POSITIVE_RATIO_MEASURE(7850.),#894);
#896=PROPERTY_DEFINITION_REPRESENTATION(#901,#898);
#897=PROPERTY_DEFINITION_REPRESENTATION(#902,#899);
#898=REPRESENTATION('material name',(#900),#1521);
#899=REPRESENTATION('density',(#895),#1521);
#900=DESCRIPTIVE_REPRESENTATION_ITEM('Steel','Steel');
#901=PROPERTY_DEFINITION('material property','material name',#1531);
#902=PROPERTY_DEFINITION('material property','density of part',#1531);
#903=AXIS2_PLACEMENT_3D('',#1258,#993,#994);
#904=AXIS2_PLACEMENT_3D('',#1259,#995,#996);
#905=AXIS2_PLACEMENT_3D('',#1268,#1001,#1002);
#906=AXIS2_PLACEMENT_3D('',#1270,#1003,#1004);
#907=AXIS2_PLACEMENT_3D('',#1272,#1005,#1006);
#908=AXIS2_PLACEMENT_3D('',#1274,#1008,#1009);
#909=AXIS2_PLACEMENT_3D('',#1280,#1013,#1014);
#910=AXIS2_PLACEMENT_3D('',#1281,#1015,#1016);
#911=AXIS2_PLACEMENT_3D('',#1282,#1017,#1018);
#912=AXIS2_PLACEMENT_3D('',#1283,#1019,#1020);
#913=AXIS2_PLACEMENT_3D('',#1292,#1025,#1026);
#914=AXIS2_PLACEMENT_3D('',#1294,#1027,#1028);
#915=AXIS2_PLACEMENT_3D('',#1296,#1029,#1030);
#916=AXIS2_PLACEMENT_3D('',#1298,#1032,#1033);
#917=AXIS2_PLACEMENT_3D('',#1304,#1037,#1038);
#918=AXIS2_PLACEMENT_3D('',#1305,#1039,#1040);
#919=AXIS2_PLACEMENT_3D('',#1306,#1041,#1042);
#920=AXIS2_PLACEMENT_3D('',#1307,#1043,#1044);
#921=AXIS2_PLACEMENT_3D('',#1310,#1045,#1046);
#922=AXIS2_PLACEMENT_3D('',#1314,#1048,#1049);
#923=AXIS2_PLACEMENT_3D('',#1316,#1051,#1052);
#924=AXIS2_PLACEMENT_3D('',#1322,#1056,#1057);
#925=AXIS2_PLACEMENT_3D('',#1324,#1058,#1059);
#926=AXIS2_PLACEMENT_3D('',#1326,#1060,#1061);
#927=AXIS2_PLACEMENT_3D('',#1328,#1063,#1064);
#928=AXIS2_PLACEMENT_3D('',#1330,#1065,#1066);
#929=AXIS2_PLACEMENT_3D('',#1332,#1067,#1068);
#930=AXIS2_PLACEMENT_3D('',#1334,#1070,#1071);
#931=AXIS2_PLACEMENT_3D('',#1340,#1075,#1076);
#932=AXIS2_PLACEMENT_3D('',#1342,#1077,#1078);
#933=AXIS2_PLACEMENT_3D('',#1344,#1079,#1080);
#934=AXIS2_PLACEMENT_3D('',#1346,#1082,#1083);
#935=AXIS2_PLACEMENT_3D('',#1352,#1087,#1088);
#936=AXIS2_PLACEMENT_3D('',#1354,#1089,#1090);
#937=AXIS2_PLACEMENT_3D('',#1356,#1091,#1092);
#938=AXIS2_PLACEMENT_3D('',#1358,#1094,#1095);
#939=AXIS2_PLACEMENT_3D('',#1364,#1099,#1100);
#940=AXIS2_PLACEMENT_3D('',#1366,#1101,#1102);
#941=AXIS2_PLACEMENT_3D('',#1368,#1103,#1104);
#942=AXIS2_PLACEMENT_3D('',#1370,#1106,#1107);
#943=AXIS2_PLACEMENT_3D('',#1376,#1111,#1112);
#944=AXIS2_PLACEMENT_3D('',#1378,#1113,#1114);
#945=AXIS2_PLACEMENT_3D('',#1380,#1115,#1116);
#946=AXIS2_PLACEMENT_3D('',#1382,#1118,#1119);
#947=AXIS2_PLACEMENT_3D('',#1388,#1123,#1124);
#948=AXIS2_PLACEMENT_3D('',#1390,#1125,#1126);
#949=AXIS2_PLACEMENT_3D('',#1392,#1127,#1128);
#950=AXIS2_PLACEMENT_3D('',#1394,#1130,#1131);
#951=AXIS2_PLACEMENT_3D('',#1400,#1135,#1136);
#952=AXIS2_PLACEMENT_3D('',#1402,#1137,#1138);
#953=AXIS2_PLACEMENT_3D('',#1404,#1139,#1140);
#954=AXIS2_PLACEMENT_3D('',#1406,#1142,#1143);
#955=AXIS2_PLACEMENT_3D('',#1412,#1147,#1148);
#956=AXIS2_PLACEMENT_3D('',#1414,#1149,#1150);
#957=AXIS2_PLACEMENT_3D('',#1416,#1151,#1152);
#958=AXIS2_PLACEMENT_3D('',#1418,#1154,#1155);
#959=AXIS2_PLACEMENT_3D('',#1424,#1159,#1160);
#960=AXIS2_PLACEMENT_3D('',#1426,#1161,#1162);
#961=AXIS2_PLACEMENT_3D('',#1428,#1163,#1164);
#962=AXIS2_PLACEMENT_3D('',#1430,#1166,#1167);
#963=AXIS2_PLACEMENT_3D('',#1436,#1171,#1172);
#964=AXIS2_PLACEMENT_3D('',#1438,#1173,#1174);
#965=AXIS2_PLACEMENT_3D('',#1440,#1175,#1176);
#966=AXIS2_PLACEMENT_3D('',#1442,#1178,#1179);
#967=AXIS2_PLACEMENT_3D('',#1448,#1183,#1184);
#968=AXIS2_PLACEMENT_3D('',#1450,#1185,#1186);
#969=AXIS2_PLACEMENT_3D('',#1452,#1187,#1188);
#970=AXIS2_PLACEMENT_3D('',#1454,#1190,#1191);
#971=AXIS2_PLACEMENT_3D('',#1456,#1192,#1193);
#972=AXIS2_PLACEMENT_3D('',#1458,#1194,#1195);
#973=AXIS2_PLACEMENT_3D('',#1460,#1197,#1198);
#974=AXIS2_PLACEMENT_3D('',#1466,#1202,#1203);
#975=AXIS2_PLACEMENT_3D('',#1468,#1204,#1205);
#976=AXIS2_PLACEMENT_3D('',#1470,#1206,#1207);
#977=AXIS2_PLACEMENT_3D('',#1472,#1209,#1210);
#978=AXIS2_PLACEMENT_3D('',#1478,#1214,#1215);
#979=AXIS2_PLACEMENT_3D('',#1480,#1216,#1217);
#980=AXIS2_PLACEMENT_3D('',#1482,#1218,#1219);
#981=AXIS2_PLACEMENT_3D('',#1484,#1221,#1222);
#982=AXIS2_PLACEMENT_3D('',#1486,#1223,#1224);
#983=AXIS2_PLACEMENT_3D('',#1488,#1225,#1226);
#984=AXIS2_PLACEMENT_3D('',#1490,#1228,#1229);
#985=AXIS2_PLACEMENT_3D('',#1496,#1233,#1234);
#986=AXIS2_PLACEMENT_3D('',#1502,#1238,#1239);
#987=AXIS2_PLACEMENT_3D('',#1508,#1243,#1244);
#988=AXIS2_PLACEMENT_3D('',#1510,#1245,#1246);
#989=AXIS2_PLACEMENT_3D('',#1512,#1247,#1248);
#990=AXIS2_PLACEMENT_3D('',#1514,#1250,#1251);
#991=AXIS2_PLACEMENT_3D('',#1517,#1254,#1255);
#992=AXIS2_PLACEMENT_3D('',#1518,#1256,#1257);
#993=DIRECTION('axis',(0.,0.,1.));
#994=DIRECTION('refdir',(1.,0.,0.));
#995=DIRECTION('center_axis',(0.,0.,-1.));
#996=DIRECTION('ref_axis',(0.,1.,0.));
#997=DIRECTION('',(0.,1.,0.));
#998=DIRECTION('',(1.,0.,0.));
#999=DIRECTION('',(0.,1.,0.));
#1000=DIRECTION('',(1.,0.,0.));
#1001=DIRECTION('center_axis',(1.,0.,0.));
#1002=DIRECTION('ref_axis',(0.,0.,1.));
#1003=DIRECTION('center_axis',(-1.,0.,-2.22044604925031E-16));
#1004=DIRECTION('ref_axis',(-2.22044604925031E-16,0.,1.));
#1005=DIRECTION('center_axis',(-1.,0.,-2.22044604925031E-16));
#1006=DIRECTION('ref_axis',(-2.22044604925031E-16,0.,1.));
#1007=DIRECTION('',(1.,0.,0.));
#1008=DIRECTION('center_axis',(0.,0.,1.));
#1009=DIRECTION('ref_axis',(0.,-1.,0.));
#1010=DIRECTION('',(0.,-1.,0.));
#1011=DIRECTION('',(0.,-1.,0.));
#1012=DIRECTION('',(1.,0.,0.));
#1013=DIRECTION('center_axis',(1.,0.,0.));
#1014=DIRECTION('ref_axis',(0.,0.,-1.));
#1015=DIRECTION('center_axis',(-1.,0.,-2.22044604925031E-16));
#1016=DIRECTION('ref_axis',(2.22044604925031E-16,0.,-1.));
#1017=DIRECTION('center_axis',(-1.,0.,-2.22044604925031E-16));
#1018=DIRECTION('ref_axis',(2.22044604925031E-16,0.,-1.));
#1019=DIRECTION('center_axis',(0.,-1.,0.));
#1020=DIRECTION('ref_axis',(2.22044604925031E-16,0.,-1.));
#1021=DIRECTION('',(2.22044604925031E-16,0.,-1.));
#1022=DIRECTION('',(1.,0.,0.));
#1023=DIRECTION('',(2.22044604925031E-16,0.,-1.));
#1024=DIRECTION('',(1.,0.,0.));
#1025=DIRECTION('center_axis',(1.,0.,0.));
#1026=DIRECTION('ref_axis',(0.,1.,0.));
#1027=DIRECTION('center_axis',(-1.,0.,-2.22044604925031E-16));
#1028=DIRECTION('ref_axis',(0.,1.,0.));
#1029=DIRECTION('center_axis',(-1.,0.,-2.22044604925031E-16));
#1030=DIRECTION('ref_axis',(0.,1.,0.));
#1031=DIRECTION('',(1.,0.,0.));
#1032=DIRECTION('center_axis',(0.,1.,0.));
#1033=DIRECTION('ref_axis',(-2.22044604925031E-16,0.,1.));
#1034=DIRECTION('',(-2.22044604925031E-16,0.,1.));
#1035=DIRECTION('',(-2.22044604925031E-16,0.,1.));
#1036=DIRECTION('',(1.,0.,0.));
#1037=DIRECTION('center_axis',(1.,0.,0.));
#1038=DIRECTION('ref_axis',(0.,-1.,0.));
#1039=DIRECTION('center_axis',(-1.,0.,-2.22044604925031E-16));
#1040=DIRECTION('ref_axis',(0.,-1.,0.));
#1041=DIRECTION('center_axis',(-1.,0.,-2.22044604925031E-16));
#1042=DIRECTION('ref_axis',(0.,-1.,0.));
#1043=DIRECTION('center_axis',(1.,0.,0.));
#1044=DIRECTION('ref_axis',(0.,0.490235088594142,-0.871590246567212));
#1045=DIRECTION('center_axis',(1.,-2.50159626823383E-47,2.22044604925031E-16));
#1046=DIRECTION('ref_axis',(1.93531911955527E-16,0.490235088594142,-0.871590246567212));
#1047=DIRECTION('',(1.,0.,0.));
#1048=DIRECTION('center_axis',(1.,-2.50159626823383E-47,2.22044604925031E-16));
#1049=DIRECTION('ref_axis',(1.93531911955527E-16,0.490235088594142,-0.871590246567212));
#1050=DIRECTION('',(1.,0.,0.));
#1051=DIRECTION('center_axis',(0.,0.0853063701483956,-0.996354767746963));
#1052=DIRECTION('ref_axis',(-1.8941819257189E-17,0.996354767746963,0.0853063701483956));
#1053=DIRECTION('',(-1.8941819257189E-17,0.996354767746963,0.0853063701483956));
#1054=DIRECTION('',(-1.8941819257189E-17,0.996354767746963,0.0853063701483956));
#1055=DIRECTION('',(1.,0.,0.));
#1056=DIRECTION('center_axis',(1.,0.,0.));
#1057=DIRECTION('ref_axis',(0.,-0.0853063701483978,0.996354767746963));
#1058=DIRECTION('center_axis',(1.,-1.84634019875273E-47,2.22044604925031E-16));
#1059=DIRECTION('ref_axis',(-2.21235200769546E-16,-0.0853063701483978,0.996354767746963));
#1060=DIRECTION('center_axis',(-1.,1.84634019875273E-47,-2.22044604925031E-16));
#1061=DIRECTION('ref_axis',(-2.21235200769546E-16,-0.0853063701483978,0.996354767746963));
#1062=DIRECTION('',(1.,0.,0.));
#1063=DIRECTION('center_axis',(1.,0.,0.));
#1064=DIRECTION('ref_axis',(0.,0.826084826825298,0.563545791297404));
#1065=DIRECTION('center_axis',(1.,-1.50728046775042E-47,2.22044604925031E-16));
#1066=DIRECTION('ref_axis',(-1.25132302585796E-16,0.826084826825298,0.563545791297404));
#1067=DIRECTION('center_axis',(-1.,1.50728046775042E-47,-2.22044604925031E-16));
#1068=DIRECTION('ref_axis',(-1.25132302585796E-16,0.826084826825298,0.563545791297404));
#1069=DIRECTION('',(1.,0.,0.));
#1070=DIRECTION('center_axis',(0.,-0.99999999999671,-2.56527195497213E-6));
#1071=DIRECTION('ref_axis',(2.22044604924301E-16,2.56527195497213E-6,-0.99999999999671));
#1072=DIRECTION('',(2.22044604924301E-16,2.56527195497213E-6,-0.99999999999671));
#1073=DIRECTION('',(2.22044604924301E-16,2.56527195497213E-6,-0.99999999999671));
#1074=DIRECTION('',(1.,0.,0.));
#1075=DIRECTION('center_axis',(1.,0.,0.));
#1076=DIRECTION('ref_axis',(0.,0.99999999999671,2.56527195732461E-6));
#1077=DIRECTION('center_axis',(1.,0.,2.22044604925031E-16));
#1078=DIRECTION('ref_axis',(-5.69604798289406E-22,0.99999999999671,2.56527195732461E-6));
#1079=DIRECTION('center_axis',(-1.,0.,-2.22044604925031E-16));
#1080=DIRECTION('ref_axis',(-5.69604798289406E-22,0.99999999999671,2.56527195732461E-6));
#1081=DIRECTION('',(1.,0.,0.));
#1082=DIRECTION('center_axis',(0.,0.99999999999671,2.5652719584971E-6));
#1083=DIRECTION('ref_axis',(-2.22044604924301E-16,-2.5652719584971E-6,0.99999999999671));
#1084=DIRECTION('',(-2.22044604924301E-16,-2.5652719584971E-6,0.99999999999671));
#1085=DIRECTION('',(-2.22044604924301E-16,-2.5652719584971E-6,0.99999999999671));
#1086=DIRECTION('',(1.,0.,0.));
#1087=DIRECTION('center_axis',(1.,0.,0.));
#1088=DIRECTION('ref_axis',(0.,-0.0750025580467067,0.997183341360279));
#1089=DIRECTION('center_axis',(1.,2.03646345344027E-32,2.22044604925031E-16));
#1090=DIRECTION('ref_axis',(-2.21419181070166E-16,-0.0750025580467067,0.997183341360279));
#1091=DIRECTION('center_axis',(-1.,-2.03646345344027E-32,-2.22044604925031E-16));
#1092=DIRECTION('ref_axis',(-2.21419181070166E-16,-0.0750025580467067,0.997183341360279));
#1093=DIRECTION('',(1.,0.,0.));
#1094=DIRECTION('center_axis',(0.,-0.499997778407674,-0.866026686417567));
#1095=DIRECTION('ref_axis',(1.11021809169925E-16,0.866026686417567,-0.499997778407674));
#1096=DIRECTION('',(1.11021809169925E-16,0.866026686417567,-0.499997778407674));
#1097=DIRECTION('',(1.11021809169925E-16,0.866026686417567,-0.499997778407674));
#1098=DIRECTION('',(1.,0.,0.));
#1099=DIRECTION('center_axis',(1.,0.,0.));
#1100=DIRECTION('ref_axis',(0.,0.499997778407675,0.866026686417566));
#1101=DIRECTION('center_axis',(1.,0.,2.22044604925031E-16));
#1102=DIRECTION('ref_axis',(-1.92296553440122E-16,0.499997778407675,0.866026686417566));
#1103=DIRECTION('center_axis',(-1.,0.,-2.22044604925031E-16));
#1104=DIRECTION('ref_axis',(-1.92296553440122E-16,0.499997778407675,0.866026686417566));
#1105=DIRECTION('',(1.,0.,0.));
#1106=DIRECTION('center_axis',(0.,0.499997778407677,0.866026686417565));
#1107=DIRECTION('ref_axis',(-1.11021809169926E-16,-0.866026686417565,0.499997778407677));
#1108=DIRECTION('',(-1.11021809169926E-16,-0.866026686417565,0.499997778407677));
#1109=DIRECTION('',(-1.11021809169926E-16,-0.866026686417565,0.499997778407677));
#1110=DIRECTION('',(1.,0.,0.));
#1111=DIRECTION('center_axis',(1.,0.,0.));
#1112=DIRECTION('ref_axis',(0.,-0.901087384872005,0.433637550062874));
#1113=DIRECTION('center_axis',(1.,2.22134642202823E-32,2.22044604925031E-16));
#1114=DIRECTION('ref_axis',(-9.62868784843693E-17,-0.901087384872005,0.433637550062874));
#1115=DIRECTION('center_axis',(-1.,-2.22134642202823E-32,-2.22044604925031E-16));
#1116=DIRECTION('ref_axis',(-9.62868784843693E-17,-0.901087384872005,0.433637550062874));
#1117=DIRECTION('',(1.,0.,0.));
#1118=DIRECTION('center_axis',(0.,0.500002221589035,-0.866024121145612));
#1119=DIRECTION('ref_axis',(-1.11022795754375E-16,0.866024121145612,0.500002221589035));
#1120=DIRECTION('',(-1.11022795754375E-16,0.866024121145612,0.500002221589035));
#1121=DIRECTION('',(-1.11022795754375E-16,0.866024121145612,0.500002221589035));
#1122=DIRECTION('',(1.,0.,0.));
#1123=DIRECTION('center_axis',(1.,0.,0.));
#1124=DIRECTION('ref_axis',(0.,-0.500002221589035,0.866024121145612));
#1125=DIRECTION('center_axis',(1.,0.,2.22044604925031E-16));
#1126=DIRECTION('ref_axis',(-1.92295983835325E-16,-0.500002221589035,0.866024121145612));
#1127=DIRECTION('center_axis',(-1.,0.,-2.22044604925031E-16));
#1128=DIRECTION('ref_axis',(-1.92295983835325E-16,-0.500002221589035,0.866024121145612));
#1129=DIRECTION('',(1.,0.,0.));
#1130=DIRECTION('center_axis',(0.,-0.500002221589035,0.866024121145612));
#1131=DIRECTION('ref_axis',(1.11022795754375E-16,-0.866024121145612,-0.500002221589035));
#1132=DIRECTION('',(1.11022795754375E-16,-0.866024121145612,-0.500002221589035));
#1133=DIRECTION('',(1.11022795754375E-16,-0.866024121145612,-0.500002221589035));
#1134=DIRECTION('',(1.,0.,0.));
#1135=DIRECTION('center_axis',(1.,0.,0.));
#1136=DIRECTION('ref_axis',(0.,-0.826084826825298,-0.563545791297403));
#1137=DIRECTION('center_axis',(1.,1.50728046775042E-47,2.22044604925031E-16));
#1138=DIRECTION('ref_axis',(1.25132302585796E-16,-0.826084826825298,-0.563545791297403));
#1139=DIRECTION('center_axis',(-1.,-1.50728046775042E-47,-2.22044604925031E-16));
#1140=DIRECTION('ref_axis',(1.25132302585796E-16,-0.826084826825298,-0.563545791297403));
#1141=DIRECTION('',(1.,0.,0.));
#1142=DIRECTION('center_axis',(0.,0.99999999999671,2.56527195418881E-6));
#1143=DIRECTION('ref_axis',(-2.22044604924301E-16,-2.56527195418881E-6,
0.99999999999671));
#1144=DIRECTION('',(-2.22044604924301E-16,-2.56527195418881E-6,0.99999999999671));
#1145=DIRECTION('',(-2.22044604924301E-16,-2.56527195418881E-6,0.99999999999671));
#1146=DIRECTION('',(1.,0.,0.));
#1147=DIRECTION('center_axis',(1.,0.,0.));
#1148=DIRECTION('ref_axis',(0.,-0.99999999999671,-2.56527195140342E-6));
#1149=DIRECTION('center_axis',(1.,0.,2.22044604925031E-16));
#1150=DIRECTION('ref_axis',(5.69604796974637E-22,-0.99999999999671,-2.56527195140342E-6));
#1151=DIRECTION('center_axis',(-1.,0.,-2.22044604925031E-16));
#1152=DIRECTION('ref_axis',(5.69604796974637E-22,-0.99999999999671,-2.56527195140342E-6));
#1153=DIRECTION('',(1.,0.,0.));
#1154=DIRECTION('center_axis',(0.,-0.99999999999671,-2.56527195497213E-6));
#1155=DIRECTION('ref_axis',(2.22044604924301E-16,2.56527195497213E-6,-0.99999999999671));
#1156=DIRECTION('',(2.22044604924301E-16,2.56527195497213E-6,-0.99999999999671));
#1157=DIRECTION('',(2.22044604924301E-16,2.56527195497213E-6,-0.99999999999671));
#1158=DIRECTION('',(1.,0.,0.));
#1159=DIRECTION('center_axis',(1.,0.,0.));
#1160=DIRECTION('ref_axis',(0.,0.075002558046705,-0.997183341360279));
#1161=DIRECTION('center_axis',(1.,-1.36850220587605E-48,2.22044604925031E-16));
#1162=DIRECTION('ref_axis',(2.21419181070166E-16,0.075002558046705,-0.997183341360279));
#1163=DIRECTION('center_axis',(-1.,1.36850220587605E-48,-2.22044604925031E-16));
#1164=DIRECTION('ref_axis',(2.21419181070166E-16,0.075002558046705,-0.997183341360279));
#1165=DIRECTION('',(1.,0.,0.));
#1166=DIRECTION('center_axis',(0.,0.999999999496974,-3.17183121535458E-5));
#1167=DIRECTION('ref_axis',(-2.22044604813337E-16,3.17183121535458E-5,0.999999999496974));
#1168=DIRECTION('',(-2.22044604813337E-16,3.17183121535458E-5,0.999999999496974));
#1169=DIRECTION('',(-2.22044604813337E-16,3.17183121535458E-5,0.999999999496974));
#1170=DIRECTION('',(1.,0.,0.));
#1171=DIRECTION('center_axis',(1.,0.,0.));
#1172=DIRECTION('ref_axis',(0.,0.070588822719223,-0.997505497782902));
#1173=DIRECTION('center_axis',(1.,-1.00425124479156E-61,2.22044604925031E-16));
#1174=DIRECTION('ref_axis',(2.21490714165751E-16,0.070588822719223,-0.997505497782902));
#1175=DIRECTION('center_axis',(1.,-1.00425124479156E-61,2.22044604925031E-16));
#1176=DIRECTION('ref_axis',(2.21490714165751E-16,0.070588822719223,-0.997505497782902));
#1177=DIRECTION('',(1.,0.,0.));
#1178=DIRECTION('center_axis',(0.,0.0705888227192263,-0.997505497782901));
#1179=DIRECTION('ref_axis',(-1.56738672528137E-17,0.997505497782901,0.0705888227192263));
#1180=DIRECTION('',(-1.56738672528137E-17,0.997505497782901,0.0705888227192263));
#1181=DIRECTION('',(-1.56738672528137E-17,0.997505497782901,0.0705888227192263));
#1182=DIRECTION('',(1.,0.,0.));
#1183=DIRECTION('center_axis',(1.,0.,0.));
#1184=DIRECTION('ref_axis',(0.,0.127541989436857,0.99183317192484));
#1185=DIRECTION('center_axis',(1.,0.,2.22044604925031E-16));
#1186=DIRECTION('ref_axis',(-2.20231204811592E-16,0.127541989436857,0.99183317192484));
#1187=DIRECTION('center_axis',(-1.,0.,-2.22044604925031E-16));
#1188=DIRECTION('ref_axis',(-2.20231204811592E-16,0.127541989436857,0.99183317192484));
#1189=DIRECTION('',(1.,0.,0.));
#1190=DIRECTION('center_axis',(1.,0.,0.));
#1191=DIRECTION('ref_axis',(0.,-1.77635683940025E-15,-1.));
#1192=DIRECTION('center_axis',(1.,0.,2.22044604925031E-16));
#1193=DIRECTION('ref_axis',(2.22044604925031E-16,-1.77635683940025E-15,
-1.));
#1194=DIRECTION('center_axis',(1.,0.,2.22044604925031E-16));
#1195=DIRECTION('ref_axis',(2.22044604925031E-16,-1.77635683940025E-15,
-1.));
#1196=DIRECTION('',(1.,0.,0.));
#1197=DIRECTION('center_axis',(0.,0.,-1.));
#1198=DIRECTION('ref_axis',(0.,1.,0.));
#1199=DIRECTION('',(0.,1.,0.));
#1200=DIRECTION('',(0.,1.,0.));
#1201=DIRECTION('',(1.,0.,0.));
#1202=DIRECTION('center_axis',(1.,0.,0.));
#1203=DIRECTION('ref_axis',(0.,-1.,0.));
#1204=DIRECTION('center_axis',(1.,0.,2.22044604925031E-16));
#1205=DIRECTION('ref_axis',(0.,-1.,0.));
#1206=DIRECTION('center_axis',(1.,0.,2.22044604925031E-16));
#1207=DIRECTION('ref_axis',(0.,-1.,0.));
#1208=DIRECTION('',(1.,0.,0.));
#1209=DIRECTION('center_axis',(0.,-1.,0.));
#1210=DIRECTION('ref_axis',(2.22044604925031E-16,0.,-1.));
#1211=DIRECTION('',(-2.22044604925031E-16,0.,1.));
#1212=DIRECTION('',(2.22044604925031E-16,0.,-1.));
#1213=DIRECTION('',(1.,0.,0.));
#1214=DIRECTION('center_axis',(1.,0.,0.));
#1215=DIRECTION('ref_axis',(0.,-0.505738671383021,0.862686731245901));
#1216=DIRECTION('center_axis',(1.,-1.23325177281769E-47,2.22044604925031E-16));
#1217=DIRECTION('ref_axis',(-1.91554934413563E-16,-0.505738671383021,0.862686731245901));
#1218=DIRECTION('center_axis',(1.,-1.23325177281769E-47,2.22044604925031E-16));
#1219=DIRECTION('ref_axis',(-1.91554934413563E-16,-0.505738671383021,0.862686731245901));
#1220=DIRECTION('',(1.,0.,0.));
#1221=DIRECTION('center_axis',(1.,0.,0.));
#1222=DIRECTION('ref_axis',(0.,-4.93432455388959E-16,1.));
#1223=DIRECTION('center_axis',(1.,-2.7992280361093E-46,2.22044604925031E-16));
#1224=DIRECTION('ref_axis',(-2.22044604925031E-16,-4.93432455388959E-16,
1.));
#1225=DIRECTION('center_axis',(1.,-2.7992280361093E-46,2.22044604925031E-16));
#1226=DIRECTION('ref_axis',(-2.22044604925031E-16,-4.93432455388959E-16,
1.));
#1227=DIRECTION('',(1.,0.,0.));
#1228=DIRECTION('center_axis',(0.,0.,1.));
#1229=DIRECTION('ref_axis',(0.,-1.,0.));
#1230=DIRECTION('',(0.,1.,0.));
#1231=DIRECTION('',(0.,-1.,0.));
#1232=DIRECTION('',(1.,0.,0.));
#1233=DIRECTION('center_axis',(0.,-7.45057446893989E-7,0.999999999999722));
#1234=DIRECTION('ref_axis',(1.65435986442028E-22,-0.999999999999723,-7.45057446893989E-7));
#1235=DIRECTION('',(1.65435986442028E-22,-0.999999999999723,-7.45057446893989E-7));
#1236=DIRECTION('',(1.65435986442028E-22,-0.999999999999723,-7.45057446893989E-7));
#1237=DIRECTION('',(1.,0.,0.));
#1238=DIRECTION('center_axis',(0.,0.,1.));
#1239=DIRECTION('ref_axis',(0.,-1.,0.));
#1240=DIRECTION('',(0.,-1.,0.));
#1241=DIRECTION('',(0.,-1.,0.));
#1242=DIRECTION('',(1.,0.,0.));
#1243=DIRECTION('center_axis',(1.,0.,0.));
#1244=DIRECTION('ref_axis',(0.,1.,-7.1054273576011E-15));
#1245=DIRECTION('center_axis',(1.,0.,2.22044604925031E-16));
#1246=DIRECTION('ref_axis',(1.57772181044205E-30,1.,-7.1054273576011E-15));
#1247=DIRECTION('center_axis',(1.,0.,2.22044604925031E-16));
#1248=DIRECTION('ref_axis',(1.57772181044205E-30,1.,-7.1054273576011E-15));
#1249=DIRECTION('',(1.,0.,0.));
#1250=DIRECTION('center_axis',(0.,1.,0.));
#1251=DIRECTION('ref_axis',(-2.22044604925031E-16,0.,1.));
#1252=DIRECTION('',(-2.22044604925031E-16,0.,1.));
#1253=DIRECTION('',(-2.22044604925031E-16,0.,1.));
#1254=DIRECTION('center_axis',(1.,2.22134642202823E-32,2.22044604925031E-16));
#1255=DIRECTION('ref_axis',(2.22044604925031E-16,0.,-1.));
#1256=DIRECTION('center_axis',(1.,2.22134642202823E-32,2.22044604925031E-16));
#1257=DIRECTION('ref_axis',(2.22044604925031E-16,0.,-1.));
#1258=CARTESIAN_POINT('',(0.,0.,0.));
#1259=CARTESIAN_POINT('Origin',(4.99999999999998,123.000001832843,121.000001803041));
#1260=CARTESIAN_POINT('',(4.99999999999998,123.000001832843,121.000001803041));
#1261=CARTESIAN_POINT('',(4.99999999999998,133.000000000149,121.000001803041));
#1262=CARTESIAN_POINT('',(4.99999999999998,133.000000000149,121.000001803041));
#1263=CARTESIAN_POINT('',(9.99999999999998,133.000000000149,121.000001803041));
#1264=CARTESIAN_POINT('',(4.99999999999998,133.000000000149,121.000001803041));
#1265=CARTESIAN_POINT('',(9.99999999999998,123.000001832843,121.000001803041));
#1266=CARTESIAN_POINT('',(9.99999999999998,133.000000000149,121.000001803041));
#1267=CARTESIAN_POINT('',(4.99999999999998,123.000001832843,121.000001803041));
#1268=CARTESIAN_POINT('Origin',(4.99999999999998,123.000001832843,115.));
#1269=CARTESIAN_POINT('',(4.99999999999998,123.000001832843,108.999998196959));
#1270=CARTESIAN_POINT('Origin',(4.99999999999998,123.000001832843,115.));
#1271=CARTESIAN_POINT('',(9.99999999999998,123.000001832843,108.999998196959));
#1272=CARTESIAN_POINT('Origin',(9.99999999999998,123.000001832843,115.));
#1273=CARTESIAN_POINT('',(4.99999999999998,123.000001832843,108.999998196959));
#1274=CARTESIAN_POINT('Origin',(4.99999999999998,133.000000000149,108.999998196959));
#1275=CARTESIAN_POINT('',(4.99999999999998,133.000000000149,108.999998196959));
#1276=CARTESIAN_POINT('',(4.99999999999998,123.000001832843,108.999998196959));
#1277=CARTESIAN_POINT('',(9.99999999999998,133.000000000149,108.999998196959));
#1278=CARTESIAN_POINT('',(9.99999999999998,123.000001832843,108.999998196959));
#1279=CARTESIAN_POINT('',(4.99999999999998,133.000000000149,108.999998196959));
#1280=CARTESIAN_POINT('Origin',(4.99999999999998,133.000000000149,115.));
#1281=CARTESIAN_POINT('Origin',(4.99999999999998,133.000000000149,115.));
#1282=CARTESIAN_POINT('Origin',(9.99999999999998,133.000000000149,115.));
#1283=CARTESIAN_POINT('Origin',(5.00000000000003,-76.999999999851,-100.));
#1284=CARTESIAN_POINT('',(5.00000000000003,-76.999999999851,-100.));
#1285=CARTESIAN_POINT('',(5.00000000000003,-76.999999999851,-125.000076958159));
#1286=CARTESIAN_POINT('',(5.00000000000003,-76.999999999851,-125.000076958159));
#1287=CARTESIAN_POINT('',(10.,-76.999999999851,-125.000076958159));
#1288=CARTESIAN_POINT('',(5.00000000000003,-76.999999999851,-125.000076958159));
#1289=CARTESIAN_POINT('',(10.,-76.999999999851,-100.));
#1290=CARTESIAN_POINT('',(10.,-76.999999999851,-125.000076958159));
#1291=CARTESIAN_POINT('',(5.00000000000003,-76.999999999851,-100.));
#1292=CARTESIAN_POINT('Origin',(5.00000000000003,-81.999999999851,-100.));
#1293=CARTESIAN_POINT('',(5.00000000000003,-86.999999999851,-100.));
#1294=CARTESIAN_POINT('Origin',(5.00000000000003,-81.999999999851,-100.));
#1295=CARTESIAN_POINT('',(10.,-86.999999999851,-100.));
#1296=CARTESIAN_POINT('Origin',(10.,-81.999999999851,-100.));
#1297=CARTESIAN_POINT('',(5.00000000000003,-86.999999999851,-100.));
#1298=CARTESIAN_POINT('Origin',(5.00000000000003,-86.999999999851,-125.000076958159));
#1299=CARTESIAN_POINT('',(5.00000000000003,-86.999999999851,-125.000076958159));
#1300=CARTESIAN_POINT('',(5.00000000000003,-86.999999999851,-100.));
#1301=CARTESIAN_POINT('',(10.,-86.999999999851,-125.000076958159));
#1302=CARTESIAN_POINT('',(10.,-86.999999999851,-100.));
#1303=CARTESIAN_POINT('',(5.00000000000003,-86.999999999851,-125.000076958159));
#1304=CARTESIAN_POINT('Origin',(5.00000000000003,-81.999999999851,-125.000076958159));
#1305=CARTESIAN_POINT('Origin',(5.00000000000003,-81.999999999851,-125.000076958159));
#1306=CARTESIAN_POINT('Origin',(10.,-81.999999999851,-125.000076958159));
#1307=CARTESIAN_POINT('Origin',(4.99999999999998,140.500002130866,106.474047307417));
#1308=CARTESIAN_POINT('',(4.99999999999998,141.725589852351,104.295071690999));
#1309=CARTESIAN_POINT('',(4.99999999999998,143.000002130866,106.474047307417));
#1310=CARTESIAN_POINT('Origin',(4.99999999999998,140.500002130866,106.474047307417));
#1311=CARTESIAN_POINT('',(9.99999999999998,143.000002130866,106.474047307417));
#1312=CARTESIAN_POINT('',(4.99999999999998,143.000002130866,106.474047307417));
#1313=CARTESIAN_POINT('',(9.99999999999998,141.725589852351,104.295071690999));
#1314=CARTESIAN_POINT('Origin',(9.99999999999998,140.500002130866,106.474047307417));
#1315=CARTESIAN_POINT('',(4.99999999999998,141.725589852351,104.295071690999));
#1316=CARTESIAN_POINT('Origin',(4.99999999999998,47.4199912097148,96.2207706836719));
#1317=CARTESIAN_POINT('',(4.99999999999998,47.4199912097148,96.2207706836719));
#1318=CARTESIAN_POINT('',(4.99999999999998,47.4199912097148,96.2207706836719));
#1319=CARTESIAN_POINT('',(9.99999999999998,47.4199912097148,96.2207706836719));
#1320=CARTESIAN_POINT('',(9.99999999999998,47.4199912097148,96.2207706836719));
#1321=CARTESIAN_POINT('',(4.99999999999998,47.4199912097148,96.2207706836719));
#1322=CARTESIAN_POINT('Origin',(4.99999999999999,49.9791823141667,66.330127651263));
#1323=CARTESIAN_POINT('',(4.99999999999999,20.9730461085762,73.9880687859762));
#1324=CARTESIAN_POINT('Origin',(4.99999999999999,49.9791823141667,66.330127651263));
#1325=CARTESIAN_POINT('',(9.99999999999999,20.9730461085762,73.9880687859762));
#1326=CARTESIAN_POINT('Origin',(9.99999999999999,49.9791823141667,66.330127651263));
#1327=CARTESIAN_POINT('',(4.99999999999999,20.9730461085762,73.9880687859762));
#1328=CARTESIAN_POINT('Origin',(5.,10.,15.));
#1329=CARTESIAN_POINT('',(4.99999999999999,14.499846517168,74.8310235690643));
#1330=CARTESIAN_POINT('Origin',(5.,10.,15.));
#1331=CARTESIAN_POINT('',(9.99999999999999,14.499846517168,74.8310235690643));
#1332=CARTESIAN_POINT('Origin',(10.,10.,15.));
#1333=CARTESIAN_POINT('',(4.99999999999999,14.499846517168,74.8310235690643));
#1334=CARTESIAN_POINT('Origin',(4.99999999999999,14.4998319739256,80.5003025733961));
#1335=CARTESIAN_POINT('',(4.99999999999999,14.4998319739256,80.5003025733961));
#1336=CARTESIAN_POINT('',(4.99999999999999,14.4998319739256,80.5003025733961));
#1337=CARTESIAN_POINT('',(9.99999999999999,14.4998319739256,80.5003025733961));
#1338=CARTESIAN_POINT('',(9.99999999999999,14.4998319739256,80.5003025733961));
#1339=CARTESIAN_POINT('',(4.99999999999999,14.4998319739256,80.5003025733961));
#1340=CARTESIAN_POINT('Origin',(4.99999999999999,9.99983197394039,80.5002910296723));
#1341=CARTESIAN_POINT('',(4.99999999999999,5.4998319739552,80.5002794859485));
#1342=CARTESIAN_POINT('Origin',(4.99999999999999,9.99983197394039,80.5002910296723));
#1343=CARTESIAN_POINT('',(9.99999999999999,5.4998319739552,80.5002794859485));
#1344=CARTESIAN_POINT('Origin',(9.99999999999999,9.99983197394039,80.5002910296723));
#1345=CARTESIAN_POINT('',(4.99999999999999,5.4998319739552,80.5002794859485));
#1346=CARTESIAN_POINT('Origin',(4.99999999999999,5.49984651719764,74.8310004816167));
#1347=CARTESIAN_POINT('',(4.99999999999999,5.49984651719764,74.8310004816167));
#1348=CARTESIAN_POINT('',(4.99999999999999,5.49984651719764,74.8310004816167));
#1349=CARTESIAN_POINT('',(9.99999999999999,5.49984651719765,74.8310004816167));
#1350=CARTESIAN_POINT('',(9.99999999999999,5.49984651719764,74.8310004816167));
#1351=CARTESIAN_POINT('',(4.99999999999999,5.49984651719764,74.8310004816167));
#1352=CARTESIAN_POINT('Origin',(5.,10.,15.));
#1353=CARTESIAN_POINT('',(4.99999999999999,-39.5652630866512,48.8124931815306));
#1354=CARTESIAN_POINT('Origin',(5.,10.,15.));
#1355=CARTESIAN_POINT('',(9.99999999999999,-39.5652630866512,48.8124931815306));
#1356=CARTESIAN_POINT('Origin',(10.,10.,15.));
#1357=CARTESIAN_POINT('',(4.99999999999999,-39.5652630866512,48.8124931815306));
#1358=CARTESIAN_POINT('Origin',(4.99999999999999,-44.4750099971655,51.6471200888791));
#1359=CARTESIAN_POINT('',(4.99999999999999,-44.4750099971655,51.6471200888791));
#1360=CARTESIAN_POINT('',(4.99999999999999,-44.4750099971655,51.6471200888791));
#1361=CARTESIAN_POINT('',(9.99999999999999,-44.4750099971655,51.6471200888791));
#1362=CARTESIAN_POINT('',(9.99999999999999,-44.4750099971655,51.6471200888791));
#1363=CARTESIAN_POINT('',(4.99999999999999,-44.4750099971655,51.6471200888791));
#1364=CARTESIAN_POINT('Origin',(4.99999999999999,-46.725,47.75));
#1365=CARTESIAN_POINT('',(4.99999999999999,-48.9749900609062,43.8528799446484));
#1366=CARTESIAN_POINT('Origin',(4.99999999999999,-46.725,47.75));
#1367=CARTESIAN_POINT('',(9.99999999999999,-48.9749900609062,43.8528799446484));
#1368=CARTESIAN_POINT('Origin',(9.99999999999999,-46.725,47.75));
#1369=CARTESIAN_POINT('',(4.99999999999999,-48.9749900609062,43.8528799446484));
#1370=CARTESIAN_POINT('Origin',(4.99999999999999,-44.0652430923203,41.0182530037725));
#1371=CARTESIAN_POINT('',(4.99999999999999,-44.0652430923203,41.0182530037725));
#1372=CARTESIAN_POINT('',(4.99999999999999,-44.0652430923203,41.0182530037725));
#1373=CARTESIAN_POINT('',(9.99999999999999,-44.0652430923203,41.0182530037725));
#1374=CARTESIAN_POINT('',(9.99999999999999,-44.0652430923203,41.0182530037725));
#1375=CARTESIAN_POINT('',(4.99999999999999,-44.0652430923203,41.0182530037725));
#1376=CARTESIAN_POINT('Origin',(5.,10.,15.));
#1377=CARTESIAN_POINT('',(5.00000000000001,-44.0651096038192,-11.0185303875337));
#1378=CARTESIAN_POINT('Origin',(5.,10.,15.));
#1379=CARTESIAN_POINT('',(10.,-44.0651096038192,-11.0185303875337));
#1380=CARTESIAN_POINT('Origin',(10.,10.,15.));
#1381=CARTESIAN_POINT('',(5.00000000000001,-44.0651096038192,-11.0185303875337));
#1382=CARTESIAN_POINT('Origin',(5.00000000000001,-48.9748419710911,-13.853182484517));
#1383=CARTESIAN_POINT('',(5.00000000000001,-48.9748419710911,-13.853182484517));
#1384=CARTESIAN_POINT('',(5.00000000000001,-48.9748419710911,-13.853182484517));
#1385=CARTESIAN_POINT('',(10.,-48.9748419710911,-13.853182484517));
#1386=CARTESIAN_POINT('',(10.,-48.9748419710911,-13.853182484517));
#1387=CARTESIAN_POINT('',(5.00000000000001,-48.9748419710911,-13.853182484517));
#1388=CARTESIAN_POINT('Origin',(5.00000000000001,-46.7248319739404,-17.7502910296723));
#1389=CARTESIAN_POINT('',(5.00000000000001,-44.4748219767897,-21.6473995748275));
#1390=CARTESIAN_POINT('Origin',(5.00000000000001,-46.7248319739404,-17.7502910296723));
#1391=CARTESIAN_POINT('',(10.,-44.4748219767897,-21.6473995748275));
#1392=CARTESIAN_POINT('Origin',(10.,-46.7248319739404,-17.7502910296723));
#1393=CARTESIAN_POINT('',(5.00000000000001,-44.4748219767897,-21.6473995748275));
#1394=CARTESIAN_POINT('Origin',(5.00000000000001,-39.5650896095179,-18.8127474778442));
#1395=CARTESIAN_POINT('',(5.00000000000001,-39.5650896095179,-18.8127474778442));
#1396=CARTESIAN_POINT('',(5.00000000000001,-39.5650896095179,-18.8127474778442));
#1397=CARTESIAN_POINT('',(10.,-39.5650896095179,-18.8127474778442));
#1398=CARTESIAN_POINT('',(10.,-39.5650896095179,-18.8127474778442));
#1399=CARTESIAN_POINT('',(5.00000000000001,-39.5650896095179,-18.8127474778442));
#1400=CARTESIAN_POINT('Origin',(5.,10.,15.));
#1401=CARTESIAN_POINT('',(5.00000000000001,5.50015348283196,-44.8310235690644));
#1402=CARTESIAN_POINT('Origin',(5.,10.,15.));
#1403=CARTESIAN_POINT('',(10.,5.50015348283196,-44.8310235690644));
#1404=CARTESIAN_POINT('Origin',(10.,10.,15.));
#1405=CARTESIAN_POINT('',(5.00000000000001,5.50015348283196,-44.8310235690644));
#1406=CARTESIAN_POINT('Origin',(5.00000000000001,5.50016802607439,-50.5003025733961));
#1407=CARTESIAN_POINT('',(5.00000000000001,5.50016802607439,-50.5003025733961));
#1408=CARTESIAN_POINT('',(5.00000000000001,5.50016802607439,-50.5003025733961));
#1409=CARTESIAN_POINT('',(10.,5.50016802607439,-50.5003025733961));
#1410=CARTESIAN_POINT('',(10.,5.50016802607439,-50.5003025733961));
#1411=CARTESIAN_POINT('',(5.00000000000001,5.50016802607439,-50.5003025733961));
#1412=CARTESIAN_POINT('Origin',(5.00000000000001,10.0001680260596,-50.5002910296723));
#1413=CARTESIAN_POINT('',(5.00000000000001,14.5001680260446,-50.5002794188933));
#1414=CARTESIAN_POINT('Origin',(5.00000000000001,10.0001680260596,-50.5002910296723));
#1415=CARTESIAN_POINT('',(10.,14.5001680260446,-50.5002794188933));
#1416=CARTESIAN_POINT('Origin',(10.,10.0001680260596,-50.5002910296723));
#1417=CARTESIAN_POINT('',(5.00000000000001,14.5001680260446,-50.5002794188933));
#1418=CARTESIAN_POINT('Origin',(5.00000000000001,14.5001534828023,-44.8310004816167));
#1419=CARTESIAN_POINT('',(5.00000000000001,14.5001534828023,-44.8310004816167));
#1420=CARTESIAN_POINT('',(5.00000000000001,14.5001534828023,-44.8310004816167));
#1421=CARTESIAN_POINT('',(10.,14.5001534828024,-44.8310004816167));
#1422=CARTESIAN_POINT('',(10.,14.5001534828023,-44.8310004816167));
#1423=CARTESIAN_POINT('',(5.00000000000001,14.5001534828023,-44.8310004816167));
#1424=CARTESIAN_POINT('Origin',(5.,10.,15.));
#1425=CARTESIAN_POINT('',(5.00000000000001,19.9756775831711,-44.1649039275534));
#1426=CARTESIAN_POINT('Origin',(5.,10.,15.));
#1427=CARTESIAN_POINT('',(10.,19.9756775831711,-44.1649039275534));
#1428=CARTESIAN_POINT('Origin',(10.,10.,15.));
#1429=CARTESIAN_POINT('',(5.00000000000001,19.9756775831711,-44.1649039275534));
#1430=CARTESIAN_POINT('Origin',(5.00000000000002,19.975143634232,-60.9989944739811));
#1431=CARTESIAN_POINT('',(5.00000000000002,19.975143634232,-60.9989944739811));
#1432=CARTESIAN_POINT('',(5.00000000000002,19.975143634232,-60.9989944739811));
#1433=CARTESIAN_POINT('',(10.,19.975143634232,-60.9989944739811));
#1434=CARTESIAN_POINT('',(10.,19.975143634232,-60.9989944739811));
#1435=CARTESIAN_POINT('',(5.00000000000002,19.975143634232,-60.9989944739811));
#1436=CARTESIAN_POINT('Origin',(5.00000000000002,16.9751436357411,-60.9988993190446));
#1437=CARTESIAN_POINT('',(5.00000000000002,17.1869101038988,-63.9914158123933));
#1438=CARTESIAN_POINT('Origin',(5.00000000000002,16.9751436357411,-60.9988993190446));
#1439=CARTESIAN_POINT('',(10.,17.1869101038988,-63.9914158123933));
#1440=CARTESIAN_POINT('Origin',(10.,16.9751436357411,-60.9988993190446));
#1441=CARTESIAN_POINT('',(5.00000000000002,17.1869101038988,-63.9914158123933));
#1442=CARTESIAN_POINT('Origin',(5.00000000000002,9.99999999999999,-64.5));
#1443=CARTESIAN_POINT('',(5.00000000000002,9.99999999999999,-64.5));
#1444=CARTESIAN_POINT('',(5.00000000000002,9.99999999999999,-64.5));
#1445=CARTESIAN_POINT('',(10.,9.99999999999998,-64.5));
#1446=CARTESIAN_POINT('',(10.,9.99999999999999,-64.5));
#1447=CARTESIAN_POINT('',(5.00000000000002,9.99999999999999,-64.5));
#1448=CARTESIAN_POINT('Origin',(5.00000000000003,1.00709465415462,-134.43353226943));
#1449=CARTESIAN_POINT('',(5.00000000000003,-69.0165722134576,-126.171730973565));
#1450=CARTESIAN_POINT('Origin',(5.00000000000003,1.00709465415462,-134.43353226943));
#1451=CARTESIAN_POINT('',(10.,-69.0165722134576,-126.171730973565));
#1452=CARTESIAN_POINT('Origin',(10.,1.00709465415462,-134.43353226943));
#1453=CARTESIAN_POINT('',(5.00000000000003,-69.0165722134576,-126.171730973565));
#1454=CARTESIAN_POINT('Origin',(5.00000000000003,-78.9476872830551,-125.));
#1455=CARTESIAN_POINT('',(5.00000000000003,-78.9476872830552,-135.));
#1456=CARTESIAN_POINT('Origin',(5.00000000000003,-78.9476872830551,-125.));
#1457=CARTESIAN_POINT('',(10.,-78.9476872830552,-135.));
#1458=CARTESIAN_POINT('Origin',(10.,-78.9476872830551,-125.));
#1459=CARTESIAN_POINT('',(5.00000000000003,-78.9476872830552,-135.));
#1460=CARTESIAN_POINT('Origin',(5.00000000000003,-84.499999999851,-135.));
#1461=CARTESIAN_POINT('',(5.00000000000003,-84.499999999851,-135.));
#1462=CARTESIAN_POINT('',(5.00000000000003,-84.499999999851,-135.));
#1463=CARTESIAN_POINT('',(10.,-84.499999999851,-135.));
#1464=CARTESIAN_POINT('',(10.,-84.499999999851,-135.));
#1465=CARTESIAN_POINT('',(5.00000000000003,-84.499999999851,-135.));
#1466=CARTESIAN_POINT('Origin',(5.00000000000003,-84.499999999851,-125.));
#1467=CARTESIAN_POINT('',(5.00000000000003,-94.499999999851,-125.));
#1468=CARTESIAN_POINT('Origin',(5.00000000000003,-84.499999999851,-125.));
#1469=CARTESIAN_POINT('',(10.,-94.499999999851,-125.));
#1470=CARTESIAN_POINT('Origin',(10.,-84.499999999851,-125.));
#1471=CARTESIAN_POINT('',(5.00000000000003,-94.499999999851,-125.));
#1472=CARTESIAN_POINT('Origin',(5.00000000000001,-94.499999999851,-43.6304076062424));
#1473=CARTESIAN_POINT('',(5.00000000000001,-94.4999999998509,-43.6304076062423));
#1474=CARTESIAN_POINT('',(5.00000000000003,-94.499999999851,-135.));
#1475=CARTESIAN_POINT('',(10.,-94.4999999998509,-43.6304076062423));
#1476=CARTESIAN_POINT('',(10.,-94.499999999851,-135.));
#1477=CARTESIAN_POINT('',(5.00000000000001,-94.4999999998509,-43.6304076062423));
#1478=CARTESIAN_POINT('Origin',(5.00000000000001,93.8085767157016,-43.6304076062424));
#1479=CARTESIAN_POINT('',(4.99999999999998,-1.4263526824496,118.820902906065));
#1480=CARTESIAN_POINT('Origin',(5.00000000000001,93.8085767157016,-43.6304076062424));
#1481=CARTESIAN_POINT('',(9.99999999999998,-1.42635268244961,118.820902906066));
#1482=CARTESIAN_POINT('Origin',(10.,93.8085767157016,-43.6304076062424));
#1483=CARTESIAN_POINT('',(4.99999999999998,-1.4263526824496,118.820902906065));
#1484=CARTESIAN_POINT('Origin',(4.99999999999999,21.3318875297864,80.0000000000001));
#1485=CARTESIAN_POINT('',(4.99999999999998,21.3318875297863,125.));
#1486=CARTESIAN_POINT('Origin',(4.99999999999999,21.3318875297864,80.0000000000001));
#1487=CARTESIAN_POINT('',(9.99999999999998,21.3318875297863,125.));
#1488=CARTESIAN_POINT('Origin',(9.99999999999999,21.3318875297864,80.0000000000001));
#1489=CARTESIAN_POINT('',(4.99999999999998,21.3318875297863,125.));
#1490=CARTESIAN_POINT('Origin',(4.99999999999998,135.500000000149,125.));
#1491=CARTESIAN_POINT('',(4.99999999999998,135.500000000149,125.));
#1492=CARTESIAN_POINT('',(4.99999999999998,21.3318875297863,125.));
#1493=CARTESIAN_POINT('',(9.99999999999998,135.500000000149,125.));
#1494=CARTESIAN_POINT('',(9.99999999999998,21.3318875297863,125.));
#1495=CARTESIAN_POINT('',(4.99999999999998,135.500000000149,125.));
#1496=CARTESIAN_POINT('Origin',(4.99999999999998,138.00000205636,125.000001862645));
#1497=CARTESIAN_POINT('',(4.99999999999998,138.00000205636,125.000001862645));
#1498=CARTESIAN_POINT('',(4.99999999999998,138.00000205636,125.000001862645));
#1499=CARTESIAN_POINT('',(9.99999999999998,138.00000205636,125.000001862645));
#1500=CARTESIAN_POINT('',(9.99999999999998,138.00000205636,125.000001862645));
#1501=CARTESIAN_POINT('',(4.99999999999998,138.00000205636,125.000001862645));
#1502=CARTESIAN_POINT('Origin',(4.99999999999998,140.500002130866,125.000001862645));
#1503=CARTESIAN_POINT('',(4.99999999999998,140.500002130866,125.000001862645));
#1504=CARTESIAN_POINT('',(4.99999999999998,140.500002130866,125.000001862645));
#1505=CARTESIAN_POINT('',(9.99999999999998,140.500002130866,125.000001862645));
#1506=CARTESIAN_POINT('',(9.99999999999998,140.500002130866,125.000001862645));
#1507=CARTESIAN_POINT('',(4.99999999999998,140.500002130866,125.000001862645));
#1508=CARTESIAN_POINT('Origin',(4.99999999999998,140.500002130866,122.500001862645));
#1509=CARTESIAN_POINT('',(4.99999999999998,143.000002130866,122.500001862645));
#1510=CARTESIAN_POINT('Origin',(4.99999999999998,140.500002130866,122.500001862645));
#1511=CARTESIAN_POINT('',(9.99999999999998,143.000002130866,122.500001862645));
#1512=CARTESIAN_POINT('Origin',(9.99999999999998,140.500002130866,122.500001862645));
#1513=CARTESIAN_POINT('',(4.99999999999998,143.000002130866,122.500001862645));
#1514=CARTESIAN_POINT('Origin',(4.99999999999998,143.000002130866,106.474047307417));
#1515=CARTESIAN_POINT('',(4.99999999999998,143.000002130866,115.));
#1516=CARTESIAN_POINT('',(9.99999999999998,143.000002130866,115.));
#1517=CARTESIAN_POINT('Origin',(10.,24.2500010655075,-4.99999906867742));
#1518=CARTESIAN_POINT('Origin',(5.,24.2500010655075,-4.99999906867742));
#1519=UNCERTAINTY_MEASURE_WITH_UNIT(LENGTH_MEASURE(0.01),#1523,
'DISTANCE_ACCURACY_VALUE',
'Maximum model space distance between geometric entities at asserted c
onnectivities');
#1520=UNCERTAINTY_MEASURE_WITH_UNIT(LENGTH_MEASURE(0.01),#1523,
'DISTANCE_ACCURACY_VALUE',
'Maximum model space distance between geometric entities at asserted c
onnectivities');
#1521=(
GEOMETRIC_REPRESENTATION_CONTEXT(3)
GLOBAL_UNCERTAINTY_ASSIGNED_CONTEXT((#1519))
GLOBAL_UNIT_ASSIGNED_CONTEXT((#1523,#1525,#1526))
REPRESENTATION_CONTEXT('','3D')
);
#1522=(
GEOMETRIC_REPRESENTATION_CONTEXT(3)
GLOBAL_UNCERTAINTY_ASSIGNED_CONTEXT((#1520))
GLOBAL_UNIT_ASSIGNED_CONTEXT((#1523,#1525,#1526))
REPRESENTATION_CONTEXT('','3D')
);
#1523=(
LENGTH_UNIT()
NAMED_UNIT(*)
SI_UNIT(.MILLI.,.METRE.)
);
#1524=(
LENGTH_UNIT()
NAMED_UNIT(*)
SI_UNIT($,.METRE.)
);
#1525=(
NAMED_UNIT(*)
PLANE_ANGLE_UNIT()
SI_UNIT($,.RADIAN.)
);
#1526=(
NAMED_UNIT(*)
SI_UNIT($,.STERADIAN.)
SOLID_ANGLE_UNIT()
);
#1527=SHAPE_DEFINITION_REPRESENTATION(#1528,#1529);
#1528=PRODUCT_DEFINITION_SHAPE('',$,#1531);
#1529=SHAPE_REPRESENTATION('',(#903),#1521);
#1530=PRODUCT_DEFINITION_CONTEXT('part definition',#1535,'design');
#1531=PRODUCT_DEFINITION('Bracket L_1','Bracket L_1 v3',#1532,#1530);
#1532=PRODUCT_DEFINITION_FORMATION('',$,#1537);
#1533=PRODUCT_RELATED_PRODUCT_CATEGORY('Bracket L_1 v3',
'Bracket L_1 v3',(#1537));
#1534=APPLICATION_PROTOCOL_DEFINITION('international standard',
'automotive_design',2009,#1535);
#1535=APPLICATION_CONTEXT(
'Core Data for Automotive Mechanical Design Process');
#1536=PRODUCT_CONTEXT('part definition',#1535,'mechanical');
#1537=PRODUCT('Bracket L_1','Bracket L_1 v3',$,(#1536));
#1538=PRESENTATION_STYLE_ASSIGNMENT((#1539));
#1539=SURFACE_STYLE_USAGE(.BOTH.,#1540);
#1540=SURFACE_SIDE_STYLE('',(#1541));
#1541=SURFACE_STYLE_FILL_AREA(#1542);
#1542=FILL_AREA_STYLE('Steel - Satin',(#1543));
#1543=FILL_AREA_STYLE_COLOUR('Steel - Satin',#1544);
#1544=COLOUR_RGB('Steel - Satin',0.627450980392157,0.627450980392157,0.627450980392157);
ENDSEC;
END-ISO-10303-21;
